<svg width="35" height="32" viewBox="0 0 35 32" fill="none" xmlns="http://www.w3.org/2000/svg">
<rect width="35" height="32" rx="6" fill="white"/>
<circle cx="14.418" cy="8.45312" r="1.64062" fill="#DE904C"/>
<circle cx="14.418" cy="8.45312" r="1.64062" fill="url(#paint0_radial_784_3997)"/>
<circle cx="14.418" cy="8.45312" r="1.64062" fill="url(#paint1_radial_784_3997)" fill-opacity="0.5"/>
<circle cx="14.418" cy="8.45312" r="1.64062" fill="url(#paint2_radial_784_3997)"/>
<circle cx="14.418" cy="8.45312" r="1.64062" fill="url(#paint3_radial_784_3997)"/>
<circle cx="14.418" cy="8.45312" r="1.64062" fill="url(#paint4_radial_784_3997)"/>
<circle cx="20.5938" cy="8.45312" r="1.64062" fill="#D68640"/>
<circle cx="20.5938" cy="8.45312" r="1.64062" fill="url(#paint5_radial_784_3997)"/>
<circle cx="20.5938" cy="8.45312" r="1.64062" fill="url(#paint6_radial_784_3997)"/>
<circle cx="20.5938" cy="8.45312" r="1.64062" fill="url(#paint7_radial_784_3997)"/>
<circle cx="20.5938" cy="8.45312" r="1.64062" fill="url(#paint8_radial_784_3997)"/>
<circle cx="20.5938" cy="8.45312" r="1.64062" fill="url(#paint9_radial_784_3997)"/>
<circle cx="14.4212" cy="8.49934" r="1.06184" fill="url(#paint10_radial_784_3997)"/>
<circle cx="20.5931" cy="8.49934" r="1.06184" fill="#F9BF76"/>
<circle cx="20.5931" cy="8.49934" r="1.06184" fill="url(#paint11_radial_784_3997)"/>
<rect x="19.5273" y="13.8979" width="9.1875" height="3.9375" rx="1.96875" transform="rotate(31.3889 19.5273 13.8979)" fill="#DE773D"/>
<rect x="19.5273" y="13.8979" width="9.1875" height="3.9375" rx="1.96875" transform="rotate(31.3889 19.5273 13.8979)" fill="url(#paint12_radial_784_3997)"/>
<rect x="19.5273" y="13.8979" width="9.1875" height="3.9375" rx="1.96875" transform="rotate(31.3889 19.5273 13.8979)" fill="url(#paint13_linear_784_3997)"/>
<rect x="19.5273" y="13.8979" width="9.1875" height="3.9375" rx="1.96875" transform="rotate(31.3889 19.5273 13.8979)" fill="url(#paint14_linear_784_3997)" fill-opacity="0.7"/>
<rect x="19.5273" y="13.8979" width="9.1875" height="3.9375" rx="1.96875" transform="rotate(31.3889 19.5273 13.8979)" fill="url(#paint15_radial_784_3997)"/>
<rect x="19.5273" y="13.8979" width="9.1875" height="3.9375" rx="1.96875" transform="rotate(31.3889 19.5273 13.8979)" fill="url(#paint16_radial_784_3997)"/>
<rect x="19.5273" y="13.8979" width="9.1875" height="3.9375" rx="1.96875" transform="rotate(31.3889 19.5273 13.8979)" fill="url(#paint17_radial_784_3997)"/>
<rect x="19.5273" y="13.8979" width="9.1875" height="3.9375" rx="1.96875" transform="rotate(31.3889 19.5273 13.8979)" fill="url(#paint18_radial_784_3997)"/>
<rect x="19.5273" y="13.8979" width="9.1875" height="3.9375" rx="1.96875" transform="rotate(31.3889 19.5273 13.8979)" fill="url(#paint19_radial_784_3997)"/>
<rect x="7.63281" y="18.563" width="9.1875" height="3.9375" rx="1.96875" transform="rotate(-30 7.63281 18.563)" fill="#D77940"/>
<rect x="7.63281" y="18.563" width="9.1875" height="3.9375" rx="1.96875" transform="rotate(-30 7.63281 18.563)" fill="url(#paint20_linear_784_3997)"/>
<rect x="7.63281" y="18.563" width="9.1875" height="3.9375" rx="1.96875" transform="rotate(-30 7.63281 18.563)" fill="url(#paint21_radial_784_3997)"/>
<rect x="7.63281" y="18.563" width="9.1875" height="3.9375" rx="1.96875" transform="rotate(-30 7.63281 18.563)" fill="url(#paint22_radial_784_3997)"/>
<rect x="7.63281" y="18.563" width="9.1875" height="3.9375" rx="1.96875" transform="rotate(-30 7.63281 18.563)" fill="url(#paint23_radial_784_3997)"/>
<rect x="7.63281" y="18.563" width="9.1875" height="3.9375" rx="1.96875" transform="rotate(-30 7.63281 18.563)" fill="url(#paint24_radial_784_3997)"/>
<rect x="7.63281" y="18.563" width="9.1875" height="3.9375" rx="1.96875" transform="rotate(-30 7.63281 18.563)" fill="url(#paint25_radial_784_3997)" fill-opacity="0.2"/>
<circle cx="17.4766" cy="19.1479" r="5.25" fill="url(#paint26_linear_784_3997)"/>
<circle cx="17.4766" cy="19.1479" r="5.25" fill="url(#paint27_radial_784_3997)"/>
<circle cx="17.4766" cy="19.1479" r="5.25" fill="url(#paint28_radial_784_3997)"/>
<circle cx="17.4766" cy="19.1479" r="5.25" fill="url(#paint29_radial_784_3997)"/>
<circle cx="17.4766" cy="19.1479" r="5.25" fill="url(#paint30_radial_784_3997)"/>
<circle cx="17.4766" cy="19.1479" r="5.25" fill="url(#paint31_radial_784_3997)"/>
<circle cx="17.4766" cy="19.1479" r="5.25" fill="url(#paint32_radial_784_3997)"/>
<circle cx="17.4766" cy="19.1479" r="5.25" fill="url(#paint33_radial_784_3997)"/>
<circle cx="17.4766" cy="19.1479" r="5.25" fill="url(#paint34_radial_784_3997)"/>
<circle cx="17.4766" cy="19.1479" r="5.25" fill="url(#paint35_radial_784_3997)"/>
<circle cx="17.4766" cy="19.8042" r="3.28125" fill="url(#paint36_linear_784_3997)"/>
<circle cx="17.4766" cy="19.8042" r="3.28125" fill="url(#paint37_radial_784_3997)"/>
<circle cx="17.4766" cy="19.8042" r="3.28125" fill="url(#paint38_radial_784_3997)"/>
<circle cx="17.4766" cy="19.8042" r="3.28125" fill="url(#paint39_radial_784_3997)"/>
<circle cx="17.4766" cy="19.8042" r="3.28125" fill="url(#paint40_radial_784_3997)"/>
<path d="M22.6516 12.1717C22.6516 15.1036 20.3336 16.099 17.4743 16.099C14.6149 16.099 12.2969 15.1036 12.2969 12.1717C12.2969 9.23982 14.9365 7.14062 17.4743 7.14062C20.09 7.14062 22.6516 9.23982 22.6516 12.1717Z" fill="url(#paint41_linear_784_3997)"/>
<path d="M22.6516 12.1717C22.6516 15.1036 20.3336 16.099 17.4743 16.099C14.6149 16.099 12.2969 15.1036 12.2969 12.1717C12.2969 9.23982 14.9365 7.14062 17.4743 7.14062C20.09 7.14062 22.6516 9.23982 22.6516 12.1717Z" fill="url(#paint42_radial_784_3997)"/>
<path d="M22.6516 12.1717C22.6516 15.1036 20.3336 16.099 17.4743 16.099C14.6149 16.099 12.2969 15.1036 12.2969 12.1717C12.2969 9.23982 14.9365 7.14062 17.4743 7.14062C20.09 7.14062 22.6516 9.23982 22.6516 12.1717Z" fill="url(#paint43_radial_784_3997)"/>
<path d="M22.6516 12.1717C22.6516 15.1036 20.3336 16.099 17.4743 16.099C14.6149 16.099 12.2969 15.1036 12.2969 12.1717C12.2969 9.23982 14.9365 7.14062 17.4743 7.14062C20.09 7.14062 22.6516 9.23982 22.6516 12.1717Z" fill="url(#paint44_radial_784_3997)"/>
<path d="M22.6516 12.1717C22.6516 15.1036 20.3336 16.099 17.4743 16.099C14.6149 16.099 12.2969 15.1036 12.2969 12.1717C12.2969 9.23982 14.9365 7.14062 17.4743 7.14062C20.09 7.14062 22.6516 9.23982 22.6516 12.1717Z" fill="url(#paint45_radial_784_3997)"/>
<path d="M22.6516 12.1717C22.6516 15.1036 20.3336 16.099 17.4743 16.099C14.6149 16.099 12.2969 15.1036 12.2969 12.1717C12.2969 9.23982 14.9365 7.14062 17.4743 7.14062C20.09 7.14062 22.6516 9.23982 22.6516 12.1717Z" fill="url(#paint46_radial_784_3997)"/>
<path d="M22.6516 12.1717C22.6516 15.1036 20.3336 16.099 17.4743 16.099C14.6149 16.099 12.2969 15.1036 12.2969 12.1717C12.2969 9.23982 14.9365 7.14062 17.4743 7.14062C20.09 7.14062 22.6516 9.23982 22.6516 12.1717Z" fill="url(#paint47_radial_784_3997)"/>
<circle cx="15.8359" cy="11.0269" r="0.328125" fill="url(#paint48_radial_784_3997)"/>
<circle cx="19.1172" cy="11.0269" r="0.328125" fill="url(#paint49_radial_784_3997)"/>
<path d="M17.4753 11.4775C17.1651 11.4775 16.4871 11.4775 15.8249 11.9082C15.2667 12.2712 15.2152 13.1387 15.5621 13.8872C15.909 14.6357 16.4977 15.1074 17.4753 15.1074C18.453 15.1074 19.0417 14.6357 19.3886 13.8872C19.7355 13.1387 19.684 12.2712 19.1258 11.9082C18.4636 11.4775 17.7855 11.4775 17.4753 11.4775Z" fill="url(#paint50_radial_784_3997)"/>
<path d="M17.4753 11.4775C17.1651 11.4775 16.4871 11.4775 15.8249 11.9082C15.2667 12.2712 15.2152 13.1387 15.5621 13.8872C15.909 14.6357 16.4977 15.1074 17.4753 15.1074C18.453 15.1074 19.0417 14.6357 19.3886 13.8872C19.7355 13.1387 19.684 12.2712 19.1258 11.9082C18.4636 11.4775 17.7855 11.4775 17.4753 11.4775Z" fill="url(#paint51_radial_784_3997)"/>
<path d="M17.4753 11.4775C17.1651 11.4775 16.4871 11.4775 15.8249 11.9082C15.2667 12.2712 15.2152 13.1387 15.5621 13.8872C15.909 14.6357 16.4977 15.1074 17.4753 15.1074C18.453 15.1074 19.0417 14.6357 19.3886 13.8872C19.7355 13.1387 19.684 12.2712 19.1258 11.9082C18.4636 11.4775 17.7855 11.4775 17.4753 11.4775Z" fill="url(#paint52_radial_784_3997)"/>
<path d="M17.4753 11.4775C17.1651 11.4775 16.4871 11.4775 15.8249 11.9082C15.2667 12.2712 15.2152 13.1387 15.5621 13.8872C15.909 14.6357 16.4977 15.1074 17.4753 15.1074C18.453 15.1074 19.0417 14.6357 19.3886 13.8872C19.7355 13.1387 19.684 12.2712 19.1258 11.9082C18.4636 11.4775 17.7855 11.4775 17.4753 11.4775Z" fill="url(#paint53_radial_784_3997)"/>
<path d="M17.4753 11.4775C17.1651 11.4775 16.4871 11.4775 15.8249 11.9082C15.2667 12.2712 15.2152 13.1387 15.5621 13.8872C15.909 14.6357 16.4977 15.1074 17.4753 15.1074C18.453 15.1074 19.0417 14.6357 19.3886 13.8872C19.7355 13.1387 19.684 12.2712 19.1258 11.9082C18.4636 11.4775 17.7855 11.4775 17.4753 11.4775Z" fill="url(#paint54_radial_784_3997)"/>
<path d="M17.4753 11.4775C17.1651 11.4775 16.4871 11.4775 15.8249 11.9082C15.2667 12.2712 15.2152 13.1387 15.5621 13.8872C15.909 14.6357 16.4977 15.1074 17.4753 15.1074C18.453 15.1074 19.0417 14.6357 19.3886 13.8872C19.7355 13.1387 19.684 12.2712 19.1258 11.9082C18.4636 11.4775 17.7855 11.4775 17.4753 11.4775Z" fill="url(#paint55_radial_784_3997)"/>
<rect width="4.59375" height="5.57812" rx="2.29688" transform="matrix(-0.872609 0.488419 0.488419 0.872609 13.4922 18.8276)" fill="url(#paint56_linear_784_3997)"/>
<rect width="4.59375" height="5.57812" rx="2.29688" transform="matrix(-0.872609 0.488419 0.488419 0.872609 13.4922 18.8276)" fill="url(#paint57_radial_784_3997)"/>
<rect width="4.59375" height="5.57812" rx="2.29688" transform="matrix(-0.872609 0.488419 0.488419 0.872609 13.4922 18.8276)" fill="url(#paint58_radial_784_3997)"/>
<rect width="4.59375" height="5.57812" rx="2.29688" transform="matrix(-0.872609 0.488419 0.488419 0.872609 13.4922 18.8276)" fill="url(#paint59_radial_784_3997)"/>
<rect width="4.59375" height="5.57812" rx="2.29688" transform="matrix(-0.872609 0.488419 0.488419 0.872609 13.4922 18.8276)" fill="url(#paint60_radial_784_3997)"/>
<rect width="4.59375" height="5.57812" rx="2.29688" transform="matrix(-0.872609 0.488419 0.488419 0.872609 13.4922 18.8276)" fill="url(#paint61_radial_784_3997)" fill-opacity="0.7"/>
<rect width="4.59375" height="5.57812" rx="2.29688" transform="matrix(-0.872609 0.488419 0.488419 0.872609 13.4922 18.8276)" fill="url(#paint62_radial_784_3997)"/>
<rect width="4.59375" height="5.57812" rx="2.29688" transform="matrix(-0.872609 0.488419 0.488419 0.872609 13.4922 18.8276)" fill="url(#paint63_radial_784_3997)" fill-opacity="0.2"/>
<rect width="4.59375" height="5.57812" rx="2.29688" transform="matrix(-0.872609 0.488419 0.488419 0.872609 13.4922 18.8276)" fill="url(#paint64_radial_784_3997)"/>
<rect width="4.59375" height="5.57812" rx="2.29688" transform="matrix(-0.872609 0.488419 0.488419 0.872609 13.4922 18.8276)" fill="url(#paint65_radial_784_3997)"/>
<rect width="4.59375" height="5.57812" rx="2.29688" transform="matrix(-0.872609 0.488419 0.488419 0.872609 13.4922 18.8276)" fill="url(#paint66_radial_784_3997)" fill-opacity="0.5"/>
<rect x="21.457" y="18.8276" width="4.59375" height="5.57812" rx="2.29688" transform="rotate(29.2367 21.457 18.8276)" fill="url(#paint67_linear_784_3997)"/>
<rect x="21.457" y="18.8276" width="4.59375" height="5.57812" rx="2.29688" transform="rotate(29.2367 21.457 18.8276)" fill="url(#paint68_radial_784_3997)"/>
<rect x="21.457" y="18.8276" width="4.59375" height="5.57812" rx="2.29688" transform="rotate(29.2367 21.457 18.8276)" fill="url(#paint69_radial_784_3997)" fill-opacity="0.7"/>
<rect x="21.457" y="18.8276" width="4.59375" height="5.57812" rx="2.29688" transform="rotate(29.2367 21.457 18.8276)" fill="url(#paint70_radial_784_3997)"/>
<rect x="21.457" y="18.8276" width="4.59375" height="5.57812" rx="2.29688" transform="rotate(29.2367 21.457 18.8276)" fill="url(#paint71_radial_784_3997)"/>
<rect x="21.457" y="18.8276" width="4.59375" height="5.57812" rx="2.29688" transform="rotate(29.2367 21.457 18.8276)" fill="url(#paint72_radial_784_3997)"/>
<rect x="21.457" y="18.8276" width="4.59375" height="5.57812" rx="2.29688" transform="rotate(29.2367 21.457 18.8276)" fill="url(#paint73_radial_784_3997)"/>
<rect x="21.457" y="18.8276" width="4.59375" height="5.57812" rx="2.29688" transform="rotate(29.2367 21.457 18.8276)" fill="url(#paint74_radial_784_3997)"/>
<rect x="21.457" y="18.8276" width="4.59375" height="5.57812" rx="2.29688" transform="rotate(29.2367 21.457 18.8276)" fill="url(#paint75_radial_784_3997)"/>
<rect x="21.457" y="18.8276" width="4.59375" height="5.57812" rx="2.29688" transform="rotate(29.2367 21.457 18.8276)" fill="url(#paint76_radial_784_3997)"/>
<rect width="2.625" height="3.60938" rx="1.3125" transform="matrix(-0.872609 0.488419 0.488419 0.872609 13.1328 20.1807)" fill="url(#paint77_linear_784_3997)"/>
<rect x="21.8203" y="20.1807" width="2.625" height="3.60938" rx="1.3125" transform="rotate(29.2367 21.8203 20.1807)" fill="url(#paint78_linear_784_3997)"/>
<path d="M16.9847 11.9438C16.7741 11.9438 16.6271 12.1395 16.7362 12.3196C16.8587 12.5216 17.0537 12.7485 17.3436 12.9123C17.4256 12.9588 17.5262 12.9588 17.6083 12.9123C17.8982 12.7485 18.0932 12.5216 18.2156 12.3196C18.3248 12.1395 18.1777 11.9438 17.9672 11.9438H16.9847Z" fill="url(#paint79_linear_784_3997)"/>
<path d="M16.9847 11.9438C16.7741 11.9438 16.6271 12.1395 16.7362 12.3196C16.8587 12.5216 17.0537 12.7485 17.3436 12.9123C17.4256 12.9588 17.5262 12.9588 17.6083 12.9123C17.8982 12.7485 18.0932 12.5216 18.2156 12.3196C18.3248 12.1395 18.1777 11.9438 17.9672 11.9438H16.9847Z" fill="url(#paint80_radial_784_3997)"/>
<path d="M16.9847 11.9438C16.7741 11.9438 16.6271 12.1395 16.7362 12.3196C16.8587 12.5216 17.0537 12.7485 17.3436 12.9123C17.4256 12.9588 17.5262 12.9588 17.6083 12.9123C17.8982 12.7485 18.0932 12.5216 18.2156 12.3196C18.3248 12.1395 18.1777 11.9438 17.9672 11.9438H16.9847Z" fill="url(#paint81_radial_784_3997)"/>
<defs>
<radialGradient id="paint0_radial_784_3997" cx="0" cy="0" r="1" gradientUnits="userSpaceOnUse" gradientTransform="translate(15.858 7.59124) rotate(-139.844) scale(1.71728 0.515981)">
<stop stop-color="#F4A161"/>
<stop offset="1" stop-color="#F4A161" stop-opacity="0"/>
</radialGradient>
<radialGradient id="paint1_radial_784_3997" cx="0" cy="0" r="1" gradientUnits="userSpaceOnUse" gradientTransform="translate(14.5134 8.46299) rotate(88.8508) scale(1.61513)">
<stop stop-color="#FFAF7E" stop-opacity="0"/>
<stop offset="0.721401" stop-color="#FFAF7E" stop-opacity="0"/>
<stop offset="0.793761" stop-color="#FFAF7E" stop-opacity="0.378002"/>
<stop offset="0.840752" stop-color="#FFAF7E" stop-opacity="0.74"/>
<stop offset="0.87818" stop-color="#FFAF7E" stop-opacity="0.76"/>
<stop offset="1" stop-color="#FFAF7E" stop-opacity="0"/>
</radialGradient>
<radialGradient id="paint2_radial_784_3997" cx="0" cy="0" r="1" gradientUnits="userSpaceOnUse" gradientTransform="translate(13.1282 9.24485) rotate(-42.4266) scale(2.17139 1.808)">
<stop stop-color="#D68640"/>
<stop offset="0.616888" stop-color="#D68640" stop-opacity="0.677556"/>
<stop offset="1" stop-color="#D68640" stop-opacity="0"/>
</radialGradient>
<radialGradient id="paint3_radial_784_3997" cx="0" cy="0" r="1" gradientUnits="userSpaceOnUse" gradientTransform="translate(14.418 8.45312) rotate(99.5615) scale(1.39281)">
<stop offset="0.804914" stop-color="#CE7032"/>
<stop offset="0.935971" stop-color="#CE7032" stop-opacity="0.26947"/>
<stop offset="1" stop-color="#CE7032" stop-opacity="0"/>
</radialGradient>
<radialGradient id="paint4_radial_784_3997" cx="0" cy="0" r="1" gradientUnits="userSpaceOnUse" gradientTransform="translate(14.4671 8.43307) rotate(-136.594) scale(1.7586 1.7615)">
<stop offset="0.858922" stop-color="#C17B3B" stop-opacity="0"/>
<stop offset="0.894721" stop-color="#C17B3B" stop-opacity="0.264579"/>
<stop offset="0.946636" stop-color="#C17B3B"/>
</radialGradient>
<radialGradient id="paint5_radial_784_3997" cx="0" cy="0" r="1" gradientUnits="userSpaceOnUse" gradientTransform="translate(20.6891 8.46299) rotate(88.8508) scale(1.61513)">
<stop stop-color="#FFAF7E" stop-opacity="0"/>
<stop offset="0.721401" stop-color="#FFAF7E" stop-opacity="0"/>
<stop offset="0.793761" stop-color="#FFAF7E" stop-opacity="0.378002"/>
<stop offset="0.840752" stop-color="#FFAF7E" stop-opacity="0.74"/>
<stop offset="0.87818" stop-color="#FFAF7E" stop-opacity="0.76"/>
<stop offset="1" stop-color="#FFAF7E" stop-opacity="0"/>
</radialGradient>
<radialGradient id="paint6_radial_784_3997" cx="0" cy="0" r="1" gradientUnits="userSpaceOnUse" gradientTransform="translate(21.9709 9.5424) rotate(-79.177) scale(1.25651 1.57726)">
<stop stop-color="#D68640"/>
<stop offset="0.616888" stop-color="#D68640" stop-opacity="0.677556"/>
<stop offset="1" stop-color="#D68640" stop-opacity="0"/>
</radialGradient>
<radialGradient id="paint7_radial_784_3997" cx="0" cy="0" r="1" gradientUnits="userSpaceOnUse" gradientTransform="translate(19.5139 7.37517) rotate(-22.3075) scale(2.04777 1.70507)">
<stop stop-color="#D68640"/>
<stop offset="0.616888" stop-color="#D68640" stop-opacity="0.677556"/>
<stop offset="1" stop-color="#D68640" stop-opacity="0"/>
</radialGradient>
<radialGradient id="paint8_radial_784_3997" cx="0" cy="0" r="1" gradientUnits="userSpaceOnUse" gradientTransform="translate(20.6059 8.50799) rotate(90) scale(1.349)">
<stop offset="0.809933" stop-color="#DC692A" stop-opacity="0.8"/>
<stop offset="0.906673" stop-color="#DC692A" stop-opacity="0.344694"/>
<stop offset="0.968129" stop-color="#DC692A" stop-opacity="0.149532"/>
<stop offset="1" stop-color="#DC692A" stop-opacity="0"/>
</radialGradient>
<radialGradient id="paint9_radial_784_3997" cx="0" cy="0" r="1" gradientUnits="userSpaceOnUse" gradientTransform="translate(21.034 8.50896) rotate(-143.383) scale(2.08874 1.71625)">
<stop offset="0.828064" stop-color="#B56E32" stop-opacity="0"/>
<stop offset="0.923978" stop-color="#B56E32"/>
</radialGradient>
<radialGradient id="paint10_radial_784_3997" cx="0" cy="0" r="1" gradientUnits="userSpaceOnUse" gradientTransform="translate(13.8105 7.78613) rotate(49.548) scale(1.28014 2.1202)">
<stop offset="0.145891" stop-color="#FECC85"/>
<stop offset="0.852444" stop-color="#DCA86A"/>
</radialGradient>
<radialGradient id="paint11_radial_784_3997" cx="0" cy="0" r="1" gradientUnits="userSpaceOnUse" gradientTransform="translate(20.2182 8.30908) rotate(6.91464) scale(1.58034)">
<stop offset="0.617592" stop-color="#E8A869" stop-opacity="0"/>
<stop offset="0.906457" stop-color="#E8A869"/>
</radialGradient>
<radialGradient id="paint12_radial_784_3997" cx="0" cy="0" r="1" gradientUnits="userSpaceOnUse" gradientTransform="translate(25.9751 17.6585) rotate(-86.3598) scale(2.12786 5.25261)">
<stop offset="0.28879" stop-color="#983C50"/>
<stop offset="0.749404" stop-color="#983C50" stop-opacity="0.299712"/>
<stop offset="1" stop-color="#983C50" stop-opacity="0"/>
</radialGradient>
<linearGradient id="paint13_linear_784_3997" x1="24.1288" y1="13.7925" x2="24.0006" y2="14.9998" gradientUnits="userSpaceOnUse">
<stop stop-color="#EB9251"/>
<stop offset="1" stop-color="#EB9251" stop-opacity="0"/>
</linearGradient>
<linearGradient id="paint14_linear_784_3997" x1="24.1528" y1="13.7343" x2="24.1556" y2="14.3565" gradientUnits="userSpaceOnUse">
<stop offset="0.123139" stop-color="#94404F" stop-opacity="0.7"/>
<stop offset="0.533182" stop-color="#94404F" stop-opacity="0.224559"/>
<stop offset="0.742073" stop-color="#94404F" stop-opacity="0.08"/>
<stop offset="1" stop-color="#94404F" stop-opacity="0"/>
</linearGradient>
<radialGradient id="paint15_radial_784_3997" cx="0" cy="0" r="1" gradientUnits="userSpaceOnUse" gradientTransform="translate(28.6738 16.8856) rotate(-157.82) scale(1.24629 2.90801)">
<stop offset="0.123139" stop-color="#94404F" stop-opacity="0.7"/>
<stop offset="0.533182" stop-color="#94404F" stop-opacity="0.224559"/>
<stop offset="0.742073" stop-color="#94404F" stop-opacity="0.08"/>
<stop offset="1" stop-color="#94404F" stop-opacity="0"/>
</radialGradient>
<radialGradient id="paint16_radial_784_3997" cx="0" cy="0" r="1" gradientUnits="userSpaceOnUse" gradientTransform="translate(24.4414 16.1069) rotate(-56.3026) scale(1.52781 3.18956)">
<stop stop-color="#DC692A"/>
<stop offset="0.494344" stop-color="#DC692A" stop-opacity="0.344694"/>
<stop offset="0.796978" stop-color="#DC692A" stop-opacity="0.149532"/>
<stop offset="1" stop-color="#DC692A" stop-opacity="0"/>
</radialGradient>
<radialGradient id="paint17_radial_784_3997" cx="0" cy="0" r="1" gradientUnits="userSpaceOnUse" gradientTransform="translate(22.6935 17.0705) rotate(-45.9881) scale(2.27814 3.07663)">
<stop offset="0.845647" stop-color="#FFAA6F"/>
<stop offset="1" stop-color="#FFAA6F" stop-opacity="0"/>
</radialGradient>
<radialGradient id="paint18_radial_784_3997" cx="0" cy="0" r="1" gradientUnits="userSpaceOnUse" gradientTransform="translate(24.0521 14.9246) rotate(89.7335) scale(1.06156 5.93338)">
<stop stop-color="#FA9C66"/>
<stop offset="0.465881" stop-color="#FA9C66" stop-opacity="0.62"/>
<stop offset="0.770178" stop-color="#FA9C66" stop-opacity="0.189499"/>
<stop offset="0.879102" stop-color="#FA9C66" stop-opacity="0.0701698"/>
<stop offset="1" stop-color="#FA9C66" stop-opacity="0"/>
</radialGradient>
<radialGradient id="paint19_radial_784_3997" cx="0" cy="0" r="1" gradientUnits="userSpaceOnUse" gradientTransform="translate(27.7389 14.4726) rotate(99.107) scale(1.56807 0.970837)">
<stop stop-color="#FFB075"/>
<stop offset="0.403044" stop-color="#FFB075" stop-opacity="0.640965"/>
<stop offset="0.748963" stop-color="#FFB075" stop-opacity="0.186486"/>
<stop offset="0.885359" stop-color="#FFB075" stop-opacity="0.0732092"/>
<stop offset="1" stop-color="#FFB075" stop-opacity="0"/>
</radialGradient>
<linearGradient id="paint20_linear_784_3997" x1="12.2289" y1="18.0988" x2="12.2069" y2="19.6367" gradientUnits="userSpaceOnUse">
<stop offset="0.171875" stop-color="#A2643B"/>
<stop offset="0.604167" stop-color="#A2643B" stop-opacity="0.29"/>
<stop offset="0.765625" stop-color="#A2643B" stop-opacity="0.0874598"/>
<stop offset="1" stop-color="#A2643B" stop-opacity="0"/>
</linearGradient>
<radialGradient id="paint21_radial_784_3997" cx="0" cy="0" r="1" gradientUnits="userSpaceOnUse" gradientTransform="translate(11.9191 22.0883) rotate(153.857) scale(3.31801 2.37943)">
<stop offset="0.316225" stop-color="#BB5124"/>
<stop offset="1" stop-color="#BB5124" stop-opacity="0"/>
</radialGradient>
<radialGradient id="paint22_radial_784_3997" cx="0" cy="0" r="1" gradientUnits="userSpaceOnUse" gradientTransform="translate(12.7155 21.5111) rotate(-140.952) scale(1.38621 2.75584)">
<stop offset="0.92332" stop-color="#D77C46"/>
<stop offset="1" stop-color="#D77C46" stop-opacity="0"/>
</radialGradient>
<radialGradient id="paint23_radial_784_3997" cx="0" cy="0" r="1" gradientUnits="userSpaceOnUse" gradientTransform="translate(11.1277 17.0555) rotate(112.844) scale(5.84291 4.36817)">
<stop stop-color="#B55747" stop-opacity="0"/>
<stop offset="0.867068" stop-color="#B55747" stop-opacity="0"/>
<stop offset="0.887977" stop-color="#B55747" stop-opacity="0.0940403"/>
<stop offset="0.915908" stop-color="#B55747" stop-opacity="0.319386"/>
<stop offset="0.976453" stop-color="#B55747"/>
</radialGradient>
<radialGradient id="paint24_radial_784_3997" cx="0" cy="0" r="1" gradientUnits="userSpaceOnUse" gradientTransform="translate(8.69179 20.1445) rotate(30) scale(1.24309 1.18735)">
<stop stop-color="#E38B4D"/>
<stop offset="0.326701" stop-color="#E38B4D" stop-opacity="0.80726"/>
<stop offset="0.458672" stop-color="#E38B4D" stop-opacity="0.622643"/>
<stop offset="1" stop-color="#E38B4D" stop-opacity="0"/>
</radialGradient>
<radialGradient id="paint25_radial_784_3997" cx="0" cy="0" r="1" gradientUnits="userSpaceOnUse" gradientTransform="translate(8.76995 20.2079) rotate(33.9172) scale(1.28538 1.78342)">
<stop stop-color="#FFB075"/>
<stop offset="0.326701" stop-color="#FFB075" stop-opacity="0.80726"/>
<stop offset="0.458672" stop-color="#FFB075" stop-opacity="0.622643"/>
<stop offset="1" stop-color="#FFB075" stop-opacity="0"/>
</radialGradient>
<linearGradient id="paint26_linear_784_3997" x1="18.8624" y1="23.6932" x2="18.8624" y2="15.3922" gradientUnits="userSpaceOnUse">
<stop stop-color="#CA6645"/>
<stop offset="1" stop-color="#D57E40"/>
</linearGradient>
<radialGradient id="paint27_radial_784_3997" cx="0" cy="0" r="1" gradientUnits="userSpaceOnUse" gradientTransform="translate(22.0014 16.334) rotate(128.517) scale(6.55281 4.27048)">
<stop stop-color="#FFA66F"/>
<stop offset="0.327839" stop-color="#FFA66F" stop-opacity="0.758943"/>
<stop offset="0.678" stop-color="#FFA66F" stop-opacity="0.201128"/>
<stop offset="1" stop-color="#FFA66F" stop-opacity="0"/>
</radialGradient>
<radialGradient id="paint28_radial_784_3997" cx="0" cy="0" r="1" gradientUnits="userSpaceOnUse" gradientTransform="translate(15.7953 19.1929) rotate(46.8618) scale(3.10831 2.49182)">
<stop stop-color="#FFA66F"/>
<stop offset="1" stop-color="#FFA66F" stop-opacity="0"/>
</radialGradient>
<radialGradient id="paint29_radial_784_3997" cx="0" cy="0" r="1" gradientUnits="userSpaceOnUse" gradientTransform="translate(17.4766 14.7993) rotate(90) scale(2.5461 4.19115)">
<stop offset="0.465753" stop-color="#B54322"/>
<stop offset="0.932926" stop-color="#B54322" stop-opacity="0.0869441"/>
<stop offset="1" stop-color="#B54322" stop-opacity="0"/>
</radialGradient>
<radialGradient id="paint30_radial_784_3997" cx="0" cy="0" r="1" gradientUnits="userSpaceOnUse" gradientTransform="translate(17.816 19.9613) rotate(-125.505) scale(7.02644 7.73216)">
<stop offset="0.714895" stop-color="#A3633D" stop-opacity="0"/>
<stop offset="0.755248" stop-color="#A3633D" stop-opacity="0.132799"/>
<stop offset="0.884471" stop-color="#A3633D"/>
</radialGradient>
<radialGradient id="paint31_radial_784_3997" cx="0" cy="0" r="1" gradientUnits="userSpaceOnUse" gradientTransform="translate(12.5146 20.4147) rotate(-8.1301) scale(1.72638 4.43926)">
<stop stop-color="#C7733E"/>
<stop offset="1" stop-color="#C7733E" stop-opacity="0"/>
</radialGradient>
<radialGradient id="paint32_radial_784_3997" cx="0" cy="0" r="1" gradientUnits="userSpaceOnUse" gradientTransform="translate(14.7642 23.2747) rotate(55.4375) scale(1.90589 1.49108)">
<stop offset="0.254938" stop-color="#A03434"/>
<stop offset="0.824371" stop-color="#A03434" stop-opacity="0.139943"/>
<stop offset="1" stop-color="#A03434" stop-opacity="0"/>
</radialGradient>
<radialGradient id="paint33_radial_784_3997" cx="0" cy="0" r="1" gradientUnits="userSpaceOnUse" gradientTransform="translate(20.4319 23.1003) rotate(136.5) scale(2.35608 1.35856)">
<stop offset="0.317149" stop-color="#A14750"/>
<stop offset="0.878567" stop-color="#A14750" stop-opacity="0.127766"/>
<stop offset="1" stop-color="#A14750" stop-opacity="0"/>
</radialGradient>
<radialGradient id="paint34_radial_784_3997" cx="0" cy="0" r="1" gradientUnits="userSpaceOnUse" gradientTransform="translate(17.4766 16.8571) rotate(90) scale(7.54083)">
<stop offset="0.839082" stop-color="#AC4F52" stop-opacity="0"/>
<stop offset="1" stop-color="#AC4F52"/>
</radialGradient>
<radialGradient id="paint35_radial_784_3997" cx="0" cy="0" r="1" gradientUnits="userSpaceOnUse" gradientTransform="translate(21.4085 21.0076) rotate(-63.1836) scale(1.77818 1.27998)">
<stop offset="0.538765" stop-color="#DC6A27"/>
<stop offset="1" stop-color="#DC6A27" stop-opacity="0"/>
</radialGradient>
<linearGradient id="paint36_linear_784_3997" x1="17.4766" y1="16.334" x2="17.4766" y2="21.7052" gradientUnits="userSpaceOnUse">
<stop stop-color="#E6A04E"/>
<stop offset="1" stop-color="#FFC286"/>
</linearGradient>
<radialGradient id="paint37_radial_784_3997" cx="0" cy="0" r="1" gradientUnits="userSpaceOnUse" gradientTransform="translate(17.4766 17.8686) rotate(90) scale(5.61537)">
<stop offset="0.567668" stop-color="#E2A48D" stop-opacity="0"/>
<stop offset="0.66244" stop-color="#E2A48D" stop-opacity="0.167619"/>
<stop offset="0.942018" stop-color="#E2A48D"/>
</radialGradient>
<radialGradient id="paint38_radial_784_3997" cx="0" cy="0" r="1" gradientUnits="userSpaceOnUse" gradientTransform="translate(21.269 17.8337) rotate(152.09) scale(3.64182)">
<stop offset="0.24207" stop-color="#FFD992"/>
<stop offset="0.861366" stop-color="#FFD992" stop-opacity="0.11"/>
<stop offset="1" stop-color="#FFD992" stop-opacity="0"/>
</radialGradient>
<radialGradient id="paint39_radial_784_3997" cx="0" cy="0" r="1" gradientUnits="userSpaceOnUse" gradientTransform="translate(13.8923 21.7749) rotate(-28.2174) scale(1.62286 2.76197)">
<stop offset="0.625495" stop-color="#BC8A66"/>
<stop offset="0.861999" stop-color="#BC8A66" stop-opacity="0.21"/>
<stop offset="0.932351" stop-color="#BC8A66" stop-opacity="0.06"/>
<stop offset="1" stop-color="#BC8A66" stop-opacity="0"/>
</radialGradient>
<radialGradient id="paint40_radial_784_3997" cx="0" cy="0" r="1" gradientUnits="userSpaceOnUse" gradientTransform="translate(21.0105 22.4749) rotate(-153.435) scale(1.87606 3.1929)">
<stop offset="0.625495" stop-color="#BC8A66"/>
<stop offset="0.861999" stop-color="#BC8A66" stop-opacity="0.21"/>
<stop offset="0.932351" stop-color="#BC8A66" stop-opacity="0.06"/>
<stop offset="1" stop-color="#BC8A66" stop-opacity="0"/>
</radialGradient>
<linearGradient id="paint41_linear_784_3997" x1="17.4743" y1="8.05228" x2="17.4743" y2="16.099" gradientUnits="userSpaceOnUse">
<stop stop-color="#EC9D55"/>
<stop offset="1" stop-color="#DE7944"/>
</linearGradient>
<radialGradient id="paint42_radial_784_3997" cx="0" cy="0" r="1" gradientUnits="userSpaceOnUse" gradientTransform="translate(20.6731 10.5235) rotate(118.974) scale(4.16834 4.95886)">
<stop stop-color="#FFBE88"/>
<stop offset="1" stop-color="#FFBE88" stop-opacity="0"/>
</radialGradient>
<radialGradient id="paint43_radial_784_3997" cx="0" cy="0" r="1" gradientUnits="userSpaceOnUse" gradientTransform="translate(17.147 9.10708) rotate(87.7189) scale(7.93515 9.17207)">
<stop offset="0.586871" stop-color="#BA5137" stop-opacity="0"/>
<stop offset="0.62936" stop-color="#BA5137" stop-opacity="0.0722634"/>
<stop offset="0.690441" stop-color="#BA5137" stop-opacity="0.24"/>
<stop offset="0.919159" stop-color="#BA5137"/>
</radialGradient>
<radialGradient id="paint44_radial_784_3997" cx="0" cy="0" r="1" gradientUnits="userSpaceOnUse" gradientTransform="translate(16.9692 14.0486) rotate(112.62) scale(2.85255 2.3715)">
<stop offset="0.428778" stop-color="#CE6D54"/>
<stop offset="1" stop-color="#CE6D54" stop-opacity="0"/>
</radialGradient>
<radialGradient id="paint45_radial_784_3997" cx="0" cy="0" r="1" gradientUnits="userSpaceOnUse" gradientTransform="translate(15.7407 11.1704) rotate(90) scale(0.369141 0.426682)">
<stop stop-color="#BD7F44"/>
<stop offset="0.557823" stop-color="#BD7F44" stop-opacity="0.658208"/>
<stop offset="0.795918" stop-color="#BD7F44" stop-opacity="0.243031"/>
<stop offset="1" stop-color="#BD7F44" stop-opacity="0"/>
</radialGradient>
<radialGradient id="paint46_radial_784_3997" cx="0" cy="0" r="1" gradientUnits="userSpaceOnUse" gradientTransform="translate(18.9908 11.148) rotate(90) scale(0.424411)">
<stop offset="0.257845" stop-color="#BD7F44"/>
<stop offset="0.798597" stop-color="#BD7F44" stop-opacity="0.158712"/>
<stop offset="1" stop-color="#BD7F44" stop-opacity="0"/>
</radialGradient>
<radialGradient id="paint47_radial_784_3997" cx="0" cy="0" r="1" gradientUnits="userSpaceOnUse" gradientTransform="translate(18.8273 12.6148) rotate(113.741) scale(5.45417 6.34364)">
<stop stop-color="#BD7F44" stop-opacity="0"/>
<stop offset="0.75207" stop-color="#BD7F44" stop-opacity="0"/>
<stop offset="0.844987" stop-color="#BD7F44" stop-opacity="0.0872566"/>
<stop offset="0.890593" stop-color="#BD7F44" stop-opacity="0.19"/>
<stop offset="0.937808" stop-color="#BD7F44" stop-opacity="0.329826"/>
<stop offset="1" stop-color="#BD7F44" stop-opacity="0.53"/>
</radialGradient>
<radialGradient id="paint48_radial_784_3997" cx="0" cy="0" r="1" gradientUnits="userSpaceOnUse" gradientTransform="translate(16.1641 10.8626) rotate(142.749) scale(0.522785)">
<stop stop-color="#635556"/>
<stop offset="1" stop-color="#452B30"/>
</radialGradient>
<radialGradient id="paint49_radial_784_3997" cx="0" cy="0" r="1" gradientUnits="userSpaceOnUse" gradientTransform="translate(19.3946 10.8701) rotate(142.561) scale(0.303649)">
<stop stop-color="#635556"/>
<stop offset="1" stop-color="#452B30"/>
</radialGradient>
<radialGradient id="paint50_radial_784_3997" cx="0" cy="0" r="1" gradientUnits="userSpaceOnUse" gradientTransform="translate(17.4753 11.9641) rotate(90) scale(3.83998 7.0749)">
<stop offset="0.20438" stop-color="#FFBD96"/>
<stop offset="0.935556" stop-color="#D27067"/>
</radialGradient>
<radialGradient id="paint51_radial_784_3997" cx="0" cy="0" r="1" gradientUnits="userSpaceOnUse" gradientTransform="translate(19.6069 12.0738) rotate(145.311) scale(1.83526 1.40232)">
<stop stop-color="#FFDFAF"/>
<stop offset="0.498044" stop-color="#FFDFAF" stop-opacity="0.683016"/>
<stop offset="0.853431" stop-color="#FFDFAF" stop-opacity="0.14109"/>
<stop offset="1" stop-color="#FFDFAF" stop-opacity="0"/>
</radialGradient>
<radialGradient id="paint52_radial_784_3997" cx="0" cy="0" r="1" gradientUnits="userSpaceOnUse" gradientTransform="translate(17.565 13.8543) rotate(-90) scale(2.43709 3.3756)">
<stop stop-color="#D29162" stop-opacity="0"/>
<stop offset="0.880134" stop-color="#D29162" stop-opacity="0"/>
<stop offset="0.902389" stop-color="#D29162" stop-opacity="0.149417"/>
<stop offset="0.936952" stop-color="#D29162" stop-opacity="0.421283"/>
<stop offset="1" stop-color="#D29162"/>
</radialGradient>
<radialGradient id="paint53_radial_784_3997" cx="0" cy="0" r="1" gradientUnits="userSpaceOnUse" gradientTransform="translate(18.2057 12.9757) rotate(177.274) scale(2.88155 2.48337)">
<stop stop-color="#D29162" stop-opacity="0"/>
<stop offset="0.880134" stop-color="#D29162" stop-opacity="0"/>
<stop offset="0.908806" stop-color="#D29162" stop-opacity="0.149417"/>
<stop offset="0.953533" stop-color="#D29162" stop-opacity="0.421283"/>
<stop offset="1" stop-color="#D29162"/>
</radialGradient>
<radialGradient id="paint54_radial_784_3997" cx="0" cy="0" r="1" gradientUnits="userSpaceOnUse" gradientTransform="translate(15.608 11.7643) rotate(44.1362) scale(0.663576 2.72724)">
<stop stop-color="#D29162"/>
<stop offset="0.273316" stop-color="#D29162" stop-opacity="0.421283"/>
<stop offset="0.84361" stop-color="#D29162" stop-opacity="0"/>
<stop offset="1" stop-color="#D29162" stop-opacity="0"/>
</radialGradient>
<radialGradient id="paint55_radial_784_3997" cx="0" cy="0" r="1" gradientUnits="userSpaceOnUse" gradientTransform="translate(17.1468 12.5559) rotate(127.807) scale(0.623966 0.927087)">
<stop offset="0.392778" stop-color="#D18A74"/>
<stop offset="0.784534" stop-color="#D18A74" stop-opacity="0.297242"/>
<stop offset="0.884968" stop-color="#D18A74" stop-opacity="0.114709"/>
<stop offset="1" stop-color="#D18A74" stop-opacity="0"/>
</radialGradient>
<linearGradient id="paint56_linear_784_3997" x1="2.24697" y1="-0.12722" x2="2.40892" y2="5.70456" gradientUnits="userSpaceOnUse">
<stop stop-color="#E27749"/>
<stop offset="1" stop-color="#DA835D"/>
</linearGradient>
<radialGradient id="paint57_radial_784_3997" cx="0" cy="0" r="1" gradientUnits="userSpaceOnUse" gradientTransform="translate(-0.318041 3.02612) rotate(-4.46155) scale(3.02051 4.77788)">
<stop stop-color="#E68F58"/>
<stop offset="1" stop-color="#E68F58" stop-opacity="0"/>
</radialGradient>
<radialGradient id="paint58_radial_784_3997" cx="0" cy="0" r="1" gradientUnits="userSpaceOnUse" gradientTransform="translate(2.27372 2.22749) rotate(89.6041) scale(3.35071 2.59565)">
<stop stop-color="#B96657" stop-opacity="0"/>
<stop offset="0.856893" stop-color="#B96657" stop-opacity="0"/>
<stop offset="0.913968" stop-color="#B96657" stop-opacity="0.232956"/>
<stop offset="1" stop-color="#B96657"/>
</radialGradient>
<radialGradient id="paint59_radial_784_3997" cx="0" cy="0" r="1" gradientUnits="userSpaceOnUse" gradientTransform="translate(4.62684 3.19042) rotate(-175.319) scale(0.542713 3.81333)">
<stop stop-color="#B96657" stop-opacity="0.78"/>
<stop offset="0.55624" stop-color="#B96657" stop-opacity="0.232956"/>
<stop offset="0.839712" stop-color="#B96657" stop-opacity="0"/>
<stop offset="1" stop-color="#B96657" stop-opacity="0"/>
</radialGradient>
<radialGradient id="paint60_radial_784_3997" cx="0" cy="0" r="1" gradientUnits="userSpaceOnUse" gradientTransform="translate(2.29191 3.62987) rotate(-88.5477) scale(3.67956 3.03023)">
<stop offset="0.0912664" stop-color="#CE683B" stop-opacity="0"/>
<stop offset="0.811394" stop-color="#CE683B" stop-opacity="0"/>
<stop offset="0.878616" stop-color="#CE683B" stop-opacity="0.232747"/>
<stop offset="0.989058" stop-color="#CE683B"/>
</radialGradient>
<radialGradient id="paint61_radial_784_3997" cx="0" cy="0" r="1" gradientUnits="userSpaceOnUse" gradientTransform="translate(2.58185 2.77835) rotate(-176.576) scale(2.63577 6.01919)">
<stop offset="0.56381" stop-color="#DC692A" stop-opacity="0"/>
<stop offset="0.686483" stop-color="#DC692A" stop-opacity="0.149532"/>
<stop offset="0.856589" stop-color="#DC692A" stop-opacity="0.344694"/>
<stop offset="1" stop-color="#DC692A" stop-opacity="0.8"/>
</radialGradient>
<radialGradient id="paint62_radial_784_3997" cx="0" cy="0" r="1" gradientUnits="userSpaceOnUse" gradientTransform="translate(0.514369 2.8325) rotate(0.201588) scale(0.42283 1.77664)">
<stop stop-color="#FD9C79" stop-opacity="0.77"/>
<stop offset="0.285161" stop-color="#FD9C79" stop-opacity="0.61"/>
<stop offset="0.624215" stop-color="#FD9C79" stop-opacity="0.282761"/>
<stop offset="1" stop-color="#FD9C79" stop-opacity="0"/>
</radialGradient>
<radialGradient id="paint63_radial_784_3997" cx="0" cy="0" r="1" gradientUnits="userSpaceOnUse" gradientTransform="translate(0.514369 2.8325) rotate(0.201588) scale(0.42283 1.77664)">
<stop stop-color="white" stop-opacity="0.77"/>
<stop offset="0.285161" stop-color="white" stop-opacity="0.61"/>
<stop offset="0.624215" stop-color="white" stop-opacity="0.282761"/>
<stop offset="1" stop-color="white" stop-opacity="0"/>
</radialGradient>
<radialGradient id="paint64_radial_784_3997" cx="0" cy="0" r="1" gradientUnits="userSpaceOnUse" gradientTransform="translate(0.697526 1.64223) rotate(24.3428) scale(0.385838 0.773385)">
<stop stop-color="#FD9C79" stop-opacity="0.66"/>
<stop offset="0.302083" stop-color="#FD9C79" stop-opacity="0.52"/>
<stop offset="0.505208" stop-color="#FD9C79" stop-opacity="0.347335"/>
<stop offset="0.776042" stop-color="#FD9C79" stop-opacity="0.142048"/>
<stop offset="1" stop-color="#FD9C79" stop-opacity="0"/>
</radialGradient>
<radialGradient id="paint65_radial_784_3997" cx="0" cy="0" r="1" gradientUnits="userSpaceOnUse" gradientTransform="translate(0.659331 3.91934) rotate(-16.4324) scale(0.462969 1.0491)">
<stop stop-color="#FD9C79" stop-opacity="0.78"/>
<stop offset="0.280889" stop-color="#FD9C79" stop-opacity="0.621032"/>
<stop offset="0.533798" stop-color="#FD9C79" stop-opacity="0.347335"/>
<stop offset="0.708095" stop-color="#FD9C79" stop-opacity="0.185248"/>
<stop offset="1" stop-color="#FD9C79" stop-opacity="0"/>
</radialGradient>
<radialGradient id="paint66_radial_784_3997" cx="0" cy="0" r="1" gradientUnits="userSpaceOnUse" gradientTransform="translate(2.28599 2.71224) rotate(177.045) scale(2.24322 2.63557)">
<stop stop-color="#FA9E75" stop-opacity="0"/>
<stop offset="0.71528" stop-color="#FA9E75" stop-opacity="0"/>
<stop offset="0.811518" stop-color="#FA9E75" stop-opacity="0.24"/>
<stop offset="1" stop-color="#FA9E75" stop-opacity="0"/>
</radialGradient>
<linearGradient id="paint67_linear_784_3997" x1="23.7539" y1="18.8276" x2="23.7539" y2="24.4058" gradientUnits="userSpaceOnUse">
<stop stop-color="#E17341"/>
<stop offset="0.434707" stop-color="#D97D54"/>
<stop offset="1" stop-color="#D48461"/>
</linearGradient>
<radialGradient id="paint68_radial_784_3997" cx="0" cy="0" r="1" gradientUnits="userSpaceOnUse" gradientTransform="translate(23.3757 21.4035) rotate(43.7053) scale(3.03179 3.24508)">
<stop stop-color="#AE5B53" stop-opacity="0"/>
<stop offset="0.7937" stop-color="#AE5B53" stop-opacity="0"/>
<stop offset="0.864749" stop-color="#AE5B53" stop-opacity="0.171438"/>
<stop offset="1" stop-color="#AE5B53"/>
</radialGradient>
<radialGradient id="paint69_radial_784_3997" cx="0" cy="0" r="1" gradientUnits="userSpaceOnUse" gradientTransform="translate(23.7897 21.0441) rotate(36.9685) scale(1.49794)">
<stop stop-color="#D0622D"/>
<stop offset="0.76239" stop-color="#D0622D" stop-opacity="0.841726"/>
<stop offset="1" stop-color="#D0622D" stop-opacity="0"/>
</radialGradient>
<radialGradient id="paint70_radial_784_3997" cx="0" cy="0" r="1" gradientUnits="userSpaceOnUse" gradientTransform="translate(21.1142 21.5852) rotate(3.65282) scale(0.820752 5.24548)">
<stop stop-color="#D0622D"/>
<stop offset="0.423609" stop-color="#D0622D" stop-opacity="0.841726"/>
<stop offset="0.790678" stop-color="#D0622D" stop-opacity="0.259177"/>
<stop offset="0.936134" stop-color="#D0622D" stop-opacity="0.0821452"/>
<stop offset="1" stop-color="#D0622D" stop-opacity="0"/>
</radialGradient>
<radialGradient id="paint71_radial_784_3997" cx="0" cy="0" r="1" gradientUnits="userSpaceOnUse" gradientTransform="translate(20.9317 22.9042) rotate(-19.1676) scale(1.03949 6.64345)">
<stop stop-color="#D0622D"/>
<stop offset="0.416709" stop-color="#D0622D" stop-opacity="0.841726"/>
<stop offset="0.758276" stop-color="#D0622D" stop-opacity="0.259177"/>
<stop offset="1" stop-color="#D0622D" stop-opacity="0"/>
</radialGradient>
<radialGradient id="paint72_radial_784_3997" cx="0" cy="0" r="1" gradientUnits="userSpaceOnUse" gradientTransform="translate(26.209 22.1631) rotate(-171.887) scale(0.627974 4.01342)">
<stop stop-color="#AE5B53" stop-opacity="0.841726"/>
<stop offset="0.635863" stop-color="#AE5B53" stop-opacity="0.259177"/>
<stop offset="0.785225" stop-color="#AE5B53" stop-opacity="0.114973"/>
<stop offset="1" stop-color="#AE5B53" stop-opacity="0"/>
</radialGradient>
<radialGradient id="paint73_radial_784_3997" cx="0" cy="0" r="1" gradientUnits="userSpaceOnUse" gradientTransform="translate(26.4434 21.9878) rotate(174.222) scale(0.860421 5.499)">
<stop stop-color="#AE5B53" stop-opacity="0.841726"/>
<stop offset="0.635863" stop-color="#AE5B53" stop-opacity="0.259177"/>
<stop offset="0.785225" stop-color="#AE5B53" stop-opacity="0.114973"/>
<stop offset="1" stop-color="#AE5B53" stop-opacity="0"/>
</radialGradient>
<radialGradient id="paint74_radial_784_3997" cx="0" cy="0" r="1" gradientUnits="userSpaceOnUse" gradientTransform="translate(24.5604 21.7983) rotate(-133.096) scale(3.3238 3.58919)">
<stop stop-color="#D0622D" stop-opacity="0"/>
<stop offset="0.817346" stop-color="#D0622D" stop-opacity="0"/>
<stop offset="0.85206" stop-color="#D0622D" stop-opacity="0.151975"/>
<stop offset="0.877979" stop-color="#D0622D" stop-opacity="0.313051"/>
<stop offset="0.959095" stop-color="#D0622D" stop-opacity="0.841726"/>
<stop offset="1" stop-color="#D0622D"/>
</radialGradient>
<radialGradient id="paint75_radial_784_3997" cx="0" cy="0" r="1" gradientUnits="userSpaceOnUse" gradientTransform="translate(24.9287 19.4229) rotate(129.909) scale(0.783788 1.79015)">
<stop stop-color="#FD9C79"/>
<stop offset="0.747227" stop-color="#FD9C79" stop-opacity="0.184142"/>
<stop offset="1" stop-color="#FD9C79" stop-opacity="0"/>
</radialGradient>
<radialGradient id="paint76_radial_784_3997" cx="0" cy="0" r="1" gradientUnits="userSpaceOnUse" gradientTransform="translate(22.8172 22.7528) rotate(60.4615) scale(1.8999 1.56462)">
<stop stop-color="#F7B678" stop-opacity="0.46"/>
<stop offset="0.65653" stop-color="#F7B678" stop-opacity="0.19234"/>
<stop offset="1" stop-color="#F7B678" stop-opacity="0"/>
</radialGradient>
<linearGradient id="paint77_linear_784_3997" x1="1.18511" y1="0.561374" x2="1.2116" y2="3.88379" gradientUnits="userSpaceOnUse">
<stop stop-color="#FFBE7B"/>
<stop offset="1" stop-color="#FFDDA2"/>
</linearGradient>
<linearGradient id="paint78_linear_784_3997" x1="23.0929" y1="21.3041" x2="23.115" y2="24.5346" gradientUnits="userSpaceOnUse">
<stop stop-color="#F7B678"/>
<stop offset="1" stop-color="#FFDDA2"/>
</linearGradient>
<linearGradient id="paint79_linear_784_3997" x1="17.4759" y1="11.8767" x2="17.4759" y2="12.9472" gradientUnits="userSpaceOnUse">
<stop stop-color="#49393F"/>
<stop offset="1" stop-color="#45323F"/>
</linearGradient>
<radialGradient id="paint80_radial_784_3997" cx="0" cy="0" r="1" gradientUnits="userSpaceOnUse" gradientTransform="translate(18.2526 12.0987) rotate(178.951) scale(0.987342 0.443301)">
<stop stop-color="#635759"/>
<stop offset="0.792454" stop-color="#635759" stop-opacity="0.220145"/>
<stop offset="1" stop-color="#635759" stop-opacity="0"/>
</radialGradient>
<radialGradient id="paint81_radial_784_3997" cx="0" cy="0" r="1" gradientUnits="userSpaceOnUse" gradientTransform="translate(18.0008 12.1701) rotate(58.6713) scale(0.207071 0.531158)">
<stop stop-color="white" stop-opacity="0.22"/>
<stop offset="0.203125" stop-color="white" stop-opacity="0.18268"/>
<stop offset="0.457471" stop-color="white" stop-opacity="0.098592"/>
<stop offset="0.732874" stop-color="white" stop-opacity="0.0354367"/>
<stop offset="1" stop-color="white" stop-opacity="0"/>
</radialGradient>
</defs>
</svg>
