<svg width="60" height="69" viewBox="0 0 60 69" fill="none" xmlns="http://www.w3.org/2000/svg">
<g opacity="0.2" clip-path="url(#clip0_784_5690)">
<g clip-path="url(#clip1_784_5690)">
<path d="M43.1703 19.0023C46.5235 21.8359 45.7784 26.6407 43.2945 30.2136C40.6864 33.7864 35.8428 35.0184 31.7443 33.0472C30.5024 32.5544 29.633 32.5544 28.2669 33.0472C24.1684 34.8952 19.3248 33.6632 16.7167 29.9672C14.1086 26.5175 13.6118 21.7127 17.0893 18.6326C20.1942 16.0454 21.9778 12.8422 21.9778 9.02296V4.45299C21.9778 3.71089 22.5794 3.1093 23.3215 3.1093C24.0636 3.1093 24.6652 3.71089 24.6652 4.45299V8.53015C24.6652 13.335 22.9265 17.2774 19.0764 20.6039C16.5925 22.6983 17.4619 26.1479 19.3248 28.4887C21.1877 31.076 24.6652 32.1201 27.6459 30.6416C29.3846 29.656 31.1233 29.656 32.8621 30.6416C35.4702 31.9969 38.575 31.1992 40.438 29.2279C42.5493 27.3799 43.2945 23.2747 40.9453 20.685C37.2195 17.4817 35.7186 13.5814 35.7186 8.89976V4.59865C35.7186 3.84415 36.3302 3.2325 37.0847 3.2325C37.8392 3.2325 38.4509 3.84415 38.4509 4.59865V8.77655C38.4509 12.8422 39.9412 16.2918 43.1703 19.0023ZM31.6201 37.9752C35.7186 36.004 40.5622 37.236 43.1703 41.1785C45.6542 44.6281 46.2751 49.4329 42.9219 52.1434C41.5175 53.3222 40.489 54.7806 39.7546 56.3565C39.5514 56.7926 39.1139 57.0714 38.6328 57.0714H37.7406C37.2672 57.0714 36.8834 56.6877 36.8834 56.2143C36.8834 56.101 36.9059 55.9888 36.9495 55.8842C37.039 55.6697 37.0986 55.5317 37.1282 55.47C38.0289 53.5981 39.3411 51.8341 41.1831 50.2953C43.667 48.2009 42.7977 44.7513 41.059 42.4105C39.196 39.7 35.7186 39.084 32.7379 40.5625C30.9991 41.5481 29.2604 41.4249 27.5217 40.5625C24.9136 39.2072 21.8087 39.7 19.9458 41.6713C17.8345 43.7657 16.2199 46.4761 17.8345 48.9401C18.0829 49.4329 18.4554 49.9257 18.9522 50.2953C20.7716 51.7994 22.0974 53.6298 22.9966 55.5874C23.0193 55.6368 23.0433 55.6906 23.0686 55.7485C23.2578 56.1825 23.0593 56.6876 22.6254 56.8768C22.5173 56.9239 22.4007 56.9482 22.2828 56.9482H21.1247C20.789 56.9482 20.4843 56.7523 20.3449 56.447C20.2611 56.2633 20.1892 56.1139 20.1293 55.9989C19.3711 54.5427 18.275 53.2395 16.8409 52.0202C13.4876 49.3097 14.2328 44.5049 16.5925 41.0553C19.2006 37.4824 24.0442 36.004 28.0185 37.9752C29.2604 38.468 30.254 38.7144 31.6201 37.9752ZM28.9802 16.7847V4.36572C28.9802 3.65089 29.5596 3.07141 30.2745 3.07141C30.9893 3.07141 31.5688 3.65089 31.5688 4.36572V16.7847C34.4434 17.5863 35.6494 19.4027 35.6494 21.8961C35.6494 24.8881 33.2897 27.2567 30.309 27.2567C27.3283 27.2567 24.9686 24.8881 24.9686 21.8961C24.9686 19.5274 26.7447 17.4081 28.9802 16.7847ZM33.2897 21.9591C33.2897 20.3575 32.0477 19.1255 30.4332 19.1255C28.8187 19.1255 27.5767 20.3575 27.5767 21.9591C27.5767 23.5607 28.8187 24.7927 30.4332 24.7927C32.0477 24.7927 33.2897 23.5607 33.2897 21.9591Z" fill="black"/>
</g>
</g>
<defs>
<clipPath id="clip0_784_5690">
<rect width="60" height="68" fill="white" transform="translate(0 0.5)"/>
</clipPath>
<clipPath id="clip1_784_5690">
<rect width="60" height="60" fill="white" transform="translate(0 0.5)"/>
</clipPath>
</defs>
</svg>
