<svg width="60" height="69" viewBox="0 0 60 69" fill="none" xmlns="http://www.w3.org/2000/svg">
<g opacity="0.2">
<g clip-path="url(#clip0_784_5679)">
<path d="M26.2308 20.7932C24.6076 20.7932 23.1083 21.4685 22.0378 22.6832C21.0415 23.8138 20.5 25.308 20.5 26.8858C20.5 28.5952 21.1572 30.1609 22.4867 31.7421C23.4037 32.8327 24.3124 33.6624 26.7736 35.7596C27.7135 36.5606 28.1474 36.9329 28.711 37.4261L28.7308 37.4433C29.0861 37.7544 29.5379 37.9213 30.0016 37.9213C30.4652 37.9213 30.9169 37.7544 31.2717 37.444L31.293 37.4253C31.8554 36.9333 32.2858 36.5639 33.2297 35.7595C35.6906 33.6625 36.5994 32.8327 37.5165 31.7421C38.846 30.1609 39.5032 28.5952 39.5032 26.8858C39.5032 25.308 38.9617 23.8138 37.9654 22.6832C36.8949 21.4686 35.3956 20.7932 33.7724 20.7932C32.2374 20.7932 30.982 21.3809 30.0016 22.3401C29.0212 21.3809 27.7657 20.7932 26.2308 20.7932ZM36.5889 26.8858C36.5889 27.8539 36.2008 28.7785 35.2859 29.8666C34.5145 30.784 33.6625 31.5618 31.3395 33.5413C30.7463 34.0469 30.3529 34.3832 30.0016 34.6864C29.6491 34.3821 29.2551 34.0453 28.6638 33.5414C26.3406 31.5617 25.4886 30.7839 24.7173 29.8666C23.8024 28.7785 23.4143 27.8539 23.4143 26.8858C23.4143 26.004 23.7066 25.1974 24.2242 24.6101C24.7408 24.0239 25.4433 23.7075 26.2308 23.7075C27.1462 23.7075 27.852 24.164 28.4121 24.9546C28.5224 25.1102 28.6243 25.2765 28.7174 25.4502L30.0016 27.8448L31.2857 25.4502C31.3788 25.2767 31.4808 25.1103 31.5911 24.9545C32.1512 24.164 32.857 23.7075 33.7724 23.7075C34.5599 23.7075 35.2624 24.0239 35.779 24.61C36.2966 25.1975 36.5889 26.004 36.5889 26.8858Z" fill="#3A3A3A"/>
<path d="M23.1445 8.78577H36.8588C43.4862 8.78577 48.8588 14.1583 48.8588 20.7858V48.2143C48.8588 54.8418 43.4862 60.2143 36.8588 60.2143H23.1445C16.5171 60.2143 11.1445 54.8418 11.1445 48.2143V20.7858C11.1445 14.1583 16.5171 8.78577 23.1445 8.78577ZM23.1445 11.7001C18.1266 11.7001 14.0588 15.7679 14.0588 20.7858V48.2143C14.0588 53.2322 18.1266 57.3 23.1445 57.3H36.8588C41.8767 57.3 45.9445 53.2322 45.9445 48.2143V20.7858C45.9445 15.7679 41.8767 11.7001 36.8588 11.7001H23.1445Z" fill="#3A3A3A"/>
<path d="M13.125 45.2064C14.132 44.9321 15.1918 44.7858 16.2857 44.7858H43.7143C44.8082 44.7858 45.868 44.9321 46.875 45.2064V48.2649C45.8906 47.8996 44.8258 47.7001 43.7143 47.7001H16.2857C15.1742 47.7001 14.1094 47.8996 13.125 48.2649V45.2064Z" fill="#3A3A3A"/>
</g>
</g>
<defs>
<clipPath id="clip0_784_5679">
<rect width="60" height="60" fill="white" transform="translate(0 4.5)"/>
</clipPath>
</defs>
</svg>
