<svg width="229" height="234" viewBox="0 0 229 234" fill="none" xmlns="http://www.w3.org/2000/svg">
<rect y="0.5" width="229" height="233" rx="114.5" fill="white"/>
<path d="M114.94 185.086C152.609 185.086 183.145 154.603 183.145 117C183.145 79.3965 152.609 48.9131 114.94 48.9131C77.272 48.9131 46.7358 79.3965 46.7358 117C46.7358 154.603 77.272 185.086 114.94 185.086Z" fill="url(#paint0_radial_4089_1390)"/>
<path d="M114.94 185.086C152.609 185.086 183.145 154.603 183.145 117C183.145 79.3965 152.609 48.9131 114.94 48.9131C77.272 48.9131 46.7358 79.3965 46.7358 117C46.7358 154.603 77.272 185.086 114.94 185.086Z" fill="url(#paint1_radial_4089_1390)"/>
<path d="M114.94 185.086C152.609 185.086 183.145 154.603 183.145 117C183.145 79.3965 152.609 48.9131 114.94 48.9131C77.272 48.9131 46.7358 79.3965 46.7358 117C46.7358 154.603 77.272 185.086 114.94 185.086Z" fill="url(#paint2_radial_4089_1390)"/>
<path fill-rule="evenodd" clip-rule="evenodd" d="M126.775 58.5505L133.506 52.2285C156.792 58.9729 174.941 77.7744 180.725 101.416L169.781 116.373C169.206 117.24 168.247 117.769 167.193 117.769H165.563C164.749 117.769 164.078 117.095 164.078 116.276V113.675C164.078 107.895 160.718 98.591 154.59 98.591H147.815C144.105 98.591 144.656 102.125 146.407 104.214C148.283 106.453 147.633 109.015 145.189 110.267L140.279 112.725C137.196 114.131 135.038 112.001 135.038 110.267V106.173C135.038 104.873 133.983 103.765 132.641 103.765L132.613 103.765C131.224 103.765 125.741 103.763 125.741 110.508V112.117C125.741 116.942 133.39 120.856 138.823 121.988C139.59 122.084 140.213 122.759 140.213 123.529V125.263C140.213 126.323 139.973 127.383 139.494 128.346L131.146 140.616C130.598 141.422 129.685 141.905 128.709 141.905C127.127 141.905 125.837 143.79 125.789 145.38V154.007C125.789 155.285 125.285 156.511 124.387 157.421L117.355 164.545C116.396 165.557 115.102 166.086 113.712 166.086H111.364C108.489 166.086 106.189 163.726 106.189 160.885V150.726C106.189 148.029 104.799 147.354 103.793 147.354H102.115C100.39 147.354 98.9527 145.91 98.9527 144.176V135.891C98.9527 131.412 95.3586 127.799 90.9019 127.799H77.1963C72.9313 127.799 67.6121 119.66 67.6121 115.373V111.953C67.6121 109.786 68.4267 107.715 69.8644 106.173L74.992 100.731C76.1421 99.5265 77.7714 98.8522 79.4487 98.9003H84.5283C86.0139 98.9003 87.4036 98.3224 88.4579 97.2627L89.9914 95.7214C91.0456 94.6618 92.4833 94.0838 93.9689 94.0838H98.9527C100.055 94.0838 101.301 94.6618 101.253 95.9623V97.3109C101.109 100.104 106.524 98.8522 106.524 98.8522C106.524 98.8522 111.125 94.6618 113.233 94.1802C115.39 93.6503 119.703 94.8545 122.243 96.3958C123.632 97.2146 125.357 96.2513 125.357 94.6618C125.357 91.6274 122.865 89.171 119.846 89.171C118.36 89.171 115.725 88.2944 115.725 85.6158V83.343C115.725 82.5723 115.102 81.9462 114.335 81.9462H112.562C111.556 81.9462 110.598 82.4279 110.023 83.2948L107.051 87.726C106.476 88.6412 105.47 89.171 104.368 89.171H103.697C102.163 89.171 100.726 88.593 99.6236 87.4852L97.515 85.8476C95.7899 84.4026 93.5855 84.3545 93.1542 84.3545H88.5058C87.5474 84.3545 86.8286 85.1251 86.8286 86.0402C86.7974 86.2229 86.767 86.4199 86.7351 86.6266C86.4412 88.53 86.0199 91.258 83.7137 91.258H80.9342C79.209 91.258 77.8193 89.8612 77.8193 88.1755V82.7168C77.8193 80.9347 79.4014 79.7076 80.8477 79.1567C82.0328 78.7053 82.6594 78.0765 82.6594 77.1613V75.6682C82.6594 71.8632 85.3909 71.976 87.4036 72.4577C88.2595 72.6821 89.1515 73.0662 90.0543 73.455L90.0544 73.4551C91.477 74.0677 92.9265 74.692 94.3043 74.7214H101.876C104.703 74.7214 106.572 72.7948 106.572 70.0012C106.572 69.3037 106.606 68.5765 106.639 67.8593L106.639 67.859C106.788 64.664 106.805 61.7741 103.95 62.0781L103.908 62.0826C102.97 62.1812 101.648 62.3205 101.648 67.1314C101.648 68.3355 100.689 69.5807 99.4913 69.677C98.3412 69.7252 96.8556 68.9474 96.8556 67.4543C96.8317 65.9592 96.8317 65.1614 96.8317 64.4069C96.8317 63.6526 96.8317 62.9416 96.8077 61.6205C96.8556 60.7535 97.3348 59.9347 98.1495 59.5494L103.95 56.3219C105.054 55.695 106.427 55.262 107.29 55.262H113.424C114.861 55.262 116.348 55.937 117.355 56.9485L119.175 58.3535C120.421 59.3149 121.951 59.8364 123.525 59.8364C124.733 59.8364 125.895 59.3765 126.775 58.5505ZM140.705 142.115C140.433 142.115 140.213 142.335 140.213 142.607V150.931C140.213 151.203 140.433 151.423 140.705 151.423H144.516C144.788 151.423 145.008 151.203 145.008 150.931V142.607C145.008 142.335 144.788 142.115 144.516 142.115H140.705Z" fill="url(#paint3_linear_4089_1390)"/>
<path fill-rule="evenodd" clip-rule="evenodd" d="M127.25 57.9236L133.982 51.6016C157.267 58.346 175.417 77.1474 181.201 100.789L170.256 115.746C169.681 116.613 168.723 117.142 167.669 117.142H166.039C165.225 117.142 164.554 116.468 164.554 115.649V113.048C164.554 107.269 161.194 97.9641 155.066 97.9641H148.291C144.581 97.9641 145.132 101.498 146.883 103.587C148.759 105.826 148.109 108.388 145.665 109.64L140.755 112.098C137.672 113.504 135.513 111.374 135.513 109.64V105.546C135.513 104.246 134.459 103.138 133.117 103.138L133.089 103.138C131.7 103.138 126.216 103.136 126.216 109.881V111.49C126.216 116.316 133.866 120.229 139.299 121.361C140.066 121.457 140.689 122.132 140.689 122.902V124.636C140.689 125.696 140.449 126.756 139.97 127.719L131.622 139.989C131.073 140.795 130.161 141.278 129.185 141.278C127.603 141.278 126.312 143.163 126.264 144.753V153.381C126.264 154.658 125.761 155.884 124.863 156.794L117.83 163.918C116.872 164.93 115.578 165.459 114.188 165.459H111.84C108.965 165.459 106.665 163.099 106.665 160.258V150.099C106.665 147.402 105.275 146.728 104.268 146.728H102.591C100.866 146.728 99.4284 145.283 99.4284 143.549V135.264C99.4284 130.785 95.8343 127.172 91.3776 127.172H77.6721C73.4071 127.172 68.0878 119.033 68.0878 114.746V111.326C68.0878 109.159 68.9025 107.088 70.3401 105.546L75.4677 100.104C76.6178 98.8995 78.2471 98.2252 79.9244 98.2734H85.0041C86.4896 98.2734 87.8794 97.6954 88.9336 96.6358L90.4671 95.0945C91.5214 94.0349 92.959 93.4569 94.4446 93.4569H99.4284C100.531 93.4569 101.777 94.0349 101.729 95.3353V96.6839C101.585 99.4775 107 98.2252 107 98.2252C107 98.2252 111.6 94.0349 113.709 93.5532C115.865 93.0234 120.178 94.2275 122.718 95.7688C124.108 96.5876 125.833 95.6243 125.833 94.0349C125.833 91.0004 123.341 88.544 120.322 88.544C118.836 88.544 116.201 87.6675 116.201 84.9889V82.716C116.201 81.9454 115.578 81.3192 114.811 81.3192H113.038C112.032 81.3192 111.073 81.8009 110.498 82.6679L107.527 87.0991C106.952 88.0142 105.946 88.544 104.844 88.544H104.173C102.639 88.544 101.202 87.966 100.099 86.8582L97.9908 85.2206C96.2656 83.7757 94.0612 83.7275 93.6299 83.7275H88.9815C88.0231 83.7275 87.3043 84.4981 87.3043 85.4133C87.2731 85.596 87.2427 85.7929 87.2108 85.9996C86.9169 87.903 86.4956 90.6311 84.1894 90.6311H81.41C79.6848 90.6311 78.2951 89.2343 78.2951 87.5485V82.0899C78.2951 80.3078 79.8771 79.0807 81.3234 78.5298C82.5085 78.0783 83.1351 77.4495 83.1351 76.5344V75.0413C83.1351 71.2362 85.8667 71.3491 87.8794 71.8307C88.7352 72.0551 89.6273 72.4393 90.5301 72.8281L90.5302 72.8281C91.9527 73.4408 93.4022 74.065 94.78 74.0945H102.352C105.179 74.0945 107.048 72.1679 107.048 69.3743C107.048 68.6768 107.082 67.9495 107.115 67.2323L107.115 67.232C107.264 64.0371 107.281 61.1472 104.426 61.4511L104.383 61.4556C103.446 61.5543 102.124 61.6935 102.124 66.5044C102.124 67.7085 101.165 68.9537 99.967 69.0501C98.8169 69.0982 97.3314 68.3205 97.3314 66.8274C97.3074 65.3323 97.3074 64.5344 97.3074 63.78C97.3074 63.0256 97.3074 62.3147 97.2835 60.9935C97.3314 60.1266 97.8106 59.3078 98.6252 58.9224L104.426 55.6949C105.53 55.068 106.903 54.635 107.765 54.635H113.899C115.337 54.635 116.824 55.3101 117.83 56.3215L119.651 57.7266C120.897 58.6879 122.427 59.2094 124.001 59.2094C125.209 59.2094 126.371 58.7495 127.25 57.9236ZM141.009 141.469C140.737 141.469 140.517 141.689 140.517 141.961V150.285C140.517 150.557 140.737 150.777 141.009 150.777H144.821C145.092 150.777 145.313 150.557 145.313 150.285V141.961C145.313 141.689 145.092 141.469 144.821 141.469H141.009Z" fill="url(#paint4_radial_4089_1390)"/>
<path fill-rule="evenodd" clip-rule="evenodd" d="M134.111 51.6389C134.068 51.6264 134.025 51.614 133.982 51.6016L127.25 57.9236C127.21 57.9618 127.168 57.9992 127.126 58.0359C127.429 57.8582 127.714 57.6461 127.974 57.4021L134.111 51.6389ZM98.6639 58.901L98.6252 58.9224C97.8106 59.3078 97.3314 60.1266 97.2835 60.9935C97.3074 62.3147 97.3074 63.0256 97.3074 63.78C97.3074 64.5344 97.3074 65.3323 97.3314 66.8274C97.3314 68.3205 98.8169 69.0982 99.967 69.0501C100.496 69.0075 100.978 68.7412 101.352 68.3532C101.144 68.4487 100.922 68.51 100.691 68.5286C99.5404 68.5768 98.0549 67.799 98.0549 66.3059C98.0309 64.8108 98.0309 64.0129 98.0309 63.2585C98.0309 62.5041 98.0309 61.7932 98.0069 60.4721C98.0393 59.8869 98.2681 59.3237 98.6639 58.901ZM103.705 61.5833C103.938 61.5025 104.171 61.478 104.383 61.4556L104.426 61.4511C107.281 61.1472 107.264 64.0371 107.115 67.232L107.115 67.2323C107.082 67.9495 107.048 68.6768 107.048 69.3743C107.048 70.8688 106.513 72.1152 105.583 72.9512C106.954 72.1686 107.771 70.7003 107.771 68.8528C107.771 68.1554 107.805 67.4282 107.839 66.7111L107.839 66.7105C107.987 63.5156 108.004 60.6257 105.15 60.9296L105.107 60.9342C104.666 60.9806 104.139 61.036 103.705 61.5833ZM84.6599 71.869C83.7733 72.2783 83.1351 73.2021 83.1351 75.0413V76.5344C83.1351 77.0096 82.9661 77.4076 82.6377 77.7437C83.4392 77.3186 83.8586 76.7616 83.8586 76.0129V74.5198C83.8586 73.2351 84.17 72.397 84.6599 71.869ZM80.3125 79.0232C79.226 79.6824 78.2951 80.7228 78.2951 82.0899V87.5485C78.2951 89.2343 79.6848 90.6311 81.41 90.6311H84.1894C84.9223 90.6311 85.4648 90.3556 85.8734 89.9186C85.5958 90.0412 85.278 90.1096 84.9129 90.1096H82.1335C80.4083 90.1096 79.0186 88.7128 79.0186 87.027V81.5684C79.0186 80.5195 79.5666 79.6629 80.3125 79.0232ZM88.3977 83.8295C88.5778 83.7636 88.7741 83.7275 88.9815 83.7275H93.6299C94.0612 83.7275 96.2656 83.7757 97.9908 85.2206L100.099 86.8582C101.202 87.966 102.639 88.544 104.173 88.544H104.844C105.696 88.544 106.49 88.2275 107.073 87.661C106.62 87.8965 106.105 88.0225 105.567 88.0225H104.896C103.363 88.0225 101.925 87.4446 100.823 86.3368L98.7143 84.6991C96.9891 83.2542 94.7847 83.206 94.3534 83.206H89.705C89.1643 83.206 88.6998 83.4513 88.3977 83.8295ZM111.624 81.6591C112.057 81.4364 112.542 81.3192 113.038 81.3192H114.811C115.578 81.3192 116.201 81.9454 116.201 82.716V84.9889C116.201 87.6675 118.836 88.544 120.322 88.544C123.341 88.544 125.833 91.0004 125.833 94.0349C125.833 94.5667 125.64 95.0284 125.331 95.3767C126.033 95.0743 126.557 94.3888 126.557 93.5134C126.557 90.479 124.065 88.0225 121.046 88.0225C119.559 88.0225 116.924 87.146 116.924 84.4674V82.1946C116.924 81.4239 116.301 80.7978 115.535 80.7978H113.762C112.963 80.7978 112.195 81.1009 111.624 81.6591ZM111.037 94.9755C109.676 95.9229 108.287 97.0953 107.546 97.7412C107.66 97.7185 107.724 97.7037 107.724 97.7037C107.724 97.7037 109.304 96.2641 111.037 94.9755ZM91.5214 94.2668C91.141 94.4967 90.7865 94.7735 90.4671 95.0945L88.9336 96.6358C88.82 96.75 88.7024 96.8586 88.5813 96.9615C88.9676 96.7278 89.3287 96.4444 89.6571 96.1143L91.1906 94.573C91.2971 94.466 91.4075 94.3639 91.5214 94.2668ZM76.6537 99.1478C76.2213 99.4124 75.8218 99.7329 75.4677 100.104L70.3401 105.546C68.9025 107.088 68.0878 109.159 68.0878 111.326V114.746C68.0878 119.033 73.4071 127.172 77.6721 127.172H91.3776C95.8343 127.172 99.4284 130.785 99.4284 135.264V143.549C99.4284 145.283 100.866 146.728 102.591 146.728H104.268C105.275 146.728 106.665 147.402 106.665 150.099V160.258C106.665 163.099 108.965 165.459 111.84 165.459H114.188C115.416 165.459 116.569 165.046 117.482 164.252C116.714 164.705 115.834 164.938 114.912 164.938H112.564C109.688 164.938 107.388 162.578 107.388 159.736V149.578C107.388 146.88 105.998 146.206 104.992 146.206H103.315C101.59 146.206 100.152 144.761 100.152 143.027V134.743C100.152 130.263 96.5578 126.651 92.1011 126.651H78.3956C74.1306 126.651 68.8113 118.511 68.8113 114.224V110.805C68.8113 108.637 69.626 106.566 71.0636 105.025L76.1912 99.5822C76.3379 99.4286 76.4923 99.2837 76.6537 99.1478ZM128.216 141.517C128.519 141.365 128.845 141.278 129.185 141.278C129.965 141.278 130.706 140.969 131.251 140.433C130.841 140.643 130.382 140.757 129.908 140.757C129.278 140.757 128.694 141.056 128.216 141.517ZM128.935 104.093C130.528 103.137 132.365 103.138 133.089 103.138L133.117 103.138C134.459 103.138 135.513 104.246 135.513 105.546V109.64C135.513 111.374 137.672 113.504 140.755 112.098L145.665 109.64C146.052 109.442 146.394 109.211 146.688 108.954C146.591 109.011 146.491 109.066 146.388 109.119L141.478 111.577C138.396 112.982 136.237 110.853 136.237 109.119V105.025C136.237 103.724 135.182 102.617 133.841 102.617L133.813 102.617C132.975 102.616 130.65 102.616 128.935 104.093ZM146.76 98.243C147.191 97.7525 147.916 97.4426 149.014 97.4426H155.789C161.917 97.4426 165.277 106.747 165.277 112.527V115.128C165.277 115.947 165.948 116.621 166.763 116.621H168.392C168.9 116.621 169.386 116.498 169.818 116.273C169.249 116.823 168.488 117.142 167.669 117.142H166.039C165.225 117.142 164.554 116.468 164.554 115.649V113.048C164.554 107.269 161.194 97.9641 155.066 97.9641H148.291C147.664 97.9641 147.158 98.065 146.76 98.243Z" fill="#34977B"/>
<path fill-rule="evenodd" clip-rule="evenodd" d="M123.563 59.196C122.144 59.1087 120.781 58.5985 119.651 57.7266L117.83 56.3215C116.824 55.3101 115.337 54.635 113.899 54.635H113.194C114.607 54.6597 116.057 55.3283 117.044 56.3208L118.865 57.7259C120.111 58.6872 121.641 59.2087 123.215 59.2087C123.332 59.2087 123.448 59.2044 123.563 59.196ZM99.4209 69.0144C99.6064 69.0454 99.7905 69.0575 99.9668 69.0501C101.165 68.9537 102.123 67.7085 102.123 66.5044C102.123 61.6935 103.446 61.5543 104.383 61.4556L104.415 61.4523C104.183 61.4216 103.926 61.42 103.64 61.4504L103.597 61.4549C102.66 61.5536 101.338 61.6928 101.338 66.5037C101.338 67.6264 100.505 68.7847 99.4209 69.0144ZM94.7509 74.0938C93.3817 74.0563 91.9425 73.4365 90.53 72.8281L90.5299 72.8281C89.627 72.4393 88.735 72.0551 87.8791 71.8307C87.1996 71.6681 86.4381 71.5475 85.7274 71.6056C86.1932 71.6396 86.66 71.7263 87.0935 71.83C87.9494 72.0544 88.8414 72.4386 89.7443 72.8274L89.7443 72.8274C91.1669 73.4401 92.6164 74.0643 93.9942 74.0938H94.7509ZM81.3426 90.6304C81.3649 90.6308 81.3873 90.6311 81.4097 90.6311H84.1892C86.4954 90.6311 86.9167 87.903 87.2106 85.9996C87.2425 85.7929 87.2729 85.596 87.3041 85.4133C87.3041 84.4981 88.0229 83.7275 88.9813 83.7275H92.9338C92.8985 83.727 92.8685 83.7268 92.8441 83.7268H88.1957C87.2373 83.7268 86.5185 84.4974 86.5185 85.4126C86.4873 85.5953 86.4569 85.7922 86.425 85.9989C86.1311 87.9023 85.7098 90.6304 83.4036 90.6304H81.3426ZM104.076 88.5433C104.108 88.5438 104.14 88.544 104.172 88.544H104.843C105.946 88.544 106.952 88.0142 107.527 87.0991L110.498 82.6679C111.073 81.8009 112.032 81.3192 113.038 81.3192H114.07C114.055 81.3188 114.04 81.3185 114.025 81.3185H112.252C111.246 81.3185 110.288 81.8002 109.712 82.6672L106.741 87.0984C106.17 88.0083 105.171 88.5373 104.076 88.5433ZM123.396 96.0285C123.167 95.9837 122.938 95.8987 122.718 95.7688C120.476 94.4082 116.852 93.3104 114.55 93.4361C116.83 93.5489 119.932 94.5539 121.932 95.7681C122.409 96.0487 122.924 96.12 123.396 96.0285ZM104.14 98.4956C102.865 98.4315 101.66 98.0214 101.728 96.6839V95.3353C101.776 94.0349 100.53 93.4569 99.4282 93.4569H98.7094C99.7945 93.4798 100.99 94.0604 100.943 95.3346V96.6832C100.86 98.2959 102.629 98.5603 104.14 98.4956ZM79.8975 98.2727C79.8029 98.2704 79.7084 98.2704 79.6142 98.2727H79.8975ZM77.6031 127.172C77.626 127.172 77.649 127.172 77.6719 127.172H90.6993C90.6635 127.172 90.6277 127.172 90.5918 127.172H77.6031ZM102.525 146.727C102.547 146.727 102.569 146.728 102.591 146.728H103.539C103.52 146.727 103.501 146.727 103.483 146.727H102.525ZM111.754 165.459C111.782 165.459 111.811 165.459 111.84 165.459H114.188C115.578 165.459 116.872 164.93 117.83 163.918L124.862 156.794C125.761 155.884 126.264 154.658 126.264 153.381V144.753C126.312 143.163 127.603 141.278 129.184 141.278C130.16 141.278 131.073 140.795 131.622 139.989L139.97 127.719C140.449 126.756 140.689 125.696 140.689 124.636V122.902C140.689 122.132 140.066 121.457 139.299 121.361C133.866 120.229 126.216 116.316 126.216 111.49V109.881C126.216 103.84 130.615 103.211 132.531 103.146C132.465 103.14 132.399 103.137 132.331 103.137L132.303 103.137C130.914 103.137 125.431 103.136 125.431 109.88V111.489C125.431 116.315 133.08 120.228 138.513 121.36C139.28 121.457 139.903 122.131 139.903 122.902V124.636C139.903 125.695 139.663 126.755 139.184 127.718L130.836 139.989C130.288 140.795 129.375 141.277 128.399 141.277C126.817 141.277 125.527 143.163 125.479 144.752V153.38C125.479 154.657 124.975 155.883 124.077 156.793L117.044 163.917C116.086 164.929 114.792 165.459 113.402 165.459H111.754ZM138.416 112.534C139.106 112.607 139.894 112.491 140.755 112.098L145.665 109.64C148.109 108.388 148.758 105.826 146.883 103.587C145.132 101.498 144.58 97.9641 148.291 97.9641H154.372C154.342 97.9636 154.311 97.9634 154.28 97.9634H147.505C143.795 97.9634 144.346 101.497 146.097 103.587C147.973 105.825 147.323 108.387 144.879 109.64L139.969 112.097C139.42 112.348 138.9 112.486 138.416 112.534ZM165.994 117.142H166.883C167.937 117.142 168.895 116.612 169.47 115.745L180.415 100.788C174.681 77.3497 156.792 58.6684 133.795 51.7772L133.982 51.6016C157.267 58.346 175.417 77.1474 181.201 100.789L170.256 115.746C169.681 116.613 168.723 117.142 167.668 117.142H166.039C166.024 117.142 166.009 117.142 165.994 117.142Z" fill="#67EDB0"/>
<defs>
<radialGradient id="paint0_radial_4089_1390" cx="0" cy="0" r="1" gradientUnits="userSpaceOnUse" gradientTransform="translate(147.854 95.6893) rotate(122.116) scale(102.862 116.663)">
<stop stop-color="#2DCAFF"/>
<stop offset="1" stop-color="#3488EF"/>
</radialGradient>
<radialGradient id="paint1_radial_4089_1390" cx="0" cy="0" r="1" gradientUnits="userSpaceOnUse" gradientTransform="translate(162.461 85.9676) rotate(137.798) scale(126.911 167.947)">
<stop offset="0.495708" stop-color="#465DC2" stop-opacity="0"/>
<stop offset="1" stop-color="#465DC2"/>
</radialGradient>
<radialGradient id="paint2_radial_4089_1390" cx="0" cy="0" r="1" gradientUnits="userSpaceOnUse" gradientTransform="translate(114.94 117) rotate(90) scale(68.0866 68.2046)">
<stop offset="0.915179" stop-color="#6389B1" stop-opacity="0"/>
<stop offset="1" stop-color="#6389B1" stop-opacity="0.3"/>
</radialGradient>
<linearGradient id="paint3_linear_4089_1390" x1="130.679" y1="69.1071" x2="92.7225" y2="142.111" gradientUnits="userSpaceOnUse">
<stop stop-color="#40B9F0"/>
<stop offset="1" stop-color="#305CBD"/>
</linearGradient>
<radialGradient id="paint4_radial_4089_1390" cx="0" cy="0" r="1" gradientUnits="userSpaceOnUse" gradientTransform="translate(154.971 80.7328) rotate(133.818) scale(98.4588 90.8483)">
<stop offset="0.291562" stop-color="#78FFB5"/>
<stop offset="1" stop-color="#409A79"/>
</radialGradient>
</defs>
</svg>
