<svg width="35" height="33" viewBox="0 0 35 33" fill="none" xmlns="http://www.w3.org/2000/svg">
<rect y="0.5" width="35" height="32" rx="6" fill="white"/>
<path d="M15.2897 11.7869C16.1253 10.4692 16.6721 9.23981 17.0048 8.27961C17.2101 7.68726 17.9864 7.44275 18.4373 7.8783C22.6687 11.9658 24.0723 15.139 24.3585 18.791C24.5739 22.4209 22.7897 25.6509 18.0011 25.6509C13.5053 25.6509 10.1876 22.5132 10.6387 17.54C10.8817 14.8612 11.8444 12.7575 12.7084 11.3814C13.1205 10.7252 14.0327 10.7149 14.5375 11.3028L14.9721 11.8089C15.0589 11.9099 15.2184 11.8994 15.2897 11.7869Z" fill="url(#paint0_radial_784_3978)"/>
<path d="M15.2897 11.7869C16.1253 10.4692 16.6721 9.23981 17.0048 8.27961C17.2101 7.68726 17.9864 7.44275 18.4373 7.8783C22.6687 11.9658 24.0723 15.139 24.3585 18.791C24.5739 22.4209 22.7897 25.6509 18.0011 25.6509C13.5053 25.6509 10.1876 22.5132 10.6387 17.54C10.8817 14.8612 11.8444 12.7575 12.7084 11.3814C13.1205 10.7252 14.0327 10.7149 14.5375 11.3028L14.9721 11.8089C15.0589 11.9099 15.2184 11.8994 15.2897 11.7869Z" fill="url(#paint1_radial_784_3978)"/>
<path d="M15.2897 11.7869C16.1253 10.4692 16.6721 9.23981 17.0048 8.27961C17.2101 7.68726 17.9864 7.44275 18.4373 7.8783C22.6687 11.9658 24.0723 15.139 24.3585 18.791C24.5739 22.4209 22.7897 25.6509 18.0011 25.6509C13.5053 25.6509 10.1876 22.5132 10.6387 17.54C10.8817 14.8612 11.8444 12.7575 12.7084 11.3814C13.1205 10.7252 14.0327 10.7149 14.5375 11.3028L14.9721 11.8089C15.0589 11.9099 15.2184 11.8994 15.2897 11.7869Z" fill="url(#paint2_radial_784_3978)"/>
<path d="M15.2897 11.7869C16.1253 10.4692 16.6721 9.23981 17.0048 8.27961C17.2101 7.68726 17.9864 7.44275 18.4373 7.8783C22.6687 11.9658 24.0723 15.139 24.3585 18.791C24.5739 22.4209 22.7897 25.6509 18.0011 25.6509C13.5053 25.6509 10.1876 22.5132 10.6387 17.54C10.8817 14.8612 11.8444 12.7575 12.7084 11.3814C13.1205 10.7252 14.0327 10.7149 14.5375 11.3028L14.9721 11.8089C15.0589 11.9099 15.2184 11.8994 15.2897 11.7869Z" fill="url(#paint3_linear_784_3978)"/>
<path d="M15.2897 11.7869C16.1253 10.4692 16.6721 9.23981 17.0048 8.27961C17.2101 7.68726 17.9864 7.44275 18.4373 7.8783C22.6687 11.9658 24.0723 15.139 24.3585 18.791C24.5739 22.4209 22.7897 25.6509 18.0011 25.6509C13.5053 25.6509 10.1876 22.5132 10.6387 17.54C10.8817 14.8612 11.8444 12.7575 12.7084 11.3814C13.1205 10.7252 14.0327 10.7149 14.5375 11.3028L14.9721 11.8089C15.0589 11.9099 15.2184 11.8994 15.2897 11.7869Z" fill="url(#paint4_radial_784_3978)"/>
<path d="M15.2897 11.7869C16.1253 10.4692 16.6721 9.23981 17.0048 8.27961C17.2101 7.68726 17.9864 7.44275 18.4373 7.8783C22.6687 11.9658 24.0723 15.139 24.3585 18.791C24.5739 22.4209 22.7897 25.6509 18.0011 25.6509C13.5053 25.6509 10.1876 22.5132 10.6387 17.54C10.8817 14.8612 11.8444 12.7575 12.7084 11.3814C13.1205 10.7252 14.0327 10.7149 14.5375 11.3028L14.9721 11.8089C15.0589 11.9099 15.2184 11.8994 15.2897 11.7869Z" fill="url(#paint5_radial_784_3978)"/>
<path d="M15.2897 11.7869C16.1253 10.4692 16.6721 9.23981 17.0048 8.27961C17.2101 7.68726 17.9864 7.44275 18.4373 7.8783C22.6687 11.9658 24.0723 15.139 24.3585 18.791C24.5739 22.4209 22.7897 25.6509 18.0011 25.6509C13.5053 25.6509 10.1876 22.5132 10.6387 17.54C10.8817 14.8612 11.8444 12.7575 12.7084 11.3814C13.1205 10.7252 14.0327 10.7149 14.5375 11.3028L14.9721 11.8089C15.0589 11.9099 15.2184 11.8994 15.2897 11.7869Z" fill="url(#paint6_radial_784_3978)"/>
<path d="M15.2897 11.7869C16.1253 10.4692 16.6721 9.23981 17.0048 8.27961C17.2101 7.68726 17.9864 7.44275 18.4373 7.8783C22.6687 11.9658 24.0723 15.139 24.3585 18.791C24.5739 22.4209 22.7897 25.6509 18.0011 25.6509C13.5053 25.6509 10.1876 22.5132 10.6387 17.54C10.8817 14.8612 11.8444 12.7575 12.7084 11.3814C13.1205 10.7252 14.0327 10.7149 14.5375 11.3028L14.9721 11.8089C15.0589 11.9099 15.2184 11.8994 15.2897 11.7869Z" fill="url(#paint7_radial_784_3978)"/>
<path d="M15.2897 11.7869C16.1253 10.4692 16.6721 9.23981 17.0048 8.27961C17.2101 7.68726 17.9864 7.44275 18.4373 7.8783C22.6687 11.9658 24.0723 15.139 24.3585 18.791C24.5739 22.4209 22.7897 25.6509 18.0011 25.6509C13.5053 25.6509 10.1876 22.5132 10.6387 17.54C10.8817 14.8612 11.8444 12.7575 12.7084 11.3814C13.1205 10.7252 14.0327 10.7149 14.5375 11.3028L14.9721 11.8089C15.0589 11.9099 15.2184 11.8994 15.2897 11.7869Z" fill="url(#paint8_radial_784_3978)"/>
<path d="M15.2897 11.7869C16.1253 10.4692 16.6721 9.23981 17.0048 8.27961C17.2101 7.68726 17.9864 7.44275 18.4373 7.8783C22.6687 11.9658 24.0723 15.139 24.3585 18.791C24.5739 22.4209 22.7897 25.6509 18.0011 25.6509C13.5053 25.6509 10.1876 22.5132 10.6387 17.54C10.8817 14.8612 11.8444 12.7575 12.7084 11.3814C13.1205 10.7252 14.0327 10.7149 14.5375 11.3028L14.9721 11.8089C15.0589 11.9099 15.2184 11.8994 15.2897 11.7869Z" fill="url(#paint9_radial_784_3978)"/>
<path d="M15.2897 11.7869C16.1253 10.4692 16.6721 9.23981 17.0048 8.27961C17.2101 7.68726 17.9864 7.44275 18.4373 7.8783C22.6687 11.9658 24.0723 15.139 24.3585 18.791C24.5739 22.4209 22.7897 25.6509 18.0011 25.6509C13.5053 25.6509 10.1876 22.5132 10.6387 17.54C10.8817 14.8612 11.8444 12.7575 12.7084 11.3814C13.1205 10.7252 14.0327 10.7149 14.5375 11.3028L14.9721 11.8089C15.0589 11.9099 15.2184 11.8994 15.2897 11.7869Z" fill="url(#paint10_radial_784_3978)"/>
<path d="M15.2897 11.7869C16.1253 10.4692 16.6721 9.23981 17.0048 8.27961C17.2101 7.68726 17.9864 7.44275 18.4373 7.8783C22.6687 11.9658 24.0723 15.139 24.3585 18.791C24.5739 22.4209 22.7897 25.6509 18.0011 25.6509C13.5053 25.6509 10.1876 22.5132 10.6387 17.54C10.8817 14.8612 11.8444 12.7575 12.7084 11.3814C13.1205 10.7252 14.0327 10.7149 14.5375 11.3028L14.9721 11.8089C15.0589 11.9099 15.2184 11.8994 15.2897 11.7869Z" fill="url(#paint11_radial_784_3978)"/>
<path d="M15.2897 11.7869C16.1253 10.4692 16.6721 9.23981 17.0048 8.27961C17.2101 7.68726 17.9864 7.44275 18.4373 7.8783C22.6687 11.9658 24.0723 15.139 24.3585 18.791C24.5739 22.4209 22.7897 25.6509 18.0011 25.6509C13.5053 25.6509 10.1876 22.5132 10.6387 17.54C10.8817 14.8612 11.8444 12.7575 12.7084 11.3814C13.1205 10.7252 14.0327 10.7149 14.5375 11.3028L14.9721 11.8089C15.0589 11.9099 15.2184 11.8994 15.2897 11.7869Z" fill="url(#paint12_radial_784_3978)"/>
<path d="M15.2897 11.7869C16.1253 10.4692 16.6721 9.23981 17.0048 8.27961C17.2101 7.68726 17.9864 7.44275 18.4373 7.8783C22.6687 11.9658 24.0723 15.139 24.3585 18.791C24.5739 22.4209 22.7897 25.6509 18.0011 25.6509C13.5053 25.6509 10.1876 22.5132 10.6387 17.54C10.8817 14.8612 11.8444 12.7575 12.7084 11.3814C13.1205 10.7252 14.0327 10.7149 14.5375 11.3028L14.9721 11.8089C15.0589 11.9099 15.2184 11.8994 15.2897 11.7869Z" fill="url(#paint13_radial_784_3978)" fill-opacity="0.2"/>
<path d="M15.2897 11.7869C16.1253 10.4692 16.6721 9.23981 17.0048 8.27961C17.2101 7.68726 17.9864 7.44275 18.4373 7.8783C22.6687 11.9658 24.0723 15.139 24.3585 18.791C24.5739 22.4209 22.7897 25.6509 18.0011 25.6509C13.5053 25.6509 10.1876 22.5132 10.6387 17.54C10.8817 14.8612 11.8444 12.7575 12.7084 11.3814C13.1205 10.7252 14.0327 10.7149 14.5375 11.3028L14.9721 11.8089C15.0589 11.9099 15.2184 11.8994 15.2897 11.7869Z" fill="url(#paint14_radial_784_3978)"/>
<path d="M15.2897 11.7869C16.1253 10.4692 16.6721 9.23981 17.0048 8.27961C17.2101 7.68726 17.9864 7.44275 18.4373 7.8783C22.6687 11.9658 24.0723 15.139 24.3585 18.791C24.5739 22.4209 22.7897 25.6509 18.0011 25.6509C13.5053 25.6509 10.1876 22.5132 10.6387 17.54C10.8817 14.8612 11.8444 12.7575 12.7084 11.3814C13.1205 10.7252 14.0327 10.7149 14.5375 11.3028L14.9721 11.8089C15.0589 11.9099 15.2184 11.8994 15.2897 11.7869Z" fill="url(#paint15_radial_784_3978)"/>
<path d="M15.2897 11.7869C16.1253 10.4692 16.6721 9.23981 17.0048 8.27961C17.2101 7.68726 17.9864 7.44275 18.4373 7.8783C22.6687 11.9658 24.0723 15.139 24.3585 18.791C24.5739 22.4209 22.7897 25.6509 18.0011 25.6509C13.5053 25.6509 10.1876 22.5132 10.6387 17.54C10.8817 14.8612 11.8444 12.7575 12.7084 11.3814C13.1205 10.7252 14.0327 10.7149 14.5375 11.3028L14.9721 11.8089C15.0589 11.9099 15.2184 11.8994 15.2897 11.7869Z" fill="url(#paint16_radial_784_3978)"/>
<path d="M15.2897 11.7869C16.1253 10.4692 16.6721 9.23981 17.0048 8.27961C17.2101 7.68726 17.9864 7.44275 18.4373 7.8783C22.6687 11.9658 24.0723 15.139 24.3585 18.791C24.5739 22.4209 22.7897 25.6509 18.0011 25.6509C13.5053 25.6509 10.1876 22.5132 10.6387 17.54C10.8817 14.8612 11.8444 12.7575 12.7084 11.3814C13.1205 10.7252 14.0327 10.7149 14.5375 11.3028L14.9721 11.8089C15.0589 11.9099 15.2184 11.8994 15.2897 11.7869Z" fill="url(#paint17_radial_784_3978)"/>
<path d="M15.2897 11.7869C16.1253 10.4692 16.6721 9.23981 17.0048 8.27961C17.2101 7.68726 17.9864 7.44275 18.4373 7.8783C22.6687 11.9658 24.0723 15.139 24.3585 18.791C24.5739 22.4209 22.7897 25.6509 18.0011 25.6509C13.5053 25.6509 10.1876 22.5132 10.6387 17.54C10.8817 14.8612 11.8444 12.7575 12.7084 11.3814C13.1205 10.7252 14.0327 10.7149 14.5375 11.3028L14.9721 11.8089C15.0589 11.9099 15.2184 11.8994 15.2897 11.7869Z" fill="url(#paint18_radial_784_3978)" fill-opacity="0.3"/>
<path d="M15.2897 11.7869C16.1253 10.4692 16.6721 9.23981 17.0048 8.27961C17.2101 7.68726 17.9864 7.44275 18.4373 7.8783C22.6687 11.9658 24.0723 15.139 24.3585 18.791C24.5739 22.4209 22.7897 25.6509 18.0011 25.6509C13.5053 25.6509 10.1876 22.5132 10.6387 17.54C10.8817 14.8612 11.8444 12.7575 12.7084 11.3814C13.1205 10.7252 14.0327 10.7149 14.5375 11.3028L14.9721 11.8089C15.0589 11.9099 15.2184 11.8994 15.2897 11.7869Z" fill="url(#paint19_radial_784_3978)" fill-opacity="0.4"/>
<path d="M15.2897 11.7869C16.1253 10.4692 16.6721 9.23981 17.0048 8.27961C17.2101 7.68726 17.9864 7.44275 18.4373 7.8783C22.6687 11.9658 24.0723 15.139 24.3585 18.791C24.5739 22.4209 22.7897 25.6509 18.0011 25.6509C13.5053 25.6509 10.1876 22.5132 10.6387 17.54C10.8817 14.8612 11.8444 12.7575 12.7084 11.3814C13.1205 10.7252 14.0327 10.7149 14.5375 11.3028L14.9721 11.8089C15.0589 11.9099 15.2184 11.8994 15.2897 11.7869Z" fill="url(#paint20_radial_784_3978)"/>
<path d="M15.2897 11.7869C16.1253 10.4692 16.6721 9.23981 17.0048 8.27961C17.2101 7.68726 17.9864 7.44275 18.4373 7.8783C22.6687 11.9658 24.0723 15.139 24.3585 18.791C24.5739 22.4209 22.7897 25.6509 18.0011 25.6509C13.5053 25.6509 10.1876 22.5132 10.6387 17.54C10.8817 14.8612 11.8444 12.7575 12.7084 11.3814C13.1205 10.7252 14.0327 10.7149 14.5375 11.3028L14.9721 11.8089C15.0589 11.9099 15.2184 11.8994 15.2897 11.7869Z" fill="url(#paint21_radial_784_3978)"/>
<path d="M15.2897 11.7869C16.1253 10.4692 16.6721 9.23981 17.0048 8.27961C17.2101 7.68726 17.9864 7.44275 18.4373 7.8783C22.6687 11.9658 24.0723 15.139 24.3585 18.791C24.5739 22.4209 22.7897 25.6509 18.0011 25.6509C13.5053 25.6509 10.1876 22.5132 10.6387 17.54C10.8817 14.8612 11.8444 12.7575 12.7084 11.3814C13.1205 10.7252 14.0327 10.7149 14.5375 11.3028L14.9721 11.8089C15.0589 11.9099 15.2184 11.8994 15.2897 11.7869Z" fill="url(#paint22_radial_784_3978)"/>
<path d="M15.2897 11.7869C16.1253 10.4692 16.6721 9.23981 17.0048 8.27961C17.2101 7.68726 17.9864 7.44275 18.4373 7.8783C22.6687 11.9658 24.0723 15.139 24.3585 18.791C24.5739 22.4209 22.7897 25.6509 18.0011 25.6509C13.5053 25.6509 10.1876 22.5132 10.6387 17.54C10.8817 14.8612 11.8444 12.7575 12.7084 11.3814C13.1205 10.7252 14.0327 10.7149 14.5375 11.3028L14.9721 11.8089C15.0589 11.9099 15.2184 11.8994 15.2897 11.7869Z" fill="url(#paint23_radial_784_3978)" fill-opacity="0.8"/>
<path d="M15.2897 11.7869C16.1253 10.4692 16.6721 9.23981 17.0048 8.27961C17.2101 7.68726 17.9864 7.44275 18.4373 7.8783C22.6687 11.9658 24.0723 15.139 24.3585 18.791C24.5739 22.4209 22.7897 25.6509 18.0011 25.6509C13.5053 25.6509 10.1876 22.5132 10.6387 17.54C10.8817 14.8612 11.8444 12.7575 12.7084 11.3814C13.1205 10.7252 14.0327 10.7149 14.5375 11.3028L14.9721 11.8089C15.0589 11.9099 15.2184 11.8994 15.2897 11.7869Z" fill="url(#paint24_radial_784_3978)" fill-opacity="0.2"/>
<path d="M15.2897 11.7869C16.1253 10.4692 16.6721 9.23981 17.0048 8.27961C17.2101 7.68726 17.9864 7.44275 18.4373 7.8783C22.6687 11.9658 24.0723 15.139 24.3585 18.791C24.5739 22.4209 22.7897 25.6509 18.0011 25.6509C13.5053 25.6509 10.1876 22.5132 10.6387 17.54C10.8817 14.8612 11.8444 12.7575 12.7084 11.3814C13.1205 10.7252 14.0327 10.7149 14.5375 11.3028L14.9721 11.8089C15.0589 11.9099 15.2184 11.8994 15.2897 11.7869Z" fill="url(#paint25_radial_784_3978)" fill-opacity="0.2"/>
<path d="M15.2897 11.7869C16.1253 10.4692 16.6721 9.23981 17.0048 8.27961C17.2101 7.68726 17.9864 7.44275 18.4373 7.8783C22.6687 11.9658 24.0723 15.139 24.3585 18.791C24.5739 22.4209 22.7897 25.6509 18.0011 25.6509C13.5053 25.6509 10.1876 22.5132 10.6387 17.54C10.8817 14.8612 11.8444 12.7575 12.7084 11.3814C13.1205 10.7252 14.0327 10.7149 14.5375 11.3028L14.9721 11.8089C15.0589 11.9099 15.2184 11.8994 15.2897 11.7869Z" fill="url(#paint26_radial_784_3978)"/>
<path d="M15.2897 11.7869C16.1253 10.4692 16.6721 9.23981 17.0048 8.27961C17.2101 7.68726 17.9864 7.44275 18.4373 7.8783C22.6687 11.9658 24.0723 15.139 24.3585 18.791C24.5739 22.4209 22.7897 25.6509 18.0011 25.6509C13.5053 25.6509 10.1876 22.5132 10.6387 17.54C10.8817 14.8612 11.8444 12.7575 12.7084 11.3814C13.1205 10.7252 14.0327 10.7149 14.5375 11.3028L14.9721 11.8089C15.0589 11.9099 15.2184 11.8994 15.2897 11.7869Z" fill="url(#paint27_radial_784_3978)"/>
<path d="M15.2897 11.7869C16.1253 10.4692 16.6721 9.23981 17.0048 8.27961C17.2101 7.68726 17.9864 7.44275 18.4373 7.8783C22.6687 11.9658 24.0723 15.139 24.3585 18.791C24.5739 22.4209 22.7897 25.6509 18.0011 25.6509C13.5053 25.6509 10.1876 22.5132 10.6387 17.54C10.8817 14.8612 11.8444 12.7575 12.7084 11.3814C13.1205 10.7252 14.0327 10.7149 14.5375 11.3028L14.9721 11.8089C15.0589 11.9099 15.2184 11.8994 15.2897 11.7869Z" fill="url(#paint28_radial_784_3978)"/>
<path d="M15.2897 11.7869C16.1253 10.4692 16.6721 9.23981 17.0048 8.27961C17.2101 7.68726 17.9864 7.44275 18.4373 7.8783C22.6687 11.9658 24.0723 15.139 24.3585 18.791C24.5739 22.4209 22.7897 25.6509 18.0011 25.6509C13.5053 25.6509 10.1876 22.5132 10.6387 17.54C10.8817 14.8612 11.8444 12.7575 12.7084 11.3814C13.1205 10.7252 14.0327 10.7149 14.5375 11.3028L14.9721 11.8089C15.0589 11.9099 15.2184 11.8994 15.2897 11.7869Z" fill="url(#paint29_radial_784_3978)"/>
<path d="M13.6783 19.0443C14.4636 17.1755 16.0078 15.1236 17.1721 13.8558C17.6674 13.3163 18.4918 13.3009 19.0155 13.8127C21.0365 15.7881 21.6828 17.6036 22.2353 19.7006C22.8389 21.992 22.2353 25.684 17.693 25.684C13.7812 25.684 12.4261 22.024 13.6783 19.0443Z" fill="url(#paint30_radial_784_3978)"/>
<path d="M13.6783 19.0443C14.4636 17.1755 16.0078 15.1236 17.1721 13.8558C17.6674 13.3163 18.4918 13.3009 19.0155 13.8127C21.0365 15.7881 21.6828 17.6036 22.2353 19.7006C22.8389 21.992 22.2353 25.684 17.693 25.684C13.7812 25.684 12.4261 22.024 13.6783 19.0443Z" fill="url(#paint31_radial_784_3978)"/>
<path d="M13.6783 19.0443C14.4636 17.1755 16.0078 15.1236 17.1721 13.8558C17.6674 13.3163 18.4918 13.3009 19.0155 13.8127C21.0365 15.7881 21.6828 17.6036 22.2353 19.7006C22.8389 21.992 22.2353 25.684 17.693 25.684C13.7812 25.684 12.4261 22.024 13.6783 19.0443Z" fill="url(#paint32_radial_784_3978)"/>
<path d="M13.6783 19.0443C14.4636 17.1755 16.0078 15.1236 17.1721 13.8558C17.6674 13.3163 18.4918 13.3009 19.0155 13.8127C21.0365 15.7881 21.6828 17.6036 22.2353 19.7006C22.8389 21.992 22.2353 25.684 17.693 25.684C13.7812 25.684 12.4261 22.024 13.6783 19.0443Z" fill="url(#paint33_radial_784_3978)"/>
<path d="M13.6783 19.0443C14.4636 17.1755 16.0078 15.1236 17.1721 13.8558C17.6674 13.3163 18.4918 13.3009 19.0155 13.8127C21.0365 15.7881 21.6828 17.6036 22.2353 19.7006C22.8389 21.992 22.2353 25.684 17.693 25.684C13.7812 25.684 12.4261 22.024 13.6783 19.0443Z" fill="url(#paint34_linear_784_3978)"/>
<path d="M13.6783 19.0443C14.4636 17.1755 16.0078 15.1236 17.1721 13.8558C17.6674 13.3163 18.4918 13.3009 19.0155 13.8127C21.0365 15.7881 21.6828 17.6036 22.2353 19.7006C22.8389 21.992 22.2353 25.684 17.693 25.684C13.7812 25.684 12.4261 22.024 13.6783 19.0443Z" fill="url(#paint35_radial_784_3978)"/>
<path d="M13.6783 19.0443C14.4636 17.1755 16.0078 15.1236 17.1721 13.8558C17.6674 13.3163 18.4918 13.3009 19.0155 13.8127C21.0365 15.7881 21.6828 17.6036 22.2353 19.7006C22.8389 21.992 22.2353 25.684 17.693 25.684C13.7812 25.684 12.4261 22.024 13.6783 19.0443Z" fill="url(#paint36_radial_784_3978)"/>
<path d="M13.6783 19.0443C14.4636 17.1755 16.0078 15.1236 17.1721 13.8558C17.6674 13.3163 18.4918 13.3009 19.0155 13.8127C21.0365 15.7881 21.6828 17.6036 22.2353 19.7006C22.8389 21.992 22.2353 25.684 17.693 25.684C13.7812 25.684 12.4261 22.024 13.6783 19.0443Z" fill="url(#paint37_radial_784_3978)" fill-opacity="0.7"/>
<defs>
<radialGradient id="paint0_radial_784_3978" cx="0" cy="0" r="1" gradientUnits="userSpaceOnUse" gradientTransform="translate(22.7527 18.9414) rotate(-179.474) scale(11.2211 16.9221)">
<stop stop-color="#FF953D"/>
<stop offset="1" stop-color="#FF5141"/>
</radialGradient>
<radialGradient id="paint1_radial_784_3978" cx="0" cy="0" r="1" gradientUnits="userSpaceOnUse" gradientTransform="translate(13.8081 16.2737) rotate(-157.937) scale(6.78832 11.7137)">
<stop stop-color="#CE5327"/>
<stop offset="1" stop-color="#CE5327" stop-opacity="0"/>
</radialGradient>
<radialGradient id="paint2_radial_784_3978" cx="0" cy="0" r="1" gradientUnits="userSpaceOnUse" gradientTransform="translate(12.1777 19.0971) rotate(15.4786) scale(1.38022 5.0291)">
<stop stop-color="#F38758"/>
<stop offset="0.363071" stop-color="#F38758" stop-opacity="0.703001"/>
<stop offset="0.71349" stop-color="#F38758" stop-opacity="0.210142"/>
<stop offset="1" stop-color="#F38758" stop-opacity="0"/>
</radialGradient>
<linearGradient id="paint3_linear_784_3978" x1="19.0344" y1="25.6509" x2="19.0344" y2="22.305" gradientUnits="userSpaceOnUse">
<stop stop-color="#FF7583"/>
<stop offset="1" stop-color="#FF7583" stop-opacity="0"/>
</linearGradient>
<radialGradient id="paint4_radial_784_3978" cx="0" cy="0" r="1" gradientUnits="userSpaceOnUse" gradientTransform="translate(10.2543 15.4445) rotate(24.0149) scale(2.03743 16.865)">
<stop stop-color="#FFAA7B"/>
<stop offset="0.845295" stop-color="#FFAA7B" stop-opacity="0.0923529"/>
<stop offset="1" stop-color="#FFAA7B" stop-opacity="0"/>
</radialGradient>
<radialGradient id="paint5_radial_784_3978" cx="0" cy="0" r="1" gradientUnits="userSpaceOnUse" gradientTransform="translate(13.1111 10.1023) rotate(77.3196) scale(2.52023 3.14467)">
<stop stop-color="#FF5E47"/>
<stop offset="1" stop-color="#FF5E47" stop-opacity="0"/>
</radialGradient>
<radialGradient id="paint6_radial_784_3978" cx="0" cy="0" r="1" gradientUnits="userSpaceOnUse" gradientTransform="translate(17.7827 6.89648) rotate(87.8819) scale(6.65266 6.15773)">
<stop stop-color="#FF2F3C"/>
<stop offset="1" stop-color="#FF2F3C" stop-opacity="0"/>
</radialGradient>
<radialGradient id="paint7_radial_784_3978" cx="0" cy="0" r="1" gradientUnits="userSpaceOnUse" gradientTransform="translate(14.9286 11.7519) rotate(152.832) scale(0.817709 0.347597)">
<stop stop-color="#FFA682"/>
<stop offset="0.686162" stop-color="#FFA682" stop-opacity="0.266248"/>
<stop offset="0.821066" stop-color="#FFA682" stop-opacity="0.117186"/>
<stop offset="1" stop-color="#FFA682" stop-opacity="0"/>
</radialGradient>
<radialGradient id="paint8_radial_784_3978" cx="0" cy="0" r="1" gradientUnits="userSpaceOnUse" gradientTransform="translate(14.8303 11.7486) rotate(114.808) scale(2.54148 0.251671)">
<stop stop-color="#FFA682"/>
<stop offset="0.701678" stop-color="#FFA682" stop-opacity="0.199672"/>
<stop offset="1" stop-color="#FFA682" stop-opacity="0"/>
</radialGradient>
<radialGradient id="paint9_radial_784_3978" cx="0" cy="0" r="1" gradientUnits="userSpaceOnUse" gradientTransform="translate(12.6623 12.5703) rotate(20.9596) scale(0.586353 2.78106)">
<stop stop-color="#FF815B"/>
<stop offset="0.24804" stop-color="#FF815B" stop-opacity="0.869521"/>
<stop offset="0.815487" stop-color="#FF815B" stop-opacity="0.150116"/>
<stop offset="1" stop-color="#FF815B" stop-opacity="0"/>
</radialGradient>
<radialGradient id="paint10_radial_784_3978" cx="0" cy="0" r="1" gradientUnits="userSpaceOnUse" gradientTransform="translate(13.1095 11.729) rotate(16.4224) scale(0.71962 2.38005)">
<stop stop-color="#FF815B"/>
<stop offset="0.24804" stop-color="#FF815B" stop-opacity="0.869521"/>
<stop offset="0.822875" stop-color="#FF815B" stop-opacity="0.150116"/>
<stop offset="1" stop-color="#FF815B" stop-opacity="0"/>
</radialGradient>
<radialGradient id="paint11_radial_784_3978" cx="0" cy="0" r="1" gradientUnits="userSpaceOnUse" gradientTransform="translate(13.9986 10.4463) rotate(99.2111) scale(0.716946 2.85669)">
<stop stop-color="#FF2F3C"/>
<stop offset="0.739036" stop-color="#FF2F3C" stop-opacity="0.119038"/>
<stop offset="1" stop-color="#FF2F3C" stop-opacity="0"/>
</radialGradient>
<radialGradient id="paint12_radial_784_3978" cx="0" cy="0" r="1" gradientUnits="userSpaceOnUse" gradientTransform="translate(14.5982 11.3217) rotate(105.173) scale(3.8273 1.00814)">
<stop stop-color="#FF2F3C" stop-opacity="0.72"/>
<stop offset="0.739036" stop-color="#FF2F3C" stop-opacity="0.119038"/>
<stop offset="1" stop-color="#FF2F3C" stop-opacity="0"/>
</radialGradient>
<radialGradient id="paint13_radial_784_3978" cx="0" cy="0" r="1" gradientUnits="userSpaceOnUse" gradientTransform="translate(14.7531 14.6882) rotate(31.1593) scale(1.82127 8.24079)">
<stop stop-color="#CA0B4A"/>
<stop offset="0.680964" stop-color="#CA0B4A" stop-opacity="0.54"/>
<stop offset="1" stop-color="#CA0B4A" stop-opacity="0"/>
</radialGradient>
<radialGradient id="paint14_radial_784_3978" cx="0" cy="0" r="1" gradientUnits="userSpaceOnUse" gradientTransform="translate(16.2438 10.2285) rotate(23.7601) scale(1.48059 5.39482)">
<stop stop-color="#F38758"/>
<stop offset="0.363071" stop-color="#F38758" stop-opacity="0.703001"/>
<stop offset="0.71349" stop-color="#F38758" stop-opacity="0.210142"/>
<stop offset="1" stop-color="#F38758" stop-opacity="0"/>
</radialGradient>
<radialGradient id="paint15_radial_784_3978" cx="0" cy="0" r="1" gradientUnits="userSpaceOnUse" gradientTransform="translate(15.0524 13.0955) rotate(28.8359) scale(1.09662 3.99573)">
<stop stop-color="#F38758" stop-opacity="0.86"/>
<stop offset="0.262244" stop-color="#F38758" stop-opacity="0.703001"/>
<stop offset="0.675284" stop-color="#F38758" stop-opacity="0.210142"/>
<stop offset="0.861713" stop-color="#F38758" stop-opacity="0.0623553"/>
<stop offset="1" stop-color="#F38758" stop-opacity="0"/>
</radialGradient>
<radialGradient id="paint16_radial_784_3978" cx="0" cy="0" r="1" gradientUnits="userSpaceOnUse" gradientTransform="translate(13.3428 16.2063) rotate(24.6769) scale(1.61549 5.88634)">
<stop stop-color="#F38758"/>
<stop offset="0.363071" stop-color="#F38758" stop-opacity="0.703001"/>
<stop offset="0.71349" stop-color="#F38758" stop-opacity="0.210142"/>
<stop offset="1" stop-color="#F38758" stop-opacity="0"/>
</radialGradient>
<radialGradient id="paint17_radial_784_3978" cx="0" cy="0" r="1" gradientUnits="userSpaceOnUse" gradientTransform="translate(15.1465 20.4906) rotate(-160.017) scale(3.8162 7.77719)">
<stop stop-color="#CE5327"/>
<stop offset="0.844833" stop-color="#CE5327" stop-opacity="0.434204"/>
<stop offset="0.945717" stop-color="#CE5327" stop-opacity="0.12821"/>
<stop offset="1" stop-color="#CE5327" stop-opacity="0"/>
</radialGradient>
<radialGradient id="paint18_radial_784_3978" cx="0" cy="0" r="1" gradientUnits="userSpaceOnUse" gradientTransform="translate(17.7328 9.8409) rotate(-176.122) scale(0.765801 3.06141)">
<stop stop-color="#CE5327" stop-opacity="0.65"/>
<stop offset="0.481357" stop-color="#CE5327" stop-opacity="0.434204"/>
<stop offset="0.738276" stop-color="#CE5327" stop-opacity="0.12821"/>
<stop offset="1" stop-color="#CE5327" stop-opacity="0"/>
</radialGradient>
<radialGradient id="paint19_radial_784_3978" cx="0" cy="0" r="1" gradientUnits="userSpaceOnUse" gradientTransform="translate(17.4275 11.2325) rotate(-164.148) scale(0.783124 3.13067)">
<stop stop-color="#CE5327" stop-opacity="0.65"/>
<stop offset="0.481357" stop-color="#CE5327" stop-opacity="0.434204"/>
<stop offset="0.738276" stop-color="#CE5327" stop-opacity="0.12821"/>
<stop offset="1" stop-color="#CE5327" stop-opacity="0"/>
</radialGradient>
<radialGradient id="paint20_radial_784_3978" cx="0" cy="0" r="1" gradientUnits="userSpaceOnUse" gradientTransform="translate(12.6868 15.0008) rotate(-154.011) scale(0.482962 4.0713)">
<stop stop-color="#CE5327" stop-opacity="0.87"/>
<stop offset="0.493785" stop-color="#CE5327" stop-opacity="0.53"/>
<stop offset="0.852631" stop-color="#CE5327" stop-opacity="0.123929"/>
<stop offset="1" stop-color="#CE5327" stop-opacity="0"/>
</radialGradient>
<radialGradient id="paint21_radial_784_3978" cx="0" cy="0" r="1" gradientUnits="userSpaceOnUse" gradientTransform="translate(14.6834 12.7215) rotate(-145.909) scale(0.205009 1.26954)">
<stop stop-color="#FF5E47"/>
<stop offset="1" stop-color="#FF5E47" stop-opacity="0"/>
</radialGradient>
<radialGradient id="paint22_radial_784_3978" cx="0" cy="0" r="1" gradientUnits="userSpaceOnUse" gradientTransform="translate(12.1238 11.8252) rotate(29.1817) scale(0.885305 5.48235)">
<stop offset="0.25679" stop-color="#FF5E47"/>
<stop offset="0.779632" stop-color="#FF5E47" stop-opacity="0.216117"/>
<stop offset="1" stop-color="#FF5E47" stop-opacity="0"/>
</radialGradient>
<radialGradient id="paint23_radial_784_3978" cx="0" cy="0" r="1" gradientUnits="userSpaceOnUse" gradientTransform="translate(15.0407 12.0124) rotate(-155.855) scale(0.284282 1.39586)">
<stop stop-color="#FF2F3C"/>
<stop offset="0.361378" stop-color="#FF2F3C" stop-opacity="0.44772"/>
<stop offset="0.739036" stop-color="#FF2F3C" stop-opacity="0.119038"/>
<stop offset="1" stop-color="#FF2F3C" stop-opacity="0"/>
</radialGradient>
<radialGradient id="paint24_radial_784_3978" cx="0" cy="0" r="1" gradientUnits="userSpaceOnUse" gradientTransform="translate(17.7784 9.86226) rotate(-177.99) scale(1.1787 6.22577)">
<stop stop-color="#CA0B4A"/>
<stop offset="0.680964" stop-color="#CA0B4A" stop-opacity="0.183465"/>
<stop offset="1" stop-color="#CA0B4A" stop-opacity="0"/>
</radialGradient>
<radialGradient id="paint25_radial_784_3978" cx="0" cy="0" r="1" gradientUnits="userSpaceOnUse" gradientTransform="translate(17.803 8.17955) rotate(-180) scale(0.625183 3.30216)">
<stop stop-color="#CA0B4A"/>
<stop offset="0.680964" stop-color="#CA0B4A" stop-opacity="0.183465"/>
<stop offset="1" stop-color="#CA0B4A" stop-opacity="0"/>
</radialGradient>
<radialGradient id="paint26_radial_784_3978" cx="0" cy="0" r="1" gradientUnits="userSpaceOnUse" gradientTransform="translate(12.1322 17.8309) rotate(22.249) scale(0.444028 2.7907)">
<stop stop-color="#F38758"/>
<stop offset="0.277249" stop-color="#F38758" stop-opacity="0.771452"/>
<stop offset="0.585568" stop-color="#F38758" stop-opacity="0.288453"/>
<stop offset="1" stop-color="#F38758" stop-opacity="0"/>
</radialGradient>
<radialGradient id="paint27_radial_784_3978" cx="0" cy="0" r="1" gradientUnits="userSpaceOnUse" gradientTransform="translate(13.0696 16.1112) rotate(29.7449) scale(0.398823 2.50659)">
<stop stop-color="#F38758"/>
<stop offset="0.277249" stop-color="#F38758" stop-opacity="0.771452"/>
<stop offset="0.585568" stop-color="#F38758" stop-opacity="0.288453"/>
<stop offset="1" stop-color="#F38758" stop-opacity="0"/>
</radialGradient>
<radialGradient id="paint28_radial_784_3978" cx="0" cy="0" r="1" gradientUnits="userSpaceOnUse" gradientTransform="translate(14.0837 14.5517) rotate(37.4054) scale(0.365217 2.29537)">
<stop stop-color="#F38758"/>
<stop offset="0.277249" stop-color="#F38758" stop-opacity="0.771452"/>
<stop offset="0.585568" stop-color="#F38758" stop-opacity="0.288453"/>
<stop offset="1" stop-color="#F38758" stop-opacity="0"/>
</radialGradient>
<radialGradient id="paint29_radial_784_3978" cx="0" cy="0" r="1" gradientUnits="userSpaceOnUse" gradientTransform="translate(15.3211 17.3224) rotate(-151.033) scale(2.79536 6.08244)">
<stop stop-color="#CE5327"/>
<stop offset="0.638398" stop-color="#CE5327" stop-opacity="0.417024"/>
<stop offset="0.913732" stop-color="#CE5327" stop-opacity="0.123929"/>
<stop offset="1" stop-color="#CE5327" stop-opacity="0"/>
</radialGradient>
<radialGradient id="paint30_radial_784_3978" cx="0" cy="0" r="1" gradientUnits="userSpaceOnUse" gradientTransform="translate(20.9144 21.997) rotate(-168.558) scale(6.5816 8.19596)">
<stop stop-color="#FFDA2F"/>
<stop offset="0.352487" stop-color="#FFC634"/>
<stop offset="1" stop-color="#FF8E41"/>
</radialGradient>
<radialGradient id="paint31_radial_784_3978" cx="0" cy="0" r="1" gradientUnits="userSpaceOnUse" gradientTransform="translate(19.9461 20.7855) rotate(-174.878) scale(6.7465 16.5184)">
<stop offset="0.627719" stop-color="#D7812D" stop-opacity="0"/>
<stop offset="0.728983" stop-color="#D7812D" stop-opacity="0.137125"/>
<stop offset="0.855913" stop-color="#D7812D" stop-opacity="0.404199"/>
<stop offset="1" stop-color="#D7812D"/>
</radialGradient>
<radialGradient id="paint32_radial_784_3978" cx="0" cy="0" r="1" gradientUnits="userSpaceOnUse" gradientTransform="translate(24.5863 24.7166) rotate(-135.822) scale(13.173 15.5335)">
<stop stop-color="#D7812D" stop-opacity="0"/>
<stop offset="0.688904" stop-color="#D7812D" stop-opacity="0"/>
<stop offset="0.767023" stop-color="#D7812D" stop-opacity="0.103983"/>
<stop offset="0.837368" stop-color="#D7812D" stop-opacity="0.404199"/>
<stop offset="0.951078" stop-color="#D7812D"/>
</radialGradient>
<radialGradient id="paint33_radial_784_3978" cx="0" cy="0" r="1" gradientUnits="userSpaceOnUse" gradientTransform="translate(15.1372 11.639) rotate(69.0442) scale(9.28102 8.06396)">
<stop offset="0.152609" stop-color="#FD5639"/>
<stop offset="0.835743" stop-color="#FE5534" stop-opacity="0.0858814"/>
<stop offset="1" stop-color="#FE5533" stop-opacity="0"/>
</radialGradient>
<linearGradient id="paint34_linear_784_3978" x1="17.8287" y1="12.9644" x2="17.8287" y2="15.3579" gradientUnits="userSpaceOnUse">
<stop stop-color="#F95131"/>
<stop offset="1" stop-color="#F95131" stop-opacity="0"/>
</linearGradient>
<radialGradient id="paint35_radial_784_3978" cx="0" cy="0" r="1" gradientUnits="userSpaceOnUse" gradientTransform="translate(22.0832 18.3392) rotate(143.063) scale(10.5358 7.62392)">
<stop offset="0.725303" stop-color="#F18A52" stop-opacity="0"/>
<stop offset="0.816284" stop-color="#F18A52" stop-opacity="0.230883"/>
<stop offset="1" stop-color="#F18A52"/>
</radialGradient>
<radialGradient id="paint36_radial_784_3978" cx="0" cy="0" r="1" gradientUnits="userSpaceOnUse" gradientTransform="translate(22.8331 21.0105) rotate(-148.858) scale(9.04349 14.8947)">
<stop stop-color="#F39D5D" stop-opacity="0"/>
<stop offset="0.928937" stop-color="#F39D5D" stop-opacity="0"/>
<stop offset="0.938719" stop-color="#F39D5D" stop-opacity="0.0581965"/>
<stop offset="0.950197" stop-color="#F39D5D" stop-opacity="0.180239"/>
<stop offset="0.983595" stop-color="#F39D5D"/>
</radialGradient>
<radialGradient id="paint37_radial_784_3978" cx="0" cy="0" r="1" gradientUnits="userSpaceOnUse" gradientTransform="translate(24.5531 21.4921) rotate(-178.108) scale(11.4614 11.6164)">
<stop stop-color="#F39D5D" stop-opacity="0"/>
<stop offset="0.939537" stop-color="#F39D5D" stop-opacity="0"/>
<stop offset="0.951154" stop-color="#F39D5D" stop-opacity="0.0581965"/>
<stop offset="0.96296" stop-color="#F39D5D" stop-opacity="0.180239"/>
<stop offset="0.980969" stop-color="#F39D5D"/>
</radialGradient>
</defs>
</svg>
