<svg width="774" height="313" viewBox="0 0 774 313" fill="none" xmlns="http://www.w3.org/2000/svg">
<g clip-path="url(#clip0_2698_4618)">
<path d="M364.921 105.868C353.636 122.639 323.984 111.326 247.965 111.033C179.772 110.767 140.618 111.139 118.659 137.307C102.982 155.994 99.7878 183.227 106.282 204.283C116.61 237.718 151.319 255.527 175.327 258.562C181.955 259.387 190.712 259.467 203.142 259.6C237.212 259.919 244.159 256.565 246.422 260.452C252.251 270.514 218.074 312.388 178.415 313C172.905 313.08 168.7 311.962 165.931 311.27C134.63 303.31 108.838 279.059 82.5931 250.309C82.5931 250.309 11.552 172.552 1.35759 119.871C1.06481 118.353 0.851868 117.049 0.851868 117.049C-3.24717 87.8998 8.43776 64.4208 12.0045 57.4463C15.0388 51.5366 35.6937 12.8309 80.517 2.82173C87.4641 1.27776 110.009 -3.46063 134.097 5.90967C157.707 15.0936 158.319 30.0542 175.301 33.222C198.298 37.4812 206.523 12.6978 238.144 3.32752C272.613 -6.89463 314.189 7.32054 339.129 33.222C356.989 51.723 377.245 87.5538 364.921 105.868Z" fill="white"/>
<path d="M147.086 204.043V161.451H182.328V204.043H169.631V170.608H159.809V204.043H147.086Z" fill="white"/>
<path d="M200.241 190.866L184.058 161.451H198.537L206.017 177.956L212.192 161.451H223.717L211.18 192.49C210.063 195.285 208.785 197.548 207.321 199.225C205.857 200.902 204.287 202.127 202.557 202.899C200.826 203.671 198.644 204.043 196.009 204.043H189.434V194.567H193.799C197.473 194.567 199.602 193.342 200.241 190.866Z" fill="white"/>
<path d="M261.673 161.451V204.043H248.604V187.486H238.623V204.043H225.554V161.451H238.623V177.104H248.604V161.451H261.673Z" fill="white"/>
<path d="M307.455 204.043H293.161L285.788 187.965L281.37 194.221V204.043H269.046V161.451H281.37V179.047L293.108 161.451H304.846L294.093 177.024L307.455 204.043Z" fill="white"/>
<path d="M328.456 171.647V204.017H316.079V171.647H307.242V161.451H337.292V171.647H328.456Z" fill="white"/>
<path d="M403.25 161.451V204.043H391.112V173.59L383.234 204.043H374.929L366.731 173.59V204.043H356.936V161.451H374.024L380.199 184.078L386.082 161.451H403.25Z" fill="white"/>
<path d="M423.372 199.545V204.043H410.676V161.451H423.372V178.515C423.372 180.777 423.239 183.493 423 186.607C424.57 183.2 426.114 180.192 427.658 177.556L434.392 166.003V161.451H447.088V204.043H434.392V187.14C434.392 184.717 434.498 182.029 434.738 179.074C433.487 181.949 431.943 184.957 430.08 188.098L423.372 199.545Z" fill="white"/>
<path d="M459.705 204.043H449.271L462.739 161.451H476.607L489.862 204.043H476.953L468.409 173.723L459.705 204.043Z" fill="white"/>
<path d="M510.703 204.683C504.714 204.683 499.843 202.686 496.064 198.72C492.284 194.753 490.394 189.429 490.394 182.774C490.394 176.412 492.204 171.141 495.798 167.015C499.417 162.863 504.422 160.786 510.81 160.786C516.745 160.786 521.563 162.729 525.289 166.643C529.016 170.556 530.879 175.773 530.879 182.295C530.879 189.057 528.989 194.461 525.236 198.56C521.483 202.66 516.639 204.683 510.703 204.683ZM510.65 195.02C512.859 195.02 514.43 194.061 515.414 192.145C516.399 190.228 516.852 186.714 516.852 181.576C516.852 174.176 514.855 170.476 510.889 170.476C506.604 170.476 504.475 174.708 504.475 183.147C504.475 191.053 506.524 195.02 510.65 195.02Z" fill="white"/>
<path d="M559.865 187.779L571.816 188.498C571.257 193.715 569.314 197.708 566.04 200.503C562.74 203.299 558.694 204.683 553.903 204.683C548.127 204.683 543.442 202.766 539.902 198.933C536.362 195.1 534.579 189.829 534.579 183.094C534.579 176.412 536.256 171.035 539.636 166.935C543.017 162.836 547.701 160.786 553.743 160.786C559.386 160.786 563.698 162.357 566.732 165.471C569.767 168.586 571.47 172.739 571.87 177.876L559.679 178.542C559.679 175.693 559.12 173.644 558.029 172.366C556.937 171.088 555.66 170.476 554.169 170.476C550.043 170.476 547.994 174.602 547.994 182.881C547.994 187.513 548.526 190.681 549.591 192.331C550.656 193.981 552.173 194.833 554.089 194.833C557.523 194.833 559.439 192.491 559.865 187.779Z" fill="white"/>
<path d="M608.628 193.875V204.043H576.581V161.451H608.628V171.274H589.41V177.45H604.954V186.9H589.41V193.848H608.628V193.875Z" fill="white"/>
<path d="M627.047 188.577V204.043H613.792V161.451H631.971C636.496 161.451 639.956 161.984 642.298 163.022C644.641 164.06 646.531 165.657 647.915 167.787C649.299 169.916 649.991 172.339 649.991 175.001C649.991 179.047 648.58 182.321 645.759 184.824C642.937 187.326 639.158 188.577 634.446 188.577H627.047ZM626.86 179.42H631.226C635.085 179.42 637.002 178.009 637.002 175.187C637.002 172.525 635.218 171.194 631.678 171.194H626.887V179.42H626.86Z" fill="white"/>
<path d="M652.12 194.567L661.729 161.479H677.38L686.749 194.567H691.407V213.015H683.209L682.144 204.071H656.725L655.634 213.015H647.436V194.567H652.12ZM662.315 194.567H674.106L668.916 171.275H668.303L662.315 194.567Z" fill="white"/>
<path d="M706.659 199.545V204.043H693.962V161.451H706.659V178.515C706.659 180.777 706.526 183.493 706.286 186.607C707.857 183.2 709.4 180.192 710.944 177.556L717.678 166.003V161.451H730.375V204.043H717.678V187.14C717.678 184.717 717.785 182.029 718.024 179.074C716.773 181.949 715.23 184.957 713.366 188.098L706.659 199.545Z" fill="white"/>
<path d="M760.931 187.753H754.729L748.048 204.044H735.698L745.094 186.129C739.238 183.893 736.31 180.006 736.31 174.469C736.31 170.21 737.694 166.962 740.462 164.779C743.231 162.597 747.01 161.479 751.775 161.479H774.027V204.071H760.958V187.753H760.931ZM760.931 170.503H755.794C753.265 170.503 751.642 170.929 750.95 171.754C750.258 172.579 749.912 173.537 749.912 174.549C749.912 176.013 750.417 177.051 751.429 177.69C752.44 178.329 754.037 178.649 756.22 178.649H760.931V170.503Z" fill="white"/>
</g>
<defs>
<clipPath id="clip0_2698_4618">
<rect width="774" height="313" fill="white"/>
</clipPath>
</defs>
</svg>
