<svg width="68" height="63" viewBox="0 0 68 63" fill="none" xmlns="http://www.w3.org/2000/svg">
<rect y="0.5" width="68" height="62" rx="6" fill="white"/>
<path d="M43.375 16.2115C43.375 16.2115 44.6311 14.3649 46.2805 14.0873C50.3533 13.4114 52.0281 16.8029 51.3557 19.3255C50.1503 23.8153 43.375 27.75 43.375 27.75C43.375 27.75 36.5997 23.8153 35.3943 19.3255C34.7219 16.8029 36.3967 13.4114 40.4695 14.0873C42.1062 14.3649 43.375 16.2115 43.375 16.2115Z" fill="#F92F60"/>
<path d="M29.0075 30.1176C29.0075 30.1176 30.9551 27.099 33.4896 26.6443C39.757 25.5328 42.3289 31.0775 41.2677 35.2077C39.4075 42.5712 28.995 49 28.995 49C28.995 49 18.5825 42.5585 16.7223 35.2077C15.686 31.0775 18.2704 25.5328 24.5254 26.6443C27.0598 27.099 29.0075 30.1176 29.0075 30.1176Z" fill="#F92F60"/>
</svg>
