<svg width="31" height="34" viewBox="0 0 31 34" fill="none" xmlns="http://www.w3.org/2000/svg">
<path d="M10.6197 5.30743C10.6197 2.95487 12.6011 1.04736 15.0433 1.04736C17.4866 1.04736 19.4656 2.95487 19.4656 5.30743C19.4656 7.66149 17.4866 9.56875 15.0433 9.56875C12.6011 9.56875 10.6197 7.66149 10.6197 5.30743ZM10.6197 29.7538V20.3793C7.64601 19.7281 4.8454 18.4245 2.45351 16.5558L2.14781 16.3074C1.44609 15.7212 1 14.8567 1 13.8918C1 12.1274 2.48257 10.6994 4.31262 10.6994C5.11399 10.6994 5.84917 10.9746 6.42139 11.4289C8.82885 13.3907 11.8996 14.4684 15.0599 14.4684C18.2072 14.4684 21.265 13.3959 23.6748 11.4549C24.2527 10.9838 24.9988 10.6994 25.8121 10.6994C27.6424 10.6994 29.125 12.1274 29.125 13.8918C29.125 14.8759 28.6644 15.754 27.9375 16.3404C27.8464 16.4137 27.7551 16.4847 27.6642 16.5558C25.264 18.4313 22.4536 19.7374 19.4656 20.3873L19.4646 29.7538C19.4641 31.5203 18.032 32.9523 16.2654 32.9526H13.8186C12.0519 32.9526 10.6197 31.5204 10.6197 29.7538Z" stroke="white" stroke-width="1.875" stroke-linecap="square"/>
</svg>
