<svg width="85" height="53" viewBox="0 0 85 53" fill="none" xmlns="http://www.w3.org/2000/svg">
<rect y="0.5" width="84.31" height="52" rx="6" fill="white"/>
<path d="M42.1539 40.4978C51.4883 40.4978 56.1528 34.2303 56.1528 26.4989C56.1528 18.7675 51.4883 12.5 42.1539 12.5C32.8194 12.5 28.155 18.7675 28.155 26.4989C28.155 34.2303 32.8194 40.4978 42.1539 40.4978Z" fill="#FFB02E"/>
<path d="M35.1366 21.6909C35.1846 21.4436 35.2947 21.1405 35.504 20.9125C35.6833 20.7171 36.002 20.5 36.6549 20.5C37.2967 20.5 37.6235 20.7216 37.8122 20.9288C38.0303 21.1683 38.1354 21.4737 38.1697 21.6711C38.2642 22.2152 38.7819 22.5797 39.326 22.4853C39.8702 22.3908 40.2347 21.873 40.1402 21.3289C40.0612 20.874 39.8349 20.1794 39.2907 19.582C38.717 18.9522 37.8505 18.5 36.6549 18.5C35.4706 18.5 34.6077 18.9313 34.0305 19.5601C33.4833 20.1564 33.262 20.8533 33.1733 21.3091C33.0679 21.8513 33.4219 22.3762 33.9641 22.4816C34.5062 22.587 35.0311 22.233 35.1366 21.6909Z" fill="#402A32"/>
<path d="M46.1368 21.6909C46.1849 21.4436 46.2949 21.1405 46.5042 20.9125C46.6835 20.7171 47.0022 20.5 47.6552 20.5C48.2969 20.5 48.6237 20.7216 48.8124 20.9288C49.0306 21.1683 49.1356 21.4737 49.1699 21.6711C49.2644 22.2152 49.7821 22.5797 50.3263 22.4853C50.8704 22.3908 51.2349 21.873 51.1404 21.3289C51.0614 20.874 50.8352 20.1794 50.2909 19.582C49.7173 18.9522 48.8507 18.5 47.6552 18.5C46.4709 18.5 45.6079 18.9313 45.0308 19.5601C44.4835 20.1564 44.2622 20.8533 44.1736 21.3091C44.0682 21.8513 44.4222 22.3762 44.9643 22.4816C45.5064 22.587 46.0314 22.233 46.1368 21.6909Z" fill="#402A32"/>
<path d="M42.155 35.5C33.155 35.5 33.155 26.5 33.155 26.5H51.155C51.155 26.5 51.155 35.5 42.155 35.5Z" fill="#BB1D80"/>
<path d="M34.155 27V26.5H50.155V27C50.155 27.5523 49.7073 28 49.155 28H35.155C34.6027 28 34.155 27.5523 34.155 27Z" fill="white"/>
</svg>
