<svg width="35" height="33" viewBox="0 0 35 33" fill="none" xmlns="http://www.w3.org/2000/svg">
<rect y="0.5" width="35" height="32" rx="6" fill="white"/>
<path d="M17.3824 13.2882C17.2706 13.7225 16.8909 14.0465 16.442 14.2709C15.1695 14.7111 14.1645 15.1347 13.3328 15.5458C12.5965 15.9098 12.6036 17.0599 13.3423 17.419C14.2053 17.8386 15.2889 18.241 16.4923 18.7181C16.8159 18.8463 17.2731 19.2087 17.387 19.6542C17.7378 21.0268 18.215 22.48 18.7405 23.8215C19.1484 24.8629 20.157 24.8621 20.5669 23.8215C21.099 22.4707 21.5033 21.0116 21.9596 19.6233C22.0688 19.1947 22.3921 18.8557 22.809 18.7081C23.9358 18.3089 25.022 17.8584 25.9074 17.4685C26.7341 17.1043 26.7512 15.922 25.9347 15.5352C25.0629 15.1222 23.9784 14.6439 22.8036 14.217C22.3901 14.0668 22.072 13.7497 21.9251 13.2996C21.4299 11.7831 21.1162 10.4973 20.5901 9.16207C20.1802 8.12149 19.104 8.15351 18.6941 9.1941C18.17 10.5244 17.8041 11.8486 17.3824 13.2882Z" fill="url(#paint0_linear_4089_1421)"/>
<path d="M17.3824 13.2882C17.2706 13.7225 16.8909 14.0465 16.442 14.2709C15.1695 14.7111 14.1645 15.1347 13.3328 15.5458C12.5965 15.9098 12.6036 17.0599 13.3423 17.419C14.2053 17.8386 15.2889 18.241 16.4923 18.7181C16.8159 18.8463 17.2731 19.2087 17.387 19.6542C17.7378 21.0268 18.215 22.48 18.7405 23.8215C19.1484 24.8629 20.157 24.8621 20.5669 23.8215C21.099 22.4707 21.5033 21.0116 21.9596 19.6233C22.0688 19.1947 22.3921 18.8557 22.809 18.7081C23.9358 18.3089 25.022 17.8584 25.9074 17.4685C26.7341 17.1043 26.7512 15.922 25.9347 15.5352C25.0629 15.1222 23.9784 14.6439 22.8036 14.217C22.3901 14.0668 22.072 13.7497 21.9251 13.2996C21.4299 11.7831 21.1162 10.4973 20.5901 9.16207C20.1802 8.12149 19.104 8.15351 18.6941 9.1941C18.17 10.5244 17.8041 11.8486 17.3824 13.2882Z" fill="url(#paint1_linear_4089_1421)"/>
<path d="M17.3824 13.2882C17.2706 13.7225 16.8909 14.0465 16.442 14.2709C15.1695 14.7111 14.1645 15.1347 13.3328 15.5458C12.5965 15.9098 12.6036 17.0599 13.3423 17.419C14.2053 17.8386 15.2889 18.241 16.4923 18.7181C16.8159 18.8463 17.2731 19.2087 17.387 19.6542C17.7378 21.0268 18.215 22.48 18.7405 23.8215C19.1484 24.8629 20.157 24.8621 20.5669 23.8215C21.099 22.4707 21.5033 21.0116 21.9596 19.6233C22.0688 19.1947 22.3921 18.8557 22.809 18.7081C23.9358 18.3089 25.022 17.8584 25.9074 17.4685C26.7341 17.1043 26.7512 15.922 25.9347 15.5352C25.0629 15.1222 23.9784 14.6439 22.8036 14.217C22.3901 14.0668 22.072 13.7497 21.9251 13.2996C21.4299 11.7831 21.1162 10.4973 20.5901 9.16207C20.1802 8.12149 19.104 8.15351 18.6941 9.1941C18.17 10.5244 17.8041 11.8486 17.3824 13.2882Z" fill="url(#paint2_radial_4089_1421)"/>
<path d="M17.3824 13.2882C17.2706 13.7225 16.8909 14.0465 16.442 14.2709C15.1695 14.7111 14.1645 15.1347 13.3328 15.5458C12.5965 15.9098 12.6036 17.0599 13.3423 17.419C14.2053 17.8386 15.2889 18.241 16.4923 18.7181C16.8159 18.8463 17.2731 19.2087 17.387 19.6542C17.7378 21.0268 18.215 22.48 18.7405 23.8215C19.1484 24.8629 20.157 24.8621 20.5669 23.8215C21.099 22.4707 21.5033 21.0116 21.9596 19.6233C22.0688 19.1947 22.3921 18.8557 22.809 18.7081C23.9358 18.3089 25.022 17.8584 25.9074 17.4685C26.7341 17.1043 26.7512 15.922 25.9347 15.5352C25.0629 15.1222 23.9784 14.6439 22.8036 14.217C22.3901 14.0668 22.072 13.7497 21.9251 13.2996C21.4299 11.7831 21.1162 10.4973 20.5901 9.16207C20.1802 8.12149 19.104 8.15351 18.6941 9.1941C18.17 10.5244 17.8041 11.8486 17.3824 13.2882Z" fill="url(#paint3_radial_4089_1421)"/>
<path d="M17.3824 13.2882C17.2706 13.7225 16.8909 14.0465 16.442 14.2709C15.1695 14.7111 14.1645 15.1347 13.3328 15.5458C12.5965 15.9098 12.6036 17.0599 13.3423 17.419C14.2053 17.8386 15.2889 18.241 16.4923 18.7181C16.8159 18.8463 17.2731 19.2087 17.387 19.6542C17.7378 21.0268 18.215 22.48 18.7405 23.8215C19.1484 24.8629 20.157 24.8621 20.5669 23.8215C21.099 22.4707 21.5033 21.0116 21.9596 19.6233C22.0688 19.1947 22.3921 18.8557 22.809 18.7081C23.9358 18.3089 25.022 17.8584 25.9074 17.4685C26.7341 17.1043 26.7512 15.922 25.9347 15.5352C25.0629 15.1222 23.9784 14.6439 22.8036 14.217C22.3901 14.0668 22.072 13.7497 21.9251 13.2996C21.4299 11.7831 21.1162 10.4973 20.5901 9.16207C20.1802 8.12149 19.104 8.15351 18.6941 9.1941C18.17 10.5244 17.8041 11.8486 17.3824 13.2882Z" fill="url(#paint4_radial_4089_1421)"/>
<path d="M17.3824 13.2882C17.2706 13.7225 16.8909 14.0465 16.442 14.2709C15.1695 14.7111 14.1645 15.1347 13.3328 15.5458C12.5965 15.9098 12.6036 17.0599 13.3423 17.419C14.2053 17.8386 15.2889 18.241 16.4923 18.7181C16.8159 18.8463 17.2731 19.2087 17.387 19.6542C17.7378 21.0268 18.215 22.48 18.7405 23.8215C19.1484 24.8629 20.157 24.8621 20.5669 23.8215C21.099 22.4707 21.5033 21.0116 21.9596 19.6233C22.0688 19.1947 22.3921 18.8557 22.809 18.7081C23.9358 18.3089 25.022 17.8584 25.9074 17.4685C26.7341 17.1043 26.7512 15.922 25.9347 15.5352C25.0629 15.1222 23.9784 14.6439 22.8036 14.217C22.3901 14.0668 22.072 13.7497 21.9251 13.2996C21.4299 11.7831 21.1162 10.4973 20.5901 9.16207C20.1802 8.12149 19.104 8.15351 18.6941 9.1941C18.17 10.5244 17.8041 11.8486 17.3824 13.2882Z" fill="url(#paint5_radial_4089_1421)"/>
<path d="M17.3824 13.2882C17.2706 13.7225 16.8909 14.0465 16.442 14.2709C15.1695 14.7111 14.1645 15.1347 13.3328 15.5458C12.5965 15.9098 12.6036 17.0599 13.3423 17.419C14.2053 17.8386 15.2889 18.241 16.4923 18.7181C16.8159 18.8463 17.2731 19.2087 17.387 19.6542C17.7378 21.0268 18.215 22.48 18.7405 23.8215C19.1484 24.8629 20.157 24.8621 20.5669 23.8215C21.099 22.4707 21.5033 21.0116 21.9596 19.6233C22.0688 19.1947 22.3921 18.8557 22.809 18.7081C23.9358 18.3089 25.022 17.8584 25.9074 17.4685C26.7341 17.1043 26.7512 15.922 25.9347 15.5352C25.0629 15.1222 23.9784 14.6439 22.8036 14.217C22.3901 14.0668 22.072 13.7497 21.9251 13.2996C21.4299 11.7831 21.1162 10.4973 20.5901 9.16207C20.1802 8.12149 19.104 8.15351 18.6941 9.1941C18.17 10.5244 17.8041 11.8486 17.3824 13.2882Z" fill="url(#paint6_radial_4089_1421)"/>
<path d="M17.3824 13.2882C17.2706 13.7225 16.8909 14.0465 16.442 14.2709C15.1695 14.7111 14.1645 15.1347 13.3328 15.5458C12.5965 15.9098 12.6036 17.0599 13.3423 17.419C14.2053 17.8386 15.2889 18.241 16.4923 18.7181C16.8159 18.8463 17.2731 19.2087 17.387 19.6542C17.7378 21.0268 18.215 22.48 18.7405 23.8215C19.1484 24.8629 20.157 24.8621 20.5669 23.8215C21.099 22.4707 21.5033 21.0116 21.9596 19.6233C22.0688 19.1947 22.3921 18.8557 22.809 18.7081C23.9358 18.3089 25.022 17.8584 25.9074 17.4685C26.7341 17.1043 26.7512 15.922 25.9347 15.5352C25.0629 15.1222 23.9784 14.6439 22.8036 14.217C22.3901 14.0668 22.072 13.7497 21.9251 13.2996C21.4299 11.7831 21.1162 10.4973 20.5901 9.16207C20.1802 8.12149 19.104 8.15351 18.6941 9.1941C18.17 10.5244 17.8041 11.8486 17.3824 13.2882Z" fill="url(#paint7_radial_4089_1421)"/>
<path d="M17.3824 13.2882C17.2706 13.7225 16.8909 14.0465 16.442 14.2709C15.1695 14.7111 14.1645 15.1347 13.3328 15.5458C12.5965 15.9098 12.6036 17.0599 13.3423 17.419C14.2053 17.8386 15.2889 18.241 16.4923 18.7181C16.8159 18.8463 17.2731 19.2087 17.387 19.6542C17.7378 21.0268 18.215 22.48 18.7405 23.8215C19.1484 24.8629 20.157 24.8621 20.5669 23.8215C21.099 22.4707 21.5033 21.0116 21.9596 19.6233C22.0688 19.1947 22.3921 18.8557 22.809 18.7081C23.9358 18.3089 25.022 17.8584 25.9074 17.4685C26.7341 17.1043 26.7512 15.922 25.9347 15.5352C25.0629 15.1222 23.9784 14.6439 22.8036 14.217C22.3901 14.0668 22.072 13.7497 21.9251 13.2996C21.4299 11.7831 21.1162 10.4973 20.5901 9.16207C20.1802 8.12149 19.104 8.15351 18.6941 9.1941C18.17 10.5244 17.8041 11.8486 17.3824 13.2882Z" fill="url(#paint8_radial_4089_1421)"/>
<path d="M17.3824 13.2882C17.2706 13.7225 16.8909 14.0465 16.442 14.2709C15.1695 14.7111 14.1645 15.1347 13.3328 15.5458C12.5965 15.9098 12.6036 17.0599 13.3423 17.419C14.2053 17.8386 15.2889 18.241 16.4923 18.7181C16.8159 18.8463 17.2731 19.2087 17.387 19.6542C17.7378 21.0268 18.215 22.48 18.7405 23.8215C19.1484 24.8629 20.157 24.8621 20.5669 23.8215C21.099 22.4707 21.5033 21.0116 21.9596 19.6233C22.0688 19.1947 22.3921 18.8557 22.809 18.7081C23.9358 18.3089 25.022 17.8584 25.9074 17.4685C26.7341 17.1043 26.7512 15.922 25.9347 15.5352C25.0629 15.1222 23.9784 14.6439 22.8036 14.217C22.3901 14.0668 22.072 13.7497 21.9251 13.2996C21.4299 11.7831 21.1162 10.4973 20.5901 9.16207C20.1802 8.12149 19.104 8.15351 18.6941 9.1941C18.17 10.5244 17.8041 11.8486 17.3824 13.2882Z" fill="url(#paint9_radial_4089_1421)"/>
<path d="M17.3824 13.2882C17.2706 13.7225 16.8909 14.0465 16.442 14.2709C15.1695 14.7111 14.1645 15.1347 13.3328 15.5458C12.5965 15.9098 12.6036 17.0599 13.3423 17.419C14.2053 17.8386 15.2889 18.241 16.4923 18.7181C16.8159 18.8463 17.2731 19.2087 17.387 19.6542C17.7378 21.0268 18.215 22.48 18.7405 23.8215C19.1484 24.8629 20.157 24.8621 20.5669 23.8215C21.099 22.4707 21.5033 21.0116 21.9596 19.6233C22.0688 19.1947 22.3921 18.8557 22.809 18.7081C23.9358 18.3089 25.022 17.8584 25.9074 17.4685C26.7341 17.1043 26.7512 15.922 25.9347 15.5352C25.0629 15.1222 23.9784 14.6439 22.8036 14.217C22.3901 14.0668 22.072 13.7497 21.9251 13.2996C21.4299 11.7831 21.1162 10.4973 20.5901 9.16207C20.1802 8.12149 19.104 8.15351 18.6941 9.1941C18.17 10.5244 17.8041 11.8486 17.3824 13.2882Z" fill="url(#paint10_radial_4089_1421)"/>
<path d="M17.3824 13.2882C17.2706 13.7225 16.8909 14.0465 16.442 14.2709C15.1695 14.7111 14.1645 15.1347 13.3328 15.5458C12.5965 15.9098 12.6036 17.0599 13.3423 17.419C14.2053 17.8386 15.2889 18.241 16.4923 18.7181C16.8159 18.8463 17.2731 19.2087 17.387 19.6542C17.7378 21.0268 18.215 22.48 18.7405 23.8215C19.1484 24.8629 20.157 24.8621 20.5669 23.8215C21.099 22.4707 21.5033 21.0116 21.9596 19.6233C22.0688 19.1947 22.3921 18.8557 22.809 18.7081C23.9358 18.3089 25.022 17.8584 25.9074 17.4685C26.7341 17.1043 26.7512 15.922 25.9347 15.5352C25.0629 15.1222 23.9784 14.6439 22.8036 14.217C22.3901 14.0668 22.072 13.7497 21.9251 13.2996C21.4299 11.7831 21.1162 10.4973 20.5901 9.16207C20.1802 8.12149 19.104 8.15351 18.6941 9.1941C18.17 10.5244 17.8041 11.8486 17.3824 13.2882Z" fill="url(#paint11_radial_4089_1421)"/>
<path d="M17.3824 13.2882C17.2706 13.7225 16.8909 14.0465 16.442 14.2709C15.1695 14.7111 14.1645 15.1347 13.3328 15.5458C12.5965 15.9098 12.6036 17.0599 13.3423 17.419C14.2053 17.8386 15.2889 18.241 16.4923 18.7181C16.8159 18.8463 17.2731 19.2087 17.387 19.6542C17.7378 21.0268 18.215 22.48 18.7405 23.8215C19.1484 24.8629 20.157 24.8621 20.5669 23.8215C21.099 22.4707 21.5033 21.0116 21.9596 19.6233C22.0688 19.1947 22.3921 18.8557 22.809 18.7081C23.9358 18.3089 25.022 17.8584 25.9074 17.4685C26.7341 17.1043 26.7512 15.922 25.9347 15.5352C25.0629 15.1222 23.9784 14.6439 22.8036 14.217C22.3901 14.0668 22.072 13.7497 21.9251 13.2996C21.4299 11.7831 21.1162 10.4973 20.5901 9.16207C20.1802 8.12149 19.104 8.15351 18.6941 9.1941C18.17 10.5244 17.8041 11.8486 17.3824 13.2882Z" fill="url(#paint12_radial_4089_1421)"/>
<path d="M17.3824 13.2882C17.2706 13.7225 16.8909 14.0465 16.442 14.2709C15.1695 14.7111 14.1645 15.1347 13.3328 15.5458C12.5965 15.9098 12.6036 17.0599 13.3423 17.419C14.2053 17.8386 15.2889 18.241 16.4923 18.7181C16.8159 18.8463 17.2731 19.2087 17.387 19.6542C17.7378 21.0268 18.215 22.48 18.7405 23.8215C19.1484 24.8629 20.157 24.8621 20.5669 23.8215C21.099 22.4707 21.5033 21.0116 21.9596 19.6233C22.0688 19.1947 22.3921 18.8557 22.809 18.7081C23.9358 18.3089 25.022 17.8584 25.9074 17.4685C26.7341 17.1043 26.7512 15.922 25.9347 15.5352C25.0629 15.1222 23.9784 14.6439 22.8036 14.217C22.3901 14.0668 22.072 13.7497 21.9251 13.2996C21.4299 11.7831 21.1162 10.4973 20.5901 9.16207C20.1802 8.12149 19.104 8.15351 18.6941 9.1941C18.17 10.5244 17.8041 11.8486 17.3824 13.2882Z" fill="url(#paint13_radial_4089_1421)"/>
<path d="M17.3824 13.2882C17.2706 13.7225 16.8909 14.0465 16.442 14.2709C15.1695 14.7111 14.1645 15.1347 13.3328 15.5458C12.5965 15.9098 12.6036 17.0599 13.3423 17.419C14.2053 17.8386 15.2889 18.241 16.4923 18.7181C16.8159 18.8463 17.2731 19.2087 17.387 19.6542C17.7378 21.0268 18.215 22.48 18.7405 23.8215C19.1484 24.8629 20.157 24.8621 20.5669 23.8215C21.099 22.4707 21.5033 21.0116 21.9596 19.6233C22.0688 19.1947 22.3921 18.8557 22.809 18.7081C23.9358 18.3089 25.022 17.8584 25.9074 17.4685C26.7341 17.1043 26.7512 15.922 25.9347 15.5352C25.0629 15.1222 23.9784 14.6439 22.8036 14.217C22.3901 14.0668 22.072 13.7497 21.9251 13.2996C21.4299 11.7831 21.1162 10.4973 20.5901 9.16207C20.1802 8.12149 19.104 8.15351 18.6941 9.1941C18.17 10.5244 17.8041 11.8486 17.3824 13.2882Z" fill="url(#paint14_radial_4089_1421)"/>
<path d="M17.3824 13.2882C17.2706 13.7225 16.8909 14.0465 16.442 14.2709C15.1695 14.7111 14.1645 15.1347 13.3328 15.5458C12.5965 15.9098 12.6036 17.0599 13.3423 17.419C14.2053 17.8386 15.2889 18.241 16.4923 18.7181C16.8159 18.8463 17.2731 19.2087 17.387 19.6542C17.7378 21.0268 18.215 22.48 18.7405 23.8215C19.1484 24.8629 20.157 24.8621 20.5669 23.8215C21.099 22.4707 21.5033 21.0116 21.9596 19.6233C22.0688 19.1947 22.3921 18.8557 22.809 18.7081C23.9358 18.3089 25.022 17.8584 25.9074 17.4685C26.7341 17.1043 26.7512 15.922 25.9347 15.5352C25.0629 15.1222 23.9784 14.6439 22.8036 14.217C22.3901 14.0668 22.072 13.7497 21.9251 13.2996C21.4299 11.7831 21.1162 10.4973 20.5901 9.16207C20.1802 8.12149 19.104 8.15351 18.6941 9.1941C18.17 10.5244 17.8041 11.8486 17.3824 13.2882Z" fill="url(#paint15_radial_4089_1421)"/>
<path d="M17.3824 13.2882C17.2706 13.7225 16.8909 14.0465 16.442 14.2709C15.1695 14.7111 14.1645 15.1347 13.3328 15.5458C12.5965 15.9098 12.6036 17.0599 13.3423 17.419C14.2053 17.8386 15.2889 18.241 16.4923 18.7181C16.8159 18.8463 17.2731 19.2087 17.387 19.6542C17.7378 21.0268 18.215 22.48 18.7405 23.8215C19.1484 24.8629 20.157 24.8621 20.5669 23.8215C21.099 22.4707 21.5033 21.0116 21.9596 19.6233C22.0688 19.1947 22.3921 18.8557 22.809 18.7081C23.9358 18.3089 25.022 17.8584 25.9074 17.4685C26.7341 17.1043 26.7512 15.922 25.9347 15.5352C25.0629 15.1222 23.9784 14.6439 22.8036 14.217C22.3901 14.0668 22.072 13.7497 21.9251 13.2996C21.4299 11.7831 21.1162 10.4973 20.5901 9.16207C20.1802 8.12149 19.104 8.15351 18.6941 9.1941C18.17 10.5244 17.8041 11.8486 17.3824 13.2882Z" fill="url(#paint16_radial_4089_1421)" fill-opacity="0.8"/>
<path d="M17.3824 13.2882C17.2706 13.7225 16.8909 14.0465 16.442 14.2709C15.1695 14.7111 14.1645 15.1347 13.3328 15.5458C12.5965 15.9098 12.6036 17.0599 13.3423 17.419C14.2053 17.8386 15.2889 18.241 16.4923 18.7181C16.8159 18.8463 17.2731 19.2087 17.387 19.6542C17.7378 21.0268 18.215 22.48 18.7405 23.8215C19.1484 24.8629 20.157 24.8621 20.5669 23.8215C21.099 22.4707 21.5033 21.0116 21.9596 19.6233C22.0688 19.1947 22.3921 18.8557 22.809 18.7081C23.9358 18.3089 25.022 17.8584 25.9074 17.4685C26.7341 17.1043 26.7512 15.922 25.9347 15.5352C25.0629 15.1222 23.9784 14.6439 22.8036 14.217C22.3901 14.0668 22.072 13.7497 21.9251 13.2996C21.4299 11.7831 21.1162 10.4973 20.5901 9.16207C20.1802 8.12149 19.104 8.15351 18.6941 9.1941C18.17 10.5244 17.8041 11.8486 17.3824 13.2882Z" fill="url(#paint17_radial_4089_1421)" fill-opacity="0.8"/>
<path d="M17.3824 13.2882C17.2706 13.7225 16.8909 14.0465 16.442 14.2709C15.1695 14.7111 14.1645 15.1347 13.3328 15.5458C12.5965 15.9098 12.6036 17.0599 13.3423 17.419C14.2053 17.8386 15.2889 18.241 16.4923 18.7181C16.8159 18.8463 17.2731 19.2087 17.387 19.6542C17.7378 21.0268 18.215 22.48 18.7405 23.8215C19.1484 24.8629 20.157 24.8621 20.5669 23.8215C21.099 22.4707 21.5033 21.0116 21.9596 19.6233C22.0688 19.1947 22.3921 18.8557 22.809 18.7081C23.9358 18.3089 25.022 17.8584 25.9074 17.4685C26.7341 17.1043 26.7512 15.922 25.9347 15.5352C25.0629 15.1222 23.9784 14.6439 22.8036 14.217C22.3901 14.0668 22.072 13.7497 21.9251 13.2996C21.4299 11.7831 21.1162 10.4973 20.5901 9.16207C20.1802 8.12149 19.104 8.15351 18.6941 9.1941C18.17 10.5244 17.8041 11.8486 17.3824 13.2882Z" fill="url(#paint18_radial_4089_1421)" fill-opacity="0.8"/>
<path d="M17.3824 13.2882C17.2706 13.7225 16.8909 14.0465 16.442 14.2709C15.1695 14.7111 14.1645 15.1347 13.3328 15.5458C12.5965 15.9098 12.6036 17.0599 13.3423 17.419C14.2053 17.8386 15.2889 18.241 16.4923 18.7181C16.8159 18.8463 17.2731 19.2087 17.387 19.6542C17.7378 21.0268 18.215 22.48 18.7405 23.8215C19.1484 24.8629 20.157 24.8621 20.5669 23.8215C21.099 22.4707 21.5033 21.0116 21.9596 19.6233C22.0688 19.1947 22.3921 18.8557 22.809 18.7081C23.9358 18.3089 25.022 17.8584 25.9074 17.4685C26.7341 17.1043 26.7512 15.922 25.9347 15.5352C25.0629 15.1222 23.9784 14.6439 22.8036 14.217C22.3901 14.0668 22.072 13.7497 21.9251 13.2996C21.4299 11.7831 21.1162 10.4973 20.5901 9.16207C20.1802 8.12149 19.104 8.15351 18.6941 9.1941C18.17 10.5244 17.8041 11.8486 17.3824 13.2882Z" fill="url(#paint19_radial_4089_1421)" fill-opacity="0.8"/>
<path d="M17.3824 13.2882C17.2706 13.7225 16.8909 14.0465 16.442 14.2709C15.1695 14.7111 14.1645 15.1347 13.3328 15.5458C12.5965 15.9098 12.6036 17.0599 13.3423 17.419C14.2053 17.8386 15.2889 18.241 16.4923 18.7181C16.8159 18.8463 17.2731 19.2087 17.387 19.6542C17.7378 21.0268 18.215 22.48 18.7405 23.8215C19.1484 24.8629 20.157 24.8621 20.5669 23.8215C21.099 22.4707 21.5033 21.0116 21.9596 19.6233C22.0688 19.1947 22.3921 18.8557 22.809 18.7081C23.9358 18.3089 25.022 17.8584 25.9074 17.4685C26.7341 17.1043 26.7512 15.922 25.9347 15.5352C25.0629 15.1222 23.9784 14.6439 22.8036 14.217C22.3901 14.0668 22.072 13.7497 21.9251 13.2996C21.4299 11.7831 21.1162 10.4973 20.5901 9.16207C20.1802 8.12149 19.104 8.15351 18.6941 9.1941C18.17 10.5244 17.8041 11.8486 17.3824 13.2882Z" fill="url(#paint20_radial_4089_1421)" fill-opacity="0.8"/>
<path d="M17.3824 13.2882C17.2706 13.7225 16.8909 14.0465 16.442 14.2709C15.1695 14.7111 14.1645 15.1347 13.3328 15.5458C12.5965 15.9098 12.6036 17.0599 13.3423 17.419C14.2053 17.8386 15.2889 18.241 16.4923 18.7181C16.8159 18.8463 17.2731 19.2087 17.387 19.6542C17.7378 21.0268 18.215 22.48 18.7405 23.8215C19.1484 24.8629 20.157 24.8621 20.5669 23.8215C21.099 22.4707 21.5033 21.0116 21.9596 19.6233C22.0688 19.1947 22.3921 18.8557 22.809 18.7081C23.9358 18.3089 25.022 17.8584 25.9074 17.4685C26.7341 17.1043 26.7512 15.922 25.9347 15.5352C25.0629 15.1222 23.9784 14.6439 22.8036 14.217C22.3901 14.0668 22.072 13.7497 21.9251 13.2996C21.4299 11.7831 21.1162 10.4973 20.5901 9.16207C20.1802 8.12149 19.104 8.15351 18.6941 9.1941C18.17 10.5244 17.8041 11.8486 17.3824 13.2882Z" fill="url(#paint21_radial_4089_1421)" fill-opacity="0.8"/>
<path d="M17.3824 13.2882C17.2706 13.7225 16.8909 14.0465 16.442 14.2709C15.1695 14.7111 14.1645 15.1347 13.3328 15.5458C12.5965 15.9098 12.6036 17.0599 13.3423 17.419C14.2053 17.8386 15.2889 18.241 16.4923 18.7181C16.8159 18.8463 17.2731 19.2087 17.387 19.6542C17.7378 21.0268 18.215 22.48 18.7405 23.8215C19.1484 24.8629 20.157 24.8621 20.5669 23.8215C21.099 22.4707 21.5033 21.0116 21.9596 19.6233C22.0688 19.1947 22.3921 18.8557 22.809 18.7081C23.9358 18.3089 25.022 17.8584 25.9074 17.4685C26.7341 17.1043 26.7512 15.922 25.9347 15.5352C25.0629 15.1222 23.9784 14.6439 22.8036 14.217C22.3901 14.0668 22.072 13.7497 21.9251 13.2996C21.4299 11.7831 21.1162 10.4973 20.5901 9.16207C20.1802 8.12149 19.104 8.15351 18.6941 9.1941C18.17 10.5244 17.8041 11.8486 17.3824 13.2882Z" fill="url(#paint22_radial_4089_1421)" fill-opacity="0.8"/>
<path d="M17.3824 13.2882C17.2706 13.7225 16.8909 14.0465 16.442 14.2709C15.1695 14.7111 14.1645 15.1347 13.3328 15.5458C12.5965 15.9098 12.6036 17.0599 13.3423 17.419C14.2053 17.8386 15.2889 18.241 16.4923 18.7181C16.8159 18.8463 17.2731 19.2087 17.387 19.6542C17.7378 21.0268 18.215 22.48 18.7405 23.8215C19.1484 24.8629 20.157 24.8621 20.5669 23.8215C21.099 22.4707 21.5033 21.0116 21.9596 19.6233C22.0688 19.1947 22.3921 18.8557 22.809 18.7081C23.9358 18.3089 25.022 17.8584 25.9074 17.4685C26.7341 17.1043 26.7512 15.922 25.9347 15.5352C25.0629 15.1222 23.9784 14.6439 22.8036 14.217C22.3901 14.0668 22.072 13.7497 21.9251 13.2996C21.4299 11.7831 21.1162 10.4973 20.5901 9.16207C20.1802 8.12149 19.104 8.15351 18.6941 9.1941C18.17 10.5244 17.8041 11.8486 17.3824 13.2882Z" fill="url(#paint23_radial_4089_1421)" fill-opacity="0.8"/>
<path d="M17.3824 13.2882C17.2706 13.7225 16.8909 14.0465 16.442 14.2709C15.1695 14.7111 14.1645 15.1347 13.3328 15.5458C12.5965 15.9098 12.6036 17.0599 13.3423 17.419C14.2053 17.8386 15.2889 18.241 16.4923 18.7181C16.8159 18.8463 17.2731 19.2087 17.387 19.6542C17.7378 21.0268 18.215 22.48 18.7405 23.8215C19.1484 24.8629 20.157 24.8621 20.5669 23.8215C21.099 22.4707 21.5033 21.0116 21.9596 19.6233C22.0688 19.1947 22.3921 18.8557 22.809 18.7081C23.9358 18.3089 25.022 17.8584 25.9074 17.4685C26.7341 17.1043 26.7512 15.922 25.9347 15.5352C25.0629 15.1222 23.9784 14.6439 22.8036 14.217C22.3901 14.0668 22.072 13.7497 21.9251 13.2996C21.4299 11.7831 21.1162 10.4973 20.5901 9.16207C20.1802 8.12149 19.104 8.15351 18.6941 9.1941C18.17 10.5244 17.8041 11.8486 17.3824 13.2882Z" fill="url(#paint24_radial_4089_1421)"/>
<path d="M17.3824 13.2882C17.2706 13.7225 16.8909 14.0465 16.442 14.2709C15.1695 14.7111 14.1645 15.1347 13.3328 15.5458C12.5965 15.9098 12.6036 17.0599 13.3423 17.419C14.2053 17.8386 15.2889 18.241 16.4923 18.7181C16.8159 18.8463 17.2731 19.2087 17.387 19.6542C17.7378 21.0268 18.215 22.48 18.7405 23.8215C19.1484 24.8629 20.157 24.8621 20.5669 23.8215C21.099 22.4707 21.5033 21.0116 21.9596 19.6233C22.0688 19.1947 22.3921 18.8557 22.809 18.7081C23.9358 18.3089 25.022 17.8584 25.9074 17.4685C26.7341 17.1043 26.7512 15.922 25.9347 15.5352C25.0629 15.1222 23.9784 14.6439 22.8036 14.217C22.3901 14.0668 22.072 13.7497 21.9251 13.2996C21.4299 11.7831 21.1162 10.4973 20.5901 9.16207C20.1802 8.12149 19.104 8.15351 18.6941 9.1941C18.17 10.5244 17.8041 11.8486 17.3824 13.2882Z" fill="url(#paint25_radial_4089_1421)"/>
<path d="M17.3824 13.2882C17.2706 13.7225 16.8909 14.0465 16.442 14.2709C15.1695 14.7111 14.1645 15.1347 13.3328 15.5458C12.5965 15.9098 12.6036 17.0599 13.3423 17.419C14.2053 17.8386 15.2889 18.241 16.4923 18.7181C16.8159 18.8463 17.2731 19.2087 17.387 19.6542C17.7378 21.0268 18.215 22.48 18.7405 23.8215C19.1484 24.8629 20.157 24.8621 20.5669 23.8215C21.099 22.4707 21.5033 21.0116 21.9596 19.6233C22.0688 19.1947 22.3921 18.8557 22.809 18.7081C23.9358 18.3089 25.022 17.8584 25.9074 17.4685C26.7341 17.1043 26.7512 15.922 25.9347 15.5352C25.0629 15.1222 23.9784 14.6439 22.8036 14.217C22.3901 14.0668 22.072 13.7497 21.9251 13.2996C21.4299 11.7831 21.1162 10.4973 20.5901 9.16207C20.1802 8.12149 19.104 8.15351 18.6941 9.1941C18.17 10.5244 17.8041 11.8486 17.3824 13.2882Z" fill="url(#paint26_radial_4089_1421)"/>
<path d="M17.3824 13.2882C17.2706 13.7225 16.8909 14.0465 16.442 14.2709C15.1695 14.7111 14.1645 15.1347 13.3328 15.5458C12.5965 15.9098 12.6036 17.0599 13.3423 17.419C14.2053 17.8386 15.2889 18.241 16.4923 18.7181C16.8159 18.8463 17.2731 19.2087 17.387 19.6542C17.7378 21.0268 18.215 22.48 18.7405 23.8215C19.1484 24.8629 20.157 24.8621 20.5669 23.8215C21.099 22.4707 21.5033 21.0116 21.9596 19.6233C22.0688 19.1947 22.3921 18.8557 22.809 18.7081C23.9358 18.3089 25.022 17.8584 25.9074 17.4685C26.7341 17.1043 26.7512 15.922 25.9347 15.5352C25.0629 15.1222 23.9784 14.6439 22.8036 14.217C22.3901 14.0668 22.072 13.7497 21.9251 13.2996C21.4299 11.7831 21.1162 10.4973 20.5901 9.16207C20.1802 8.12149 19.104 8.15351 18.6941 9.1941C18.17 10.5244 17.8041 11.8486 17.3824 13.2882Z" fill="url(#paint27_radial_4089_1421)"/>
<path d="M17.3824 13.2882C17.2706 13.7225 16.8909 14.0465 16.442 14.2709C15.1695 14.7111 14.1645 15.1347 13.3328 15.5458C12.5965 15.9098 12.6036 17.0599 13.3423 17.419C14.2053 17.8386 15.2889 18.241 16.4923 18.7181C16.8159 18.8463 17.2731 19.2087 17.387 19.6542C17.7378 21.0268 18.215 22.48 18.7405 23.8215C19.1484 24.8629 20.157 24.8621 20.5669 23.8215C21.099 22.4707 21.5033 21.0116 21.9596 19.6233C22.0688 19.1947 22.3921 18.8557 22.809 18.7081C23.9358 18.3089 25.022 17.8584 25.9074 17.4685C26.7341 17.1043 26.7512 15.922 25.9347 15.5352C25.0629 15.1222 23.9784 14.6439 22.8036 14.217C22.3901 14.0668 22.072 13.7497 21.9251 13.2996C21.4299 11.7831 21.1162 10.4973 20.5901 9.16207C20.1802 8.12149 19.104 8.15351 18.6941 9.1941C18.17 10.5244 17.8041 11.8486 17.3824 13.2882Z" fill="url(#paint28_radial_4089_1421)"/>
<path d="M17.3824 13.2882C17.2706 13.7225 16.8909 14.0465 16.442 14.2709C15.1695 14.7111 14.1645 15.1347 13.3328 15.5458C12.5965 15.9098 12.6036 17.0599 13.3423 17.419C14.2053 17.8386 15.2889 18.241 16.4923 18.7181C16.8159 18.8463 17.2731 19.2087 17.387 19.6542C17.7378 21.0268 18.215 22.48 18.7405 23.8215C19.1484 24.8629 20.157 24.8621 20.5669 23.8215C21.099 22.4707 21.5033 21.0116 21.9596 19.6233C22.0688 19.1947 22.3921 18.8557 22.809 18.7081C23.9358 18.3089 25.022 17.8584 25.9074 17.4685C26.7341 17.1043 26.7512 15.922 25.9347 15.5352C25.0629 15.1222 23.9784 14.6439 22.8036 14.217C22.3901 14.0668 22.072 13.7497 21.9251 13.2996C21.4299 11.7831 21.1162 10.4973 20.5901 9.16207C20.1802 8.12149 19.104 8.15351 18.6941 9.1941C18.17 10.5244 17.8041 11.8486 17.3824 13.2882Z" fill="url(#paint29_radial_4089_1421)"/>
<path d="M11.8378 9.81727C11.8018 9.95706 11.6796 10.0613 11.5352 10.1336C11.1256 10.2753 10.8021 10.4116 10.5344 10.5439C10.2975 10.6611 10.2998 11.0312 10.5375 11.1468C10.8153 11.2819 11.164 11.4114 11.5514 11.5649C11.6555 11.6062 11.8027 11.7228 11.8393 11.8662C11.9522 12.308 12.1058 12.7757 12.2749 13.2075C12.4062 13.5427 12.7308 13.5424 12.8628 13.2075C13.0341 12.7727 13.1642 12.3031 13.311 11.8563C13.3462 11.7183 13.4502 11.6092 13.5844 11.5617C13.9471 11.4332 14.2967 11.2882 14.5816 11.1627C14.8478 11.0455 14.8532 10.665 14.5905 10.5405C14.3099 10.4076 13.9608 10.2536 13.5827 10.1162C13.4496 10.0679 13.3472 9.96583 13.2999 9.82097C13.1406 9.33285 13.0396 8.91902 12.8703 8.48926C12.7383 8.15434 12.3919 8.16465 12.26 8.49957C12.0913 8.92774 11.9735 9.35393 11.8378 9.81727Z" fill="url(#paint30_linear_4089_1421)"/>
<path d="M11.8378 9.81727C11.8018 9.95706 11.6796 10.0613 11.5352 10.1336C11.1256 10.2753 10.8021 10.4116 10.5344 10.5439C10.2975 10.6611 10.2998 11.0312 10.5375 11.1468C10.8153 11.2819 11.164 11.4114 11.5514 11.5649C11.6555 11.6062 11.8027 11.7228 11.8393 11.8662C11.9522 12.308 12.1058 12.7757 12.2749 13.2075C12.4062 13.5427 12.7308 13.5424 12.8628 13.2075C13.0341 12.7727 13.1642 12.3031 13.311 11.8563C13.3462 11.7183 13.4502 11.6092 13.5844 11.5617C13.9471 11.4332 14.2967 11.2882 14.5816 11.1627C14.8478 11.0455 14.8532 10.665 14.5905 10.5405C14.3099 10.4076 13.9608 10.2536 13.5827 10.1162C13.4496 10.0679 13.3472 9.96583 13.2999 9.82097C13.1406 9.33285 13.0396 8.91902 12.8703 8.48926C12.7383 8.15434 12.3919 8.16465 12.26 8.49957C12.0913 8.92774 11.9735 9.35393 11.8378 9.81727Z" fill="url(#paint31_linear_4089_1421)"/>
<path d="M11.8378 9.81727C11.8018 9.95706 11.6796 10.0613 11.5352 10.1336C11.1256 10.2753 10.8021 10.4116 10.5344 10.5439C10.2975 10.6611 10.2998 11.0312 10.5375 11.1468C10.8153 11.2819 11.164 11.4114 11.5514 11.5649C11.6555 11.6062 11.8027 11.7228 11.8393 11.8662C11.9522 12.308 12.1058 12.7757 12.2749 13.2075C12.4062 13.5427 12.7308 13.5424 12.8628 13.2075C13.0341 12.7727 13.1642 12.3031 13.311 11.8563C13.3462 11.7183 13.4502 11.6092 13.5844 11.5617C13.9471 11.4332 14.2967 11.2882 14.5816 11.1627C14.8478 11.0455 14.8532 10.665 14.5905 10.5405C14.3099 10.4076 13.9608 10.2536 13.5827 10.1162C13.4496 10.0679 13.3472 9.96583 13.2999 9.82097C13.1406 9.33285 13.0396 8.91902 12.8703 8.48926C12.7383 8.15434 12.3919 8.16465 12.26 8.49957C12.0913 8.92774 11.9735 9.35393 11.8378 9.81727Z" fill="url(#paint32_radial_4089_1421)"/>
<path d="M11.8378 9.81727C11.8018 9.95706 11.6796 10.0613 11.5352 10.1336C11.1256 10.2753 10.8021 10.4116 10.5344 10.5439C10.2975 10.6611 10.2998 11.0312 10.5375 11.1468C10.8153 11.2819 11.164 11.4114 11.5514 11.5649C11.6555 11.6062 11.8027 11.7228 11.8393 11.8662C11.9522 12.308 12.1058 12.7757 12.2749 13.2075C12.4062 13.5427 12.7308 13.5424 12.8628 13.2075C13.0341 12.7727 13.1642 12.3031 13.311 11.8563C13.3462 11.7183 13.4502 11.6092 13.5844 11.5617C13.9471 11.4332 14.2967 11.2882 14.5816 11.1627C14.8478 11.0455 14.8532 10.665 14.5905 10.5405C14.3099 10.4076 13.9608 10.2536 13.5827 10.1162C13.4496 10.0679 13.3472 9.96583 13.2999 9.82097C13.1406 9.33285 13.0396 8.91902 12.8703 8.48926C12.7383 8.15434 12.3919 8.16465 12.26 8.49957C12.0913 8.92774 11.9735 9.35393 11.8378 9.81727Z" fill="url(#paint33_radial_4089_1421)"/>
<path d="M11.8378 9.81727C11.8018 9.95706 11.6796 10.0613 11.5352 10.1336C11.1256 10.2753 10.8021 10.4116 10.5344 10.5439C10.2975 10.6611 10.2998 11.0312 10.5375 11.1468C10.8153 11.2819 11.164 11.4114 11.5514 11.5649C11.6555 11.6062 11.8027 11.7228 11.8393 11.8662C11.9522 12.308 12.1058 12.7757 12.2749 13.2075C12.4062 13.5427 12.7308 13.5424 12.8628 13.2075C13.0341 12.7727 13.1642 12.3031 13.311 11.8563C13.3462 11.7183 13.4502 11.6092 13.5844 11.5617C13.9471 11.4332 14.2967 11.2882 14.5816 11.1627C14.8478 11.0455 14.8532 10.665 14.5905 10.5405C14.3099 10.4076 13.9608 10.2536 13.5827 10.1162C13.4496 10.0679 13.3472 9.96583 13.2999 9.82097C13.1406 9.33285 13.0396 8.91902 12.8703 8.48926C12.7383 8.15434 12.3919 8.16465 12.26 8.49957C12.0913 8.92774 11.9735 9.35393 11.8378 9.81727Z" fill="url(#paint34_radial_4089_1421)"/>
<path d="M11.8378 9.81727C11.8018 9.95706 11.6796 10.0613 11.5352 10.1336C11.1256 10.2753 10.8021 10.4116 10.5344 10.5439C10.2975 10.6611 10.2998 11.0312 10.5375 11.1468C10.8153 11.2819 11.164 11.4114 11.5514 11.5649C11.6555 11.6062 11.8027 11.7228 11.8393 11.8662C11.9522 12.308 12.1058 12.7757 12.2749 13.2075C12.4062 13.5427 12.7308 13.5424 12.8628 13.2075C13.0341 12.7727 13.1642 12.3031 13.311 11.8563C13.3462 11.7183 13.4502 11.6092 13.5844 11.5617C13.9471 11.4332 14.2967 11.2882 14.5816 11.1627C14.8478 11.0455 14.8532 10.665 14.5905 10.5405C14.3099 10.4076 13.9608 10.2536 13.5827 10.1162C13.4496 10.0679 13.3472 9.96583 13.2999 9.82097C13.1406 9.33285 13.0396 8.91902 12.8703 8.48926C12.7383 8.15434 12.3919 8.16465 12.26 8.49957C12.0913 8.92774 11.9735 9.35393 11.8378 9.81727Z" fill="url(#paint35_radial_4089_1421)"/>
<path d="M11.8378 9.81727C11.8018 9.95706 11.6796 10.0613 11.5352 10.1336C11.1256 10.2753 10.8021 10.4116 10.5344 10.5439C10.2975 10.6611 10.2998 11.0312 10.5375 11.1468C10.8153 11.2819 11.164 11.4114 11.5514 11.5649C11.6555 11.6062 11.8027 11.7228 11.8393 11.8662C11.9522 12.308 12.1058 12.7757 12.2749 13.2075C12.4062 13.5427 12.7308 13.5424 12.8628 13.2075C13.0341 12.7727 13.1642 12.3031 13.311 11.8563C13.3462 11.7183 13.4502 11.6092 13.5844 11.5617C13.9471 11.4332 14.2967 11.2882 14.5816 11.1627C14.8478 11.0455 14.8532 10.665 14.5905 10.5405C14.3099 10.4076 13.9608 10.2536 13.5827 10.1162C13.4496 10.0679 13.3472 9.96583 13.2999 9.82097C13.1406 9.33285 13.0396 8.91902 12.8703 8.48926C12.7383 8.15434 12.3919 8.16465 12.26 8.49957C12.0913 8.92774 11.9735 9.35393 11.8378 9.81727Z" fill="url(#paint36_radial_4089_1421)"/>
<path d="M11.8378 9.81727C11.8018 9.95706 11.6796 10.0613 11.5352 10.1336C11.1256 10.2753 10.8021 10.4116 10.5344 10.5439C10.2975 10.6611 10.2998 11.0312 10.5375 11.1468C10.8153 11.2819 11.164 11.4114 11.5514 11.5649C11.6555 11.6062 11.8027 11.7228 11.8393 11.8662C11.9522 12.308 12.1058 12.7757 12.2749 13.2075C12.4062 13.5427 12.7308 13.5424 12.8628 13.2075C13.0341 12.7727 13.1642 12.3031 13.311 11.8563C13.3462 11.7183 13.4502 11.6092 13.5844 11.5617C13.9471 11.4332 14.2967 11.2882 14.5816 11.1627C14.8478 11.0455 14.8532 10.665 14.5905 10.5405C14.3099 10.4076 13.9608 10.2536 13.5827 10.1162C13.4496 10.0679 13.3472 9.96583 13.2999 9.82097C13.1406 9.33285 13.0396 8.91902 12.8703 8.48926C12.7383 8.15434 12.3919 8.16465 12.26 8.49957C12.0913 8.92774 11.9735 9.35393 11.8378 9.81727Z" fill="url(#paint37_radial_4089_1421)"/>
<path d="M11.8378 9.81727C11.8018 9.95706 11.6796 10.0613 11.5352 10.1336C11.1256 10.2753 10.8021 10.4116 10.5344 10.5439C10.2975 10.6611 10.2998 11.0312 10.5375 11.1468C10.8153 11.2819 11.164 11.4114 11.5514 11.5649C11.6555 11.6062 11.8027 11.7228 11.8393 11.8662C11.9522 12.308 12.1058 12.7757 12.2749 13.2075C12.4062 13.5427 12.7308 13.5424 12.8628 13.2075C13.0341 12.7727 13.1642 12.3031 13.311 11.8563C13.3462 11.7183 13.4502 11.6092 13.5844 11.5617C13.9471 11.4332 14.2967 11.2882 14.5816 11.1627C14.8478 11.0455 14.8532 10.665 14.5905 10.5405C14.3099 10.4076 13.9608 10.2536 13.5827 10.1162C13.4496 10.0679 13.3472 9.96583 13.2999 9.82097C13.1406 9.33285 13.0396 8.91902 12.8703 8.48926C12.7383 8.15434 12.3919 8.16465 12.26 8.49957C12.0913 8.92774 11.9735 9.35393 11.8378 9.81727Z" fill="url(#paint38_radial_4089_1421)"/>
<path d="M11.8378 9.81727C11.8018 9.95706 11.6796 10.0613 11.5352 10.1336C11.1256 10.2753 10.8021 10.4116 10.5344 10.5439C10.2975 10.6611 10.2998 11.0312 10.5375 11.1468C10.8153 11.2819 11.164 11.4114 11.5514 11.5649C11.6555 11.6062 11.8027 11.7228 11.8393 11.8662C11.9522 12.308 12.1058 12.7757 12.2749 13.2075C12.4062 13.5427 12.7308 13.5424 12.8628 13.2075C13.0341 12.7727 13.1642 12.3031 13.311 11.8563C13.3462 11.7183 13.4502 11.6092 13.5844 11.5617C13.9471 11.4332 14.2967 11.2882 14.5816 11.1627C14.8478 11.0455 14.8532 10.665 14.5905 10.5405C14.3099 10.4076 13.9608 10.2536 13.5827 10.1162C13.4496 10.0679 13.3472 9.96583 13.2999 9.82097C13.1406 9.33285 13.0396 8.91902 12.8703 8.48926C12.7383 8.15434 12.3919 8.16465 12.26 8.49957C12.0913 8.92774 11.9735 9.35393 11.8378 9.81727Z" fill="url(#paint39_radial_4089_1421)"/>
<path d="M11.8378 9.81727C11.8018 9.95706 11.6796 10.0613 11.5352 10.1336C11.1256 10.2753 10.8021 10.4116 10.5344 10.5439C10.2975 10.6611 10.2998 11.0312 10.5375 11.1468C10.8153 11.2819 11.164 11.4114 11.5514 11.5649C11.6555 11.6062 11.8027 11.7228 11.8393 11.8662C11.9522 12.308 12.1058 12.7757 12.2749 13.2075C12.4062 13.5427 12.7308 13.5424 12.8628 13.2075C13.0341 12.7727 13.1642 12.3031 13.311 11.8563C13.3462 11.7183 13.4502 11.6092 13.5844 11.5617C13.9471 11.4332 14.2967 11.2882 14.5816 11.1627C14.8478 11.0455 14.8532 10.665 14.5905 10.5405C14.3099 10.4076 13.9608 10.2536 13.5827 10.1162C13.4496 10.0679 13.3472 9.96583 13.2999 9.82097C13.1406 9.33285 13.0396 8.91902 12.8703 8.48926C12.7383 8.15434 12.3919 8.16465 12.26 8.49957C12.0913 8.92774 11.9735 9.35393 11.8378 9.81727Z" fill="url(#paint40_radial_4089_1421)"/>
<path d="M11.8378 9.81727C11.8018 9.95706 11.6796 10.0613 11.5352 10.1336C11.1256 10.2753 10.8021 10.4116 10.5344 10.5439C10.2975 10.6611 10.2998 11.0312 10.5375 11.1468C10.8153 11.2819 11.164 11.4114 11.5514 11.5649C11.6555 11.6062 11.8027 11.7228 11.8393 11.8662C11.9522 12.308 12.1058 12.7757 12.2749 13.2075C12.4062 13.5427 12.7308 13.5424 12.8628 13.2075C13.0341 12.7727 13.1642 12.3031 13.311 11.8563C13.3462 11.7183 13.4502 11.6092 13.5844 11.5617C13.9471 11.4332 14.2967 11.2882 14.5816 11.1627C14.8478 11.0455 14.8532 10.665 14.5905 10.5405C14.3099 10.4076 13.9608 10.2536 13.5827 10.1162C13.4496 10.0679 13.3472 9.96583 13.2999 9.82097C13.1406 9.33285 13.0396 8.91902 12.8703 8.48926C12.7383 8.15434 12.3919 8.16465 12.26 8.49957C12.0913 8.92774 11.9735 9.35393 11.8378 9.81727Z" fill="url(#paint41_radial_4089_1421)"/>
<path d="M11.8378 9.81727C11.8018 9.95706 11.6796 10.0613 11.5352 10.1336C11.1256 10.2753 10.8021 10.4116 10.5344 10.5439C10.2975 10.6611 10.2998 11.0312 10.5375 11.1468C10.8153 11.2819 11.164 11.4114 11.5514 11.5649C11.6555 11.6062 11.8027 11.7228 11.8393 11.8662C11.9522 12.308 12.1058 12.7757 12.2749 13.2075C12.4062 13.5427 12.7308 13.5424 12.8628 13.2075C13.0341 12.7727 13.1642 12.3031 13.311 11.8563C13.3462 11.7183 13.4502 11.6092 13.5844 11.5617C13.9471 11.4332 14.2967 11.2882 14.5816 11.1627C14.8478 11.0455 14.8532 10.665 14.5905 10.5405C14.3099 10.4076 13.9608 10.2536 13.5827 10.1162C13.4496 10.0679 13.3472 9.96583 13.2999 9.82097C13.1406 9.33285 13.0396 8.91902 12.8703 8.48926C12.7383 8.15434 12.3919 8.16465 12.26 8.49957C12.0913 8.92774 11.9735 9.35393 11.8378 9.81727Z" fill="url(#paint42_radial_4089_1421)"/>
<path d="M11.8378 9.81727C11.8018 9.95706 11.6796 10.0613 11.5352 10.1336C11.1256 10.2753 10.8021 10.4116 10.5344 10.5439C10.2975 10.6611 10.2998 11.0312 10.5375 11.1468C10.8153 11.2819 11.164 11.4114 11.5514 11.5649C11.6555 11.6062 11.8027 11.7228 11.8393 11.8662C11.9522 12.308 12.1058 12.7757 12.2749 13.2075C12.4062 13.5427 12.7308 13.5424 12.8628 13.2075C13.0341 12.7727 13.1642 12.3031 13.311 11.8563C13.3462 11.7183 13.4502 11.6092 13.5844 11.5617C13.9471 11.4332 14.2967 11.2882 14.5816 11.1627C14.8478 11.0455 14.8532 10.665 14.5905 10.5405C14.3099 10.4076 13.9608 10.2536 13.5827 10.1162C13.4496 10.0679 13.3472 9.96583 13.2999 9.82097C13.1406 9.33285 13.0396 8.91902 12.8703 8.48926C12.7383 8.15434 12.3919 8.16465 12.26 8.49957C12.0913 8.92774 11.9735 9.35393 11.8378 9.81727Z" fill="url(#paint43_radial_4089_1421)"/>
<path d="M10.1696 18.653C10.1194 18.848 9.94902 18.9934 9.74756 19.0941C9.17646 19.2917 8.72536 19.4818 8.3521 19.6663C8.02166 19.8296 8.02485 20.3459 8.35636 20.507C8.7437 20.6953 9.23003 20.8759 9.77014 21.09C9.91536 21.1476 10.1206 21.3103 10.1717 21.5102C10.3291 22.1263 10.5433 22.7785 10.7792 23.3805C10.9622 23.8479 11.4149 23.8476 11.5989 23.3805C11.8377 22.7743 12.0192 22.1194 12.2239 21.4963C12.273 21.304 12.418 21.1518 12.6052 21.0856C13.1109 20.9064 13.5984 20.7042 13.9957 20.5292C14.3668 20.3658 14.3745 19.8351 14.008 19.6615C13.6167 19.4762 13.13 19.2615 12.6027 19.0699C12.4172 19.0025 12.2744 18.8602 12.2085 18.6582C11.9862 17.9775 11.8454 17.4005 11.6093 16.8012C11.4253 16.3341 10.9423 16.3485 10.7583 16.8155C10.5231 17.4126 10.3589 18.0069 10.1696 18.653Z" fill="url(#paint44_radial_4089_1421)"/>
<path d="M10.1696 18.653C10.1194 18.848 9.94902 18.9934 9.74756 19.0941C9.17646 19.2917 8.72536 19.4818 8.3521 19.6663C8.02166 19.8296 8.02485 20.3459 8.35636 20.507C8.7437 20.6953 9.23003 20.8759 9.77014 21.09C9.91536 21.1476 10.1206 21.3103 10.1717 21.5102C10.3291 22.1263 10.5433 22.7785 10.7792 23.3805C10.9622 23.8479 11.4149 23.8476 11.5989 23.3805C11.8377 22.7743 12.0192 22.1194 12.2239 21.4963C12.273 21.304 12.418 21.1518 12.6052 21.0856C13.1109 20.9064 13.5984 20.7042 13.9957 20.5292C14.3668 20.3658 14.3745 19.8351 14.008 19.6615C13.6167 19.4762 13.13 19.2615 12.6027 19.0699C12.4172 19.0025 12.2744 18.8602 12.2085 18.6582C11.9862 17.9775 11.8454 17.4005 11.6093 16.8012C11.4253 16.3341 10.9423 16.3485 10.7583 16.8155C10.5231 17.4126 10.3589 18.0069 10.1696 18.653Z" fill="url(#paint45_radial_4089_1421)"/>
<path d="M10.1696 18.653C10.1194 18.848 9.94902 18.9934 9.74756 19.0941C9.17646 19.2917 8.72536 19.4818 8.3521 19.6663C8.02166 19.8296 8.02485 20.3459 8.35636 20.507C8.7437 20.6953 9.23003 20.8759 9.77014 21.09C9.91536 21.1476 10.1206 21.3103 10.1717 21.5102C10.3291 22.1263 10.5433 22.7785 10.7792 23.3805C10.9622 23.8479 11.4149 23.8476 11.5989 23.3805C11.8377 22.7743 12.0192 22.1194 12.2239 21.4963C12.273 21.304 12.418 21.1518 12.6052 21.0856C13.1109 20.9064 13.5984 20.7042 13.9957 20.5292C14.3668 20.3658 14.3745 19.8351 14.008 19.6615C13.6167 19.4762 13.13 19.2615 12.6027 19.0699C12.4172 19.0025 12.2744 18.8602 12.2085 18.6582C11.9862 17.9775 11.8454 17.4005 11.6093 16.8012C11.4253 16.3341 10.9423 16.3485 10.7583 16.8155C10.5231 17.4126 10.3589 18.0069 10.1696 18.653Z" fill="url(#paint46_radial_4089_1421)"/>
<path d="M10.1696 18.653C10.1194 18.848 9.94902 18.9934 9.74756 19.0941C9.17646 19.2917 8.72536 19.4818 8.3521 19.6663C8.02166 19.8296 8.02485 20.3459 8.35636 20.507C8.7437 20.6953 9.23003 20.8759 9.77014 21.09C9.91536 21.1476 10.1206 21.3103 10.1717 21.5102C10.3291 22.1263 10.5433 22.7785 10.7792 23.3805C10.9622 23.8479 11.4149 23.8476 11.5989 23.3805C11.8377 22.7743 12.0192 22.1194 12.2239 21.4963C12.273 21.304 12.418 21.1518 12.6052 21.0856C13.1109 20.9064 13.5984 20.7042 13.9957 20.5292C14.3668 20.3658 14.3745 19.8351 14.008 19.6615C13.6167 19.4762 13.13 19.2615 12.6027 19.0699C12.4172 19.0025 12.2744 18.8602 12.2085 18.6582C11.9862 17.9775 11.8454 17.4005 11.6093 16.8012C11.4253 16.3341 10.9423 16.3485 10.7583 16.8155C10.5231 17.4126 10.3589 18.0069 10.1696 18.653Z" fill="url(#paint47_radial_4089_1421)"/>
<path d="M10.1696 18.653C10.1194 18.848 9.94902 18.9934 9.74756 19.0941C9.17646 19.2917 8.72536 19.4818 8.3521 19.6663C8.02166 19.8296 8.02485 20.3459 8.35636 20.507C8.7437 20.6953 9.23003 20.8759 9.77014 21.09C9.91536 21.1476 10.1206 21.3103 10.1717 21.5102C10.3291 22.1263 10.5433 22.7785 10.7792 23.3805C10.9622 23.8479 11.4149 23.8476 11.5989 23.3805C11.8377 22.7743 12.0192 22.1194 12.2239 21.4963C12.273 21.304 12.418 21.1518 12.6052 21.0856C13.1109 20.9064 13.5984 20.7042 13.9957 20.5292C14.3668 20.3658 14.3745 19.8351 14.008 19.6615C13.6167 19.4762 13.13 19.2615 12.6027 19.0699C12.4172 19.0025 12.2744 18.8602 12.2085 18.6582C11.9862 17.9775 11.8454 17.4005 11.6093 16.8012C11.4253 16.3341 10.9423 16.3485 10.7583 16.8155C10.5231 17.4126 10.3589 18.0069 10.1696 18.653Z" fill="url(#paint48_radial_4089_1421)"/>
<path d="M10.1696 18.653C10.1194 18.848 9.94902 18.9934 9.74756 19.0941C9.17646 19.2917 8.72536 19.4818 8.3521 19.6663C8.02166 19.8296 8.02485 20.3459 8.35636 20.507C8.7437 20.6953 9.23003 20.8759 9.77014 21.09C9.91536 21.1476 10.1206 21.3103 10.1717 21.5102C10.3291 22.1263 10.5433 22.7785 10.7792 23.3805C10.9622 23.8479 11.4149 23.8476 11.5989 23.3805C11.8377 22.7743 12.0192 22.1194 12.2239 21.4963C12.273 21.304 12.418 21.1518 12.6052 21.0856C13.1109 20.9064 13.5984 20.7042 13.9957 20.5292C14.3668 20.3658 14.3745 19.8351 14.008 19.6615C13.6167 19.4762 13.13 19.2615 12.6027 19.0699C12.4172 19.0025 12.2744 18.8602 12.2085 18.6582C11.9862 17.9775 11.8454 17.4005 11.6093 16.8012C11.4253 16.3341 10.9423 16.3485 10.7583 16.8155C10.5231 17.4126 10.3589 18.0069 10.1696 18.653Z" fill="url(#paint49_radial_4089_1421)"/>
<path d="M10.1696 18.653C10.1194 18.848 9.94902 18.9934 9.74756 19.0941C9.17646 19.2917 8.72536 19.4818 8.3521 19.6663C8.02166 19.8296 8.02485 20.3459 8.35636 20.507C8.7437 20.6953 9.23003 20.8759 9.77014 21.09C9.91536 21.1476 10.1206 21.3103 10.1717 21.5102C10.3291 22.1263 10.5433 22.7785 10.7792 23.3805C10.9622 23.8479 11.4149 23.8476 11.5989 23.3805C11.8377 22.7743 12.0192 22.1194 12.2239 21.4963C12.273 21.304 12.418 21.1518 12.6052 21.0856C13.1109 20.9064 13.5984 20.7042 13.9957 20.5292C14.3668 20.3658 14.3745 19.8351 14.008 19.6615C13.6167 19.4762 13.13 19.2615 12.6027 19.0699C12.4172 19.0025 12.2744 18.8602 12.2085 18.6582C11.9862 17.9775 11.8454 17.4005 11.6093 16.8012C11.4253 16.3341 10.9423 16.3485 10.7583 16.8155C10.5231 17.4126 10.3589 18.0069 10.1696 18.653Z" fill="url(#paint50_radial_4089_1421)"/>
<path d="M10.1696 18.653C10.1194 18.848 9.94902 18.9934 9.74756 19.0941C9.17646 19.2917 8.72536 19.4818 8.3521 19.6663C8.02166 19.8296 8.02485 20.3459 8.35636 20.507C8.7437 20.6953 9.23003 20.8759 9.77014 21.09C9.91536 21.1476 10.1206 21.3103 10.1717 21.5102C10.3291 22.1263 10.5433 22.7785 10.7792 23.3805C10.9622 23.8479 11.4149 23.8476 11.5989 23.3805C11.8377 22.7743 12.0192 22.1194 12.2239 21.4963C12.273 21.304 12.418 21.1518 12.6052 21.0856C13.1109 20.9064 13.5984 20.7042 13.9957 20.5292C14.3668 20.3658 14.3745 19.8351 14.008 19.6615C13.6167 19.4762 13.13 19.2615 12.6027 19.0699C12.4172 19.0025 12.2744 18.8602 12.2085 18.6582C11.9862 17.9775 11.8454 17.4005 11.6093 16.8012C11.4253 16.3341 10.9423 16.3485 10.7583 16.8155C10.5231 17.4126 10.3589 18.0069 10.1696 18.653Z" fill="url(#paint51_radial_4089_1421)"/>
<path d="M10.1696 18.653C10.1194 18.848 9.94902 18.9934 9.74756 19.0941C9.17646 19.2917 8.72536 19.4818 8.3521 19.6663C8.02166 19.8296 8.02485 20.3459 8.35636 20.507C8.7437 20.6953 9.23003 20.8759 9.77014 21.09C9.91536 21.1476 10.1206 21.3103 10.1717 21.5102C10.3291 22.1263 10.5433 22.7785 10.7792 23.3805C10.9622 23.8479 11.4149 23.8476 11.5989 23.3805C11.8377 22.7743 12.0192 22.1194 12.2239 21.4963C12.273 21.304 12.418 21.1518 12.6052 21.0856C13.1109 20.9064 13.5984 20.7042 13.9957 20.5292C14.3668 20.3658 14.3745 19.8351 14.008 19.6615C13.6167 19.4762 13.13 19.2615 12.6027 19.0699C12.4172 19.0025 12.2744 18.8602 12.2085 18.6582C11.9862 17.9775 11.8454 17.4005 11.6093 16.8012C11.4253 16.3341 10.9423 16.3485 10.7583 16.8155C10.5231 17.4126 10.3589 18.0069 10.1696 18.653Z" fill="url(#paint52_radial_4089_1421)"/>
<path d="M10.1696 18.653C10.1194 18.848 9.94902 18.9934 9.74756 19.0941C9.17646 19.2917 8.72536 19.4818 8.3521 19.6663C8.02166 19.8296 8.02485 20.3459 8.35636 20.507C8.7437 20.6953 9.23003 20.8759 9.77014 21.09C9.91536 21.1476 10.1206 21.3103 10.1717 21.5102C10.3291 22.1263 10.5433 22.7785 10.7792 23.3805C10.9622 23.8479 11.4149 23.8476 11.5989 23.3805C11.8377 22.7743 12.0192 22.1194 12.2239 21.4963C12.273 21.304 12.418 21.1518 12.6052 21.0856C13.1109 20.9064 13.5984 20.7042 13.9957 20.5292C14.3668 20.3658 14.3745 19.8351 14.008 19.6615C13.6167 19.4762 13.13 19.2615 12.6027 19.0699C12.4172 19.0025 12.2744 18.8602 12.2085 18.6582C11.9862 17.9775 11.8454 17.4005 11.6093 16.8012C11.4253 16.3341 10.9423 16.3485 10.7583 16.8155C10.5231 17.4126 10.3589 18.0069 10.1696 18.653Z" fill="url(#paint53_radial_4089_1421)"/>
<path d="M10.1696 18.653C10.1194 18.848 9.94902 18.9934 9.74756 19.0941C9.17646 19.2917 8.72536 19.4818 8.3521 19.6663C8.02166 19.8296 8.02485 20.3459 8.35636 20.507C8.7437 20.6953 9.23003 20.8759 9.77014 21.09C9.91536 21.1476 10.1206 21.3103 10.1717 21.5102C10.3291 22.1263 10.5433 22.7785 10.7792 23.3805C10.9622 23.8479 11.4149 23.8476 11.5989 23.3805C11.8377 22.7743 12.0192 22.1194 12.2239 21.4963C12.273 21.304 12.418 21.1518 12.6052 21.0856C13.1109 20.9064 13.5984 20.7042 13.9957 20.5292C14.3668 20.3658 14.3745 19.8351 14.008 19.6615C13.6167 19.4762 13.13 19.2615 12.6027 19.0699C12.4172 19.0025 12.2744 18.8602 12.2085 18.6582C11.9862 17.9775 11.8454 17.4005 11.6093 16.8012C11.4253 16.3341 10.9423 16.3485 10.7583 16.8155C10.5231 17.4126 10.3589 18.0069 10.1696 18.653Z" fill="url(#paint54_radial_4089_1421)"/>
<path d="M10.1696 18.653C10.1194 18.848 9.94902 18.9934 9.74756 19.0941C9.17646 19.2917 8.72536 19.4818 8.3521 19.6663C8.02166 19.8296 8.02485 20.3459 8.35636 20.507C8.7437 20.6953 9.23003 20.8759 9.77014 21.09C9.91536 21.1476 10.1206 21.3103 10.1717 21.5102C10.3291 22.1263 10.5433 22.7785 10.7792 23.3805C10.9622 23.8479 11.4149 23.8476 11.5989 23.3805C11.8377 22.7743 12.0192 22.1194 12.2239 21.4963C12.273 21.304 12.418 21.1518 12.6052 21.0856C13.1109 20.9064 13.5984 20.7042 13.9957 20.5292C14.3668 20.3658 14.3745 19.8351 14.008 19.6615C13.6167 19.4762 13.13 19.2615 12.6027 19.0699C12.4172 19.0025 12.2744 18.8602 12.2085 18.6582C11.9862 17.9775 11.8454 17.4005 11.6093 16.8012C11.4253 16.3341 10.9423 16.3485 10.7583 16.8155C10.5231 17.4126 10.3589 18.0069 10.1696 18.653Z" fill="url(#paint55_radial_4089_1421)"/>
<path d="M10.1696 18.653C10.1194 18.848 9.94902 18.9934 9.74756 19.0941C9.17646 19.2917 8.72536 19.4818 8.3521 19.6663C8.02166 19.8296 8.02485 20.3459 8.35636 20.507C8.7437 20.6953 9.23003 20.8759 9.77014 21.09C9.91536 21.1476 10.1206 21.3103 10.1717 21.5102C10.3291 22.1263 10.5433 22.7785 10.7792 23.3805C10.9622 23.8479 11.4149 23.8476 11.5989 23.3805C11.8377 22.7743 12.0192 22.1194 12.2239 21.4963C12.273 21.304 12.418 21.1518 12.6052 21.0856C13.1109 20.9064 13.5984 20.7042 13.9957 20.5292C14.3668 20.3658 14.3745 19.8351 14.008 19.6615C13.6167 19.4762 13.13 19.2615 12.6027 19.0699C12.4172 19.0025 12.2744 18.8602 12.2085 18.6582C11.9862 17.9775 11.8454 17.4005 11.6093 16.8012C11.4253 16.3341 10.9423 16.3485 10.7583 16.8155C10.5231 17.4126 10.3589 18.0069 10.1696 18.653Z" fill="url(#paint56_radial_4089_1421)"/>
<path d="M10.1696 18.653C10.1194 18.848 9.94902 18.9934 9.74756 19.0941C9.17646 19.2917 8.72536 19.4818 8.3521 19.6663C8.02166 19.8296 8.02485 20.3459 8.35636 20.507C8.7437 20.6953 9.23003 20.8759 9.77014 21.09C9.91536 21.1476 10.1206 21.3103 10.1717 21.5102C10.3291 22.1263 10.5433 22.7785 10.7792 23.3805C10.9622 23.8479 11.4149 23.8476 11.5989 23.3805C11.8377 22.7743 12.0192 22.1194 12.2239 21.4963C12.273 21.304 12.418 21.1518 12.6052 21.0856C13.1109 20.9064 13.5984 20.7042 13.9957 20.5292C14.3668 20.3658 14.3745 19.8351 14.008 19.6615C13.6167 19.4762 13.13 19.2615 12.6027 19.0699C12.4172 19.0025 12.2744 18.8602 12.2085 18.6582C11.9862 17.9775 11.8454 17.4005 11.6093 16.8012C11.4253 16.3341 10.9423 16.3485 10.7583 16.8155C10.5231 17.4126 10.3589 18.0069 10.1696 18.653Z" fill="url(#paint57_radial_4089_1421)"/>
<path d="M10.1696 18.653C10.1194 18.848 9.94902 18.9934 9.74756 19.0941C9.17646 19.2917 8.72536 19.4818 8.3521 19.6663C8.02166 19.8296 8.02485 20.3459 8.35636 20.507C8.7437 20.6953 9.23003 20.8759 9.77014 21.09C9.91536 21.1476 10.1206 21.3103 10.1717 21.5102C10.3291 22.1263 10.5433 22.7785 10.7792 23.3805C10.9622 23.8479 11.4149 23.8476 11.5989 23.3805C11.8377 22.7743 12.0192 22.1194 12.2239 21.4963C12.273 21.304 12.418 21.1518 12.6052 21.0856C13.1109 20.9064 13.5984 20.7042 13.9957 20.5292C14.3668 20.3658 14.3745 19.8351 14.008 19.6615C13.6167 19.4762 13.13 19.2615 12.6027 19.0699C12.4172 19.0025 12.2744 18.8602 12.2085 18.6582C11.9862 17.9775 11.8454 17.4005 11.6093 16.8012C11.4253 16.3341 10.9423 16.3485 10.7583 16.8155C10.5231 17.4126 10.3589 18.0069 10.1696 18.653Z" fill="url(#paint58_radial_4089_1421)"/>
<path d="M10.1696 18.653C10.1194 18.848 9.94902 18.9934 9.74756 19.0941C9.17646 19.2917 8.72536 19.4818 8.3521 19.6663C8.02166 19.8296 8.02485 20.3459 8.35636 20.507C8.7437 20.6953 9.23003 20.8759 9.77014 21.09C9.91536 21.1476 10.1206 21.3103 10.1717 21.5102C10.3291 22.1263 10.5433 22.7785 10.7792 23.3805C10.9622 23.8479 11.4149 23.8476 11.5989 23.3805C11.8377 22.7743 12.0192 22.1194 12.2239 21.4963C12.273 21.304 12.418 21.1518 12.6052 21.0856C13.1109 20.9064 13.5984 20.7042 13.9957 20.5292C14.3668 20.3658 14.3745 19.8351 14.008 19.6615C13.6167 19.4762 13.13 19.2615 12.6027 19.0699C12.4172 19.0025 12.2744 18.8602 12.2085 18.6582C11.9862 17.9775 11.8454 17.4005 11.6093 16.8012C11.4253 16.3341 10.9423 16.3485 10.7583 16.8155C10.5231 17.4126 10.3589 18.0069 10.1696 18.653Z" fill="url(#paint59_radial_4089_1421)"/>
<path d="M10.1696 18.653C10.1194 18.848 9.94902 18.9934 9.74756 19.0941C9.17646 19.2917 8.72536 19.4818 8.3521 19.6663C8.02166 19.8296 8.02485 20.3459 8.35636 20.507C8.7437 20.6953 9.23003 20.8759 9.77014 21.09C9.91536 21.1476 10.1206 21.3103 10.1717 21.5102C10.3291 22.1263 10.5433 22.7785 10.7792 23.3805C10.9622 23.8479 11.4149 23.8476 11.5989 23.3805C11.8377 22.7743 12.0192 22.1194 12.2239 21.4963C12.273 21.304 12.418 21.1518 12.6052 21.0856C13.1109 20.9064 13.5984 20.7042 13.9957 20.5292C14.3668 20.3658 14.3745 19.8351 14.008 19.6615C13.6167 19.4762 13.13 19.2615 12.6027 19.0699C12.4172 19.0025 12.2744 18.8602 12.2085 18.6582C11.9862 17.9775 11.8454 17.4005 11.6093 16.8012C11.4253 16.3341 10.9423 16.3485 10.7583 16.8155C10.5231 17.4126 10.3589 18.0069 10.1696 18.653Z" fill="url(#paint60_radial_4089_1421)"/>
<path d="M10.1696 18.653C10.1194 18.848 9.94902 18.9934 9.74756 19.0941C9.17646 19.2917 8.72536 19.4818 8.3521 19.6663C8.02166 19.8296 8.02485 20.3459 8.35636 20.507C8.7437 20.6953 9.23003 20.8759 9.77014 21.09C9.91536 21.1476 10.1206 21.3103 10.1717 21.5102C10.3291 22.1263 10.5433 22.7785 10.7792 23.3805C10.9622 23.8479 11.4149 23.8476 11.5989 23.3805C11.8377 22.7743 12.0192 22.1194 12.2239 21.4963C12.273 21.304 12.418 21.1518 12.6052 21.0856C13.1109 20.9064 13.5984 20.7042 13.9957 20.5292C14.3668 20.3658 14.3745 19.8351 14.008 19.6615C13.6167 19.4762 13.13 19.2615 12.6027 19.0699C12.4172 19.0025 12.2744 18.8602 12.2085 18.6582C11.9862 17.9775 11.8454 17.4005 11.6093 16.8012C11.4253 16.3341 10.9423 16.3485 10.7583 16.8155C10.5231 17.4126 10.3589 18.0069 10.1696 18.653Z" fill="url(#paint61_radial_4089_1421)"/>
<path d="M10.1696 18.653C10.1194 18.848 9.94902 18.9934 9.74756 19.0941C9.17646 19.2917 8.72536 19.4818 8.3521 19.6663C8.02166 19.8296 8.02485 20.3459 8.35636 20.507C8.7437 20.6953 9.23003 20.8759 9.77014 21.09C9.91536 21.1476 10.1206 21.3103 10.1717 21.5102C10.3291 22.1263 10.5433 22.7785 10.7792 23.3805C10.9622 23.8479 11.4149 23.8476 11.5989 23.3805C11.8377 22.7743 12.0192 22.1194 12.2239 21.4963C12.273 21.304 12.418 21.1518 12.6052 21.0856C13.1109 20.9064 13.5984 20.7042 13.9957 20.5292C14.3668 20.3658 14.3745 19.8351 14.008 19.6615C13.6167 19.4762 13.13 19.2615 12.6027 19.0699C12.4172 19.0025 12.2744 18.8602 12.2085 18.6582C11.9862 17.9775 11.8454 17.4005 11.6093 16.8012C11.4253 16.3341 10.9423 16.3485 10.7583 16.8155C10.5231 17.4126 10.3589 18.0069 10.1696 18.653Z" fill="url(#paint62_radial_4089_1421)"/>
<path d="M10.1696 18.653C10.1194 18.848 9.94902 18.9934 9.74756 19.0941C9.17646 19.2917 8.72536 19.4818 8.3521 19.6663C8.02166 19.8296 8.02485 20.3459 8.35636 20.507C8.7437 20.6953 9.23003 20.8759 9.77014 21.09C9.91536 21.1476 10.1206 21.3103 10.1717 21.5102C10.3291 22.1263 10.5433 22.7785 10.7792 23.3805C10.9622 23.8479 11.4149 23.8476 11.5989 23.3805C11.8377 22.7743 12.0192 22.1194 12.2239 21.4963C12.273 21.304 12.418 21.1518 12.6052 21.0856C13.1109 20.9064 13.5984 20.7042 13.9957 20.5292C14.3668 20.3658 14.3745 19.8351 14.008 19.6615C13.6167 19.4762 13.13 19.2615 12.6027 19.0699C12.4172 19.0025 12.2744 18.8602 12.2085 18.6582C11.9862 17.9775 11.8454 17.4005 11.6093 16.8012C11.4253 16.3341 10.9423 16.3485 10.7583 16.8155C10.5231 17.4126 10.3589 18.0069 10.1696 18.653Z" fill="url(#paint63_radial_4089_1421)"/>
<path d="M10.1696 18.653C10.1194 18.848 9.94902 18.9934 9.74756 19.0941C9.17646 19.2917 8.72536 19.4818 8.3521 19.6663C8.02166 19.8296 8.02485 20.3459 8.35636 20.507C8.7437 20.6953 9.23003 20.8759 9.77014 21.09C9.91536 21.1476 10.1206 21.3103 10.1717 21.5102C10.3291 22.1263 10.5433 22.7785 10.7792 23.3805C10.9622 23.8479 11.4149 23.8476 11.5989 23.3805C11.8377 22.7743 12.0192 22.1194 12.2239 21.4963C12.273 21.304 12.418 21.1518 12.6052 21.0856C13.1109 20.9064 13.5984 20.7042 13.9957 20.5292C14.3668 20.3658 14.3745 19.8351 14.008 19.6615C13.6167 19.4762 13.13 19.2615 12.6027 19.0699C12.4172 19.0025 12.2744 18.8602 12.2085 18.6582C11.9862 17.9775 11.8454 17.4005 11.6093 16.8012C11.4253 16.3341 10.9423 16.3485 10.7583 16.8155C10.5231 17.4126 10.3589 18.0069 10.1696 18.653Z" fill="url(#paint64_radial_4089_1421)"/>
<path d="M10.1696 18.653C10.1194 18.848 9.94902 18.9934 9.74756 19.0941C9.17646 19.2917 8.72536 19.4818 8.3521 19.6663C8.02166 19.8296 8.02485 20.3459 8.35636 20.507C8.7437 20.6953 9.23003 20.8759 9.77014 21.09C9.91536 21.1476 10.1206 21.3103 10.1717 21.5102C10.3291 22.1263 10.5433 22.7785 10.7792 23.3805C10.9622 23.8479 11.4149 23.8476 11.5989 23.3805C11.8377 22.7743 12.0192 22.1194 12.2239 21.4963C12.273 21.304 12.418 21.1518 12.6052 21.0856C13.1109 20.9064 13.5984 20.7042 13.9957 20.5292C14.3668 20.3658 14.3745 19.8351 14.008 19.6615C13.6167 19.4762 13.13 19.2615 12.6027 19.0699C12.4172 19.0025 12.2744 18.8602 12.2085 18.6582C11.9862 17.9775 11.8454 17.4005 11.6093 16.8012C11.4253 16.3341 10.9423 16.3485 10.7583 16.8155C10.5231 17.4126 10.3589 18.0069 10.1696 18.653Z" fill="url(#paint65_radial_4089_1421)"/>
<path d="M10.1696 18.653C10.1194 18.848 9.94902 18.9934 9.74756 19.0941C9.17646 19.2917 8.72536 19.4818 8.3521 19.6663C8.02166 19.8296 8.02485 20.3459 8.35636 20.507C8.7437 20.6953 9.23003 20.8759 9.77014 21.09C9.91536 21.1476 10.1206 21.3103 10.1717 21.5102C10.3291 22.1263 10.5433 22.7785 10.7792 23.3805C10.9622 23.8479 11.4149 23.8476 11.5989 23.3805C11.8377 22.7743 12.0192 22.1194 12.2239 21.4963C12.273 21.304 12.418 21.1518 12.6052 21.0856C13.1109 20.9064 13.5984 20.7042 13.9957 20.5292C14.3668 20.3658 14.3745 19.8351 14.008 19.6615C13.6167 19.4762 13.13 19.2615 12.6027 19.0699C12.4172 19.0025 12.2744 18.8602 12.2085 18.6582C11.9862 17.9775 11.8454 17.4005 11.6093 16.8012C11.4253 16.3341 10.9423 16.3485 10.7583 16.8155C10.5231 17.4126 10.3589 18.0069 10.1696 18.653Z" fill="url(#paint66_radial_4089_1421)"/>
<path d="M10.1696 18.653C10.1194 18.848 9.94902 18.9934 9.74756 19.0941C9.17646 19.2917 8.72536 19.4818 8.3521 19.6663C8.02166 19.8296 8.02485 20.3459 8.35636 20.507C8.7437 20.6953 9.23003 20.8759 9.77014 21.09C9.91536 21.1476 10.1206 21.3103 10.1717 21.5102C10.3291 22.1263 10.5433 22.7785 10.7792 23.3805C10.9622 23.8479 11.4149 23.8476 11.5989 23.3805C11.8377 22.7743 12.0192 22.1194 12.2239 21.4963C12.273 21.304 12.418 21.1518 12.6052 21.0856C13.1109 20.9064 13.5984 20.7042 13.9957 20.5292C14.3668 20.3658 14.3745 19.8351 14.008 19.6615C13.6167 19.4762 13.13 19.2615 12.6027 19.0699C12.4172 19.0025 12.2744 18.8602 12.2085 18.6582C11.9862 17.9775 11.8454 17.4005 11.6093 16.8012C11.4253 16.3341 10.9423 16.3485 10.7583 16.8155C10.5231 17.4126 10.3589 18.0069 10.1696 18.653Z" fill="url(#paint67_radial_4089_1421)" fill-opacity="0.5"/>
<path d="M10.1696 18.653C10.1194 18.848 9.94902 18.9934 9.74756 19.0941C9.17646 19.2917 8.72536 19.4818 8.3521 19.6663C8.02166 19.8296 8.02485 20.3459 8.35636 20.507C8.7437 20.6953 9.23003 20.8759 9.77014 21.09C9.91536 21.1476 10.1206 21.3103 10.1717 21.5102C10.3291 22.1263 10.5433 22.7785 10.7792 23.3805C10.9622 23.8479 11.4149 23.8476 11.5989 23.3805C11.8377 22.7743 12.0192 22.1194 12.2239 21.4963C12.273 21.304 12.418 21.1518 12.6052 21.0856C13.1109 20.9064 13.5984 20.7042 13.9957 20.5292C14.3668 20.3658 14.3745 19.8351 14.008 19.6615C13.6167 19.4762 13.13 19.2615 12.6027 19.0699C12.4172 19.0025 12.2744 18.8602 12.2085 18.6582C11.9862 17.9775 11.8454 17.4005 11.6093 16.8012C11.4253 16.3341 10.9423 16.3485 10.7583 16.8155C10.5231 17.4126 10.3589 18.0069 10.1696 18.653Z" fill="url(#paint68_radial_4089_1421)" fill-opacity="0.5"/>
<path d="M10.1696 18.653C10.1194 18.848 9.94902 18.9934 9.74756 19.0941C9.17646 19.2917 8.72536 19.4818 8.3521 19.6663C8.02166 19.8296 8.02485 20.3459 8.35636 20.507C8.7437 20.6953 9.23003 20.8759 9.77014 21.09C9.91536 21.1476 10.1206 21.3103 10.1717 21.5102C10.3291 22.1263 10.5433 22.7785 10.7792 23.3805C10.9622 23.8479 11.4149 23.8476 11.5989 23.3805C11.8377 22.7743 12.0192 22.1194 12.2239 21.4963C12.273 21.304 12.418 21.1518 12.6052 21.0856C13.1109 20.9064 13.5984 20.7042 13.9957 20.5292C14.3668 20.3658 14.3745 19.8351 14.008 19.6615C13.6167 19.4762 13.13 19.2615 12.6027 19.0699C12.4172 19.0025 12.2744 18.8602 12.2085 18.6582C11.9862 17.9775 11.8454 17.4005 11.6093 16.8012C11.4253 16.3341 10.9423 16.3485 10.7583 16.8155C10.5231 17.4126 10.3589 18.0069 10.1696 18.653Z" fill="url(#paint69_radial_4089_1421)" fill-opacity="0.5"/>
<path d="M10.1696 18.653C10.1194 18.848 9.94902 18.9934 9.74756 19.0941C9.17646 19.2917 8.72536 19.4818 8.3521 19.6663C8.02166 19.8296 8.02485 20.3459 8.35636 20.507C8.7437 20.6953 9.23003 20.8759 9.77014 21.09C9.91536 21.1476 10.1206 21.3103 10.1717 21.5102C10.3291 22.1263 10.5433 22.7785 10.7792 23.3805C10.9622 23.8479 11.4149 23.8476 11.5989 23.3805C11.8377 22.7743 12.0192 22.1194 12.2239 21.4963C12.273 21.304 12.418 21.1518 12.6052 21.0856C13.1109 20.9064 13.5984 20.7042 13.9957 20.5292C14.3668 20.3658 14.3745 19.8351 14.008 19.6615C13.6167 19.4762 13.13 19.2615 12.6027 19.0699C12.4172 19.0025 12.2744 18.8602 12.2085 18.6582C11.9862 17.9775 11.8454 17.4005 11.6093 16.8012C11.4253 16.3341 10.9423 16.3485 10.7583 16.8155C10.5231 17.4126 10.3589 18.0069 10.1696 18.653Z" fill="url(#paint70_radial_4089_1421)" fill-opacity="0.5"/>
<path d="M10.1696 18.653C10.1194 18.848 9.94902 18.9934 9.74756 19.0941C9.17646 19.2917 8.72536 19.4818 8.3521 19.6663C8.02166 19.8296 8.02485 20.3459 8.35636 20.507C8.7437 20.6953 9.23003 20.8759 9.77014 21.09C9.91536 21.1476 10.1206 21.3103 10.1717 21.5102C10.3291 22.1263 10.5433 22.7785 10.7792 23.3805C10.9622 23.8479 11.4149 23.8476 11.5989 23.3805C11.8377 22.7743 12.0192 22.1194 12.2239 21.4963C12.273 21.304 12.418 21.1518 12.6052 21.0856C13.1109 20.9064 13.5984 20.7042 13.9957 20.5292C14.3668 20.3658 14.3745 19.8351 14.008 19.6615C13.6167 19.4762 13.13 19.2615 12.6027 19.0699C12.4172 19.0025 12.2744 18.8602 12.2085 18.6582C11.9862 17.9775 11.8454 17.4005 11.6093 16.8012C11.4253 16.3341 10.9423 16.3485 10.7583 16.8155C10.5231 17.4126 10.3589 18.0069 10.1696 18.653Z" fill="url(#paint71_radial_4089_1421)" fill-opacity="0.5"/>
<path d="M10.1696 18.653C10.1194 18.848 9.94902 18.9934 9.74756 19.0941C9.17646 19.2917 8.72536 19.4818 8.3521 19.6663C8.02166 19.8296 8.02485 20.3459 8.35636 20.507C8.7437 20.6953 9.23003 20.8759 9.77014 21.09C9.91536 21.1476 10.1206 21.3103 10.1717 21.5102C10.3291 22.1263 10.5433 22.7785 10.7792 23.3805C10.9622 23.8479 11.4149 23.8476 11.5989 23.3805C11.8377 22.7743 12.0192 22.1194 12.2239 21.4963C12.273 21.304 12.418 21.1518 12.6052 21.0856C13.1109 20.9064 13.5984 20.7042 13.9957 20.5292C14.3668 20.3658 14.3745 19.8351 14.008 19.6615C13.6167 19.4762 13.13 19.2615 12.6027 19.0699C12.4172 19.0025 12.2744 18.8602 12.2085 18.6582C11.9862 17.9775 11.8454 17.4005 11.6093 16.8012C11.4253 16.3341 10.9423 16.3485 10.7583 16.8155C10.5231 17.4126 10.3589 18.0069 10.1696 18.653Z" fill="url(#paint72_radial_4089_1421)" fill-opacity="0.5"/>
<defs>
<linearGradient id="paint0_linear_4089_1421" x1="24.1467" y1="13.3966" x2="16.8779" y2="21.0486" gradientUnits="userSpaceOnUse">
<stop stop-color="#FFCF5A"/>
<stop offset="1" stop-color="#FEA254"/>
</linearGradient>
<linearGradient id="paint1_linear_4089_1421" x1="16.6819" y1="25.2216" x2="20.6443" y2="16.8635" gradientUnits="userSpaceOnUse">
<stop stop-color="#FF886D"/>
<stop offset="1" stop-color="#FF886D" stop-opacity="0"/>
</linearGradient>
<radialGradient id="paint2_radial_4089_1421" cx="0" cy="0" r="1" gradientUnits="userSpaceOnUse" gradientTransform="translate(24.4226 18.6801) rotate(-110.523) scale(1.6387 4.61216)">
<stop stop-color="#EF7B54"/>
<stop offset="0.746285" stop-color="#EF7B54" stop-opacity="0.131386"/>
<stop offset="1" stop-color="#EF7B54" stop-opacity="0"/>
</radialGradient>
<radialGradient id="paint3_radial_4089_1421" cx="0" cy="0" r="1" gradientUnits="userSpaceOnUse" gradientTransform="translate(18.2718 22.8432) rotate(-19.6611) scale(1.09513 5.67337)">
<stop stop-color="#EF7B54"/>
<stop offset="0.501931" stop-color="#EF7B54" stop-opacity="0.462921"/>
<stop offset="0.802968" stop-color="#EF7B54" stop-opacity="0.131386"/>
<stop offset="1" stop-color="#EF7B54" stop-opacity="0"/>
</radialGradient>
<radialGradient id="paint4_radial_4089_1421" cx="0" cy="0" r="1" gradientUnits="userSpaceOnUse" gradientTransform="translate(16.9847 19.4313) rotate(-41.9334) scale(0.756671 1.41042)">
<stop stop-color="#EF7B54"/>
<stop offset="0.501931" stop-color="#EF7B54" stop-opacity="0.462921"/>
<stop offset="0.802968" stop-color="#EF7B54" stop-opacity="0.131386"/>
<stop offset="1" stop-color="#EF7B54" stop-opacity="0"/>
</radialGradient>
<radialGradient id="paint5_radial_4089_1421" cx="0" cy="0" r="1" gradientUnits="userSpaceOnUse" gradientTransform="translate(15.4942 18.3573) rotate(-68.9625) scale(0.370061 1.85182)">
<stop stop-color="#EF7B54"/>
<stop offset="0.501931" stop-color="#EF7B54" stop-opacity="0.462921"/>
<stop offset="1" stop-color="#EF7B54" stop-opacity="0"/>
</radialGradient>
<radialGradient id="paint6_radial_4089_1421" cx="0" cy="0" r="1" gradientUnits="userSpaceOnUse" gradientTransform="translate(18.2642 22.2134) rotate(-15.0685) scale(0.372329 2.71672)">
<stop stop-color="#EF7B54"/>
<stop offset="0.501931" stop-color="#EF7B54" stop-opacity="0.462921"/>
<stop offset="1" stop-color="#EF7B54" stop-opacity="0"/>
</radialGradient>
<radialGradient id="paint7_radial_4089_1421" cx="0" cy="0" r="1" gradientUnits="userSpaceOnUse" gradientTransform="translate(14.7984 18.3489) rotate(-61.9908) scale(1.16194 4.14936)">
<stop stop-color="#EF7B54"/>
<stop offset="0.501931" stop-color="#EF7B54" stop-opacity="0.462921"/>
<stop offset="0.802968" stop-color="#EF7B54" stop-opacity="0.131386"/>
<stop offset="1" stop-color="#EF7B54" stop-opacity="0"/>
</radialGradient>
<radialGradient id="paint8_radial_4089_1421" cx="0" cy="0" r="1" gradientUnits="userSpaceOnUse" gradientTransform="translate(19.3683 24.6387) rotate(-75.1414) scale(0.937712 6.4277)">
<stop stop-color="#EF7B54"/>
<stop offset="0.501931" stop-color="#EF7B54" stop-opacity="0.462921"/>
<stop offset="0.802968" stop-color="#EF7B54" stop-opacity="0.131386"/>
<stop offset="1" stop-color="#EF7B54" stop-opacity="0"/>
</radialGradient>
<radialGradient id="paint9_radial_4089_1421" cx="0" cy="0" r="1" gradientUnits="userSpaceOnUse" gradientTransform="translate(14.7121 14.8116) rotate(68.4265) scale(0.567813 2.69586)">
<stop stop-color="#EF7B54"/>
<stop offset="0.501931" stop-color="#EF7B54" stop-opacity="0.462921"/>
<stop offset="0.802968" stop-color="#EF7B54" stop-opacity="0.131386"/>
<stop offset="1" stop-color="#EF7B54" stop-opacity="0"/>
</radialGradient>
<radialGradient id="paint10_radial_4089_1421" cx="0" cy="0" r="1" gradientUnits="userSpaceOnUse" gradientTransform="translate(16.7795 13.6275) rotate(45.4815) scale(0.786635 1.04714)">
<stop stop-color="#EF7B54"/>
<stop offset="0.501931" stop-color="#EF7B54" stop-opacity="0.462921"/>
<stop offset="0.802968" stop-color="#EF7B54" stop-opacity="0.131386"/>
<stop offset="1" stop-color="#EF7B54" stop-opacity="0"/>
</radialGradient>
<radialGradient id="paint11_radial_4089_1421" cx="0" cy="0" r="1" gradientUnits="userSpaceOnUse" gradientTransform="translate(17.5891 11.7931) rotate(15.5241) scale(0.587498 2.63922)">
<stop stop-color="#EF7B54"/>
<stop offset="0.501931" stop-color="#EF7B54" stop-opacity="0.462921"/>
<stop offset="0.802968" stop-color="#EF7B54" stop-opacity="0.131386"/>
<stop offset="1" stop-color="#EF7B54" stop-opacity="0"/>
</radialGradient>
<radialGradient id="paint12_radial_4089_1421" cx="0" cy="0" r="1" gradientUnits="userSpaceOnUse" gradientTransform="translate(18.2715 9.63609) rotate(11.3099) scale(0.572368 2.57125)">
<stop stop-color="#EF7B54"/>
<stop offset="0.501931" stop-color="#EF7B54" stop-opacity="0.462921"/>
<stop offset="0.802968" stop-color="#EF7B54" stop-opacity="0.131386"/>
<stop offset="1" stop-color="#EF7B54" stop-opacity="0"/>
</radialGradient>
<radialGradient id="paint13_radial_4089_1421" cx="0" cy="0" r="1" gradientUnits="userSpaceOnUse" gradientTransform="translate(18.8605 8.51503) rotate(28.8649) scale(0.531779 2.38891)">
<stop stop-color="#EF7B54"/>
<stop offset="0.451537" stop-color="#EF7B54" stop-opacity="0.462921"/>
<stop offset="0.716342" stop-color="#EF7B54" stop-opacity="0.131386"/>
<stop offset="1" stop-color="#EF7B54" stop-opacity="0"/>
</radialGradient>
<radialGradient id="paint14_radial_4089_1421" cx="0" cy="0" r="1" gradientUnits="userSpaceOnUse" gradientTransform="translate(13.0086 15.7282) rotate(36.0736) scale(0.700922 3.14876)">
<stop stop-color="#EF7B54"/>
<stop offset="0.451537" stop-color="#EF7B54" stop-opacity="0.462921"/>
<stop offset="0.716342" stop-color="#EF7B54" stop-opacity="0.131386"/>
<stop offset="1" stop-color="#EF7B54" stop-opacity="0"/>
</radialGradient>
<radialGradient id="paint15_radial_4089_1421" cx="0" cy="0" r="1" gradientUnits="userSpaceOnUse" gradientTransform="translate(12.7706 16.1898) scale(0.689278 3.09645)">
<stop stop-color="#EF7B54"/>
<stop offset="0.451537" stop-color="#EF7B54" stop-opacity="0.462921"/>
<stop offset="0.716342" stop-color="#EF7B54" stop-opacity="0.131386"/>
<stop offset="1" stop-color="#EF7B54" stop-opacity="0"/>
</radialGradient>
<radialGradient id="paint16_radial_4089_1421" cx="0" cy="0" r="1" gradientUnits="userSpaceOnUse" gradientTransform="translate(14.6016 14.5933) rotate(68.9625) scale(1.39574 3.99215)">
<stop stop-color="#BC9D6A"/>
<stop offset="0.767589" stop-color="#BC9D6A" stop-opacity="0.127511"/>
<stop offset="1" stop-color="#BC9D6A" stop-opacity="0"/>
</radialGradient>
<radialGradient id="paint17_radial_4089_1421" cx="0" cy="0" r="1" gradientUnits="userSpaceOnUse" gradientTransform="translate(17.7617 11.2374) rotate(20.4687) scale(1.18521 3.45394)">
<stop stop-color="#BC9D6A"/>
<stop offset="0.767589" stop-color="#BC9D6A" stop-opacity="0.127511"/>
<stop offset="1" stop-color="#BC9D6A" stop-opacity="0"/>
</radialGradient>
<radialGradient id="paint18_radial_4089_1421" cx="0" cy="0" r="1" gradientUnits="userSpaceOnUse" gradientTransform="translate(16.8918 12.7657) rotate(17.1619) scale(1.67328 2.59988)">
<stop stop-color="#BC9D6A"/>
<stop offset="0.767589" stop-color="#BC9D6A" stop-opacity="0.127511"/>
<stop offset="1" stop-color="#BC9D6A" stop-opacity="0"/>
</radialGradient>
<radialGradient id="paint19_radial_4089_1421" cx="0" cy="0" r="1" gradientUnits="userSpaceOnUse" gradientTransform="translate(18.9412 8.28354) rotate(28.7896) scale(0.91815 4.09139)">
<stop stop-color="#BC9D6A" stop-opacity="0.85"/>
<stop offset="0.760417" stop-color="#BC9D6A" stop-opacity="0.127511"/>
<stop offset="1" stop-color="#BC9D6A" stop-opacity="0"/>
</radialGradient>
<radialGradient id="paint20_radial_4089_1421" cx="0" cy="0" r="1" gradientUnits="userSpaceOnUse" gradientTransform="translate(19.8636 7.9636) rotate(85.1355) scale(0.902919 4.02352)">
<stop stop-color="#BC9D6A" stop-opacity="0.85"/>
<stop offset="0.810204" stop-color="#BC9D6A" stop-opacity="0.127511"/>
<stop offset="1" stop-color="#BC9D6A" stop-opacity="0"/>
</radialGradient>
<radialGradient id="paint21_radial_4089_1421" cx="0" cy="0" r="1" gradientUnits="userSpaceOnUse" gradientTransform="translate(12.9306 15.7038) rotate(36.9715) scale(0.829568 2.37276)">
<stop stop-color="#BC9D6A"/>
<stop offset="0.188174" stop-color="#BC9D6A" stop-opacity="0.508864"/>
<stop offset="0.703125" stop-color="#BC9D6A" stop-opacity="0.127511"/>
<stop offset="1" stop-color="#BC9D6A" stop-opacity="0"/>
</radialGradient>
<radialGradient id="paint22_radial_4089_1421" cx="0" cy="0" r="1" gradientUnits="userSpaceOnUse" gradientTransform="translate(12.5226 16.4701) rotate(-1.75033) scale(0.86279 2.46778)">
<stop stop-color="#BC9D6A"/>
<stop offset="0.244792" stop-color="#BC9D6A" stop-opacity="0.508864"/>
<stop offset="0.727949" stop-color="#BC9D6A" stop-opacity="0.127511"/>
<stop offset="1" stop-color="#BC9D6A" stop-opacity="0"/>
</radialGradient>
<radialGradient id="paint23_radial_4089_1421" cx="0" cy="0" r="1" gradientUnits="userSpaceOnUse" gradientTransform="translate(12.9051 17.4268) rotate(-45.971) scale(0.74092 4.9711)">
<stop stop-color="#BC9D6A"/>
<stop offset="0.244792" stop-color="#BC9D6A" stop-opacity="0.508864"/>
<stop offset="0.727949" stop-color="#BC9D6A" stop-opacity="0.127511"/>
<stop offset="1" stop-color="#BC9D6A" stop-opacity="0"/>
</radialGradient>
<radialGradient id="paint24_radial_4089_1421" cx="0" cy="0" r="1" gradientUnits="userSpaceOnUse" gradientTransform="translate(22.0136 13.0441) rotate(155.008) scale(1.26712 2.64215)">
<stop stop-color="#FFE675"/>
<stop offset="0.65382" stop-color="#FFE675" stop-opacity="0.185004"/>
<stop offset="0.813038" stop-color="#FFE675" stop-opacity="0.107811"/>
<stop offset="1" stop-color="#FFE675" stop-opacity="0"/>
</radialGradient>
<radialGradient id="paint25_radial_4089_1421" cx="0" cy="0" r="1" gradientUnits="userSpaceOnUse" gradientTransform="translate(23.093 14.1648) rotate(117.168) scale(1.04679 2.27004)">
<stop stop-color="#FFE675"/>
<stop offset="0.6685" stop-color="#FFE675" stop-opacity="0.185004"/>
<stop offset="0.831795" stop-color="#FFE675" stop-opacity="0.0637278"/>
<stop offset="1" stop-color="#FFE675" stop-opacity="0"/>
</radialGradient>
<radialGradient id="paint26_radial_4089_1421" cx="0" cy="0" r="1" gradientUnits="userSpaceOnUse" gradientTransform="translate(25.4913 15.2307) rotate(113.405) scale(1.14442 2.92431)">
<stop stop-color="#FFE675"/>
<stop offset="0.721175" stop-color="#FFE675" stop-opacity="0.185004"/>
<stop offset="1" stop-color="#FFE675" stop-opacity="0"/>
</radialGradient>
<radialGradient id="paint27_radial_4089_1421" cx="0" cy="0" r="1" gradientUnits="userSpaceOnUse" gradientTransform="translate(26.5475 15.8973) rotate(154.938) scale(1.07822 2.75514)">
<stop stop-color="#FFE675"/>
<stop offset="0.721175" stop-color="#FFE675" stop-opacity="0.185004"/>
<stop offset="1" stop-color="#FFE675" stop-opacity="0"/>
</radialGradient>
<radialGradient id="paint28_radial_4089_1421" cx="0" cy="0" r="1" gradientUnits="userSpaceOnUse" gradientTransform="translate(21.1724 10.6887) rotate(165.272) scale(0.929324 4.00836)">
<stop offset="0.131615" stop-color="#FFE675"/>
<stop offset="0.665228" stop-color="#FFE675" stop-opacity="0.185004"/>
<stop offset="0.813948" stop-color="#FFE675" stop-opacity="0.0520478"/>
<stop offset="1" stop-color="#FFE675" stop-opacity="0"/>
</radialGradient>
<radialGradient id="paint29_radial_4089_1421" cx="0" cy="0" r="1" gradientUnits="userSpaceOnUse" gradientTransform="translate(20.5397 8.94401) rotate(147.095) scale(0.911831 3.93291)">
<stop offset="0.164689" stop-color="#FFE675"/>
<stop offset="0.719375" stop-color="#FFE675" stop-opacity="0.185004"/>
<stop offset="1" stop-color="#FFE675" stop-opacity="0"/>
</radialGradient>
<linearGradient id="paint30_linear_4089_1421" x1="14.015" y1="9.85218" x2="11.6755" y2="12.315" gradientUnits="userSpaceOnUse">
<stop stop-color="#FFDA72"/>
<stop offset="1" stop-color="#F7A967"/>
</linearGradient>
<linearGradient id="paint31_linear_4089_1421" x1="12.5712" y1="13.8624" x2="12.5712" y2="11.1554" gradientUnits="userSpaceOnUse">
<stop stop-color="#FDA071"/>
<stop offset="1" stop-color="#FDA071" stop-opacity="0"/>
</linearGradient>
<radialGradient id="paint32_radial_4089_1421" cx="0" cy="0" r="1" gradientUnits="userSpaceOnUse" gradientTransform="translate(14.2199 11.7443) rotate(-113.707) scale(0.748753 1.71271)">
<stop stop-color="#EF7B54"/>
<stop offset="0.746285" stop-color="#EF7B54" stop-opacity="0.131386"/>
<stop offset="1" stop-color="#EF7B54" stop-opacity="0"/>
</radialGradient>
<radialGradient id="paint33_radial_4089_1421" cx="0" cy="0" r="1" gradientUnits="userSpaceOnUse" gradientTransform="translate(11.9129 13.0858) rotate(-24.6417) scale(0.932352 2.66826)">
<stop stop-color="#EF7B54"/>
<stop offset="0.501931" stop-color="#EF7B54" stop-opacity="0.462921"/>
<stop offset="0.802968" stop-color="#EF7B54" stop-opacity="0.131386"/>
<stop offset="1" stop-color="#EF7B54" stop-opacity="0"/>
</radialGradient>
<radialGradient id="paint34_radial_4089_1421" cx="0" cy="0" r="1" gradientUnits="userSpaceOnUse" gradientTransform="translate(10.5369 10.3022) rotate(21.5226) scale(2.30933 3.47619)">
<stop stop-color="#CD9943" stop-opacity="0.71"/>
<stop offset="0.801992" stop-color="#CD9943" stop-opacity="0.127511"/>
<stop offset="1" stop-color="#CD9943" stop-opacity="0"/>
</radialGradient>
<radialGradient id="paint35_radial_4089_1421" cx="0" cy="0" r="1" gradientUnits="userSpaceOnUse" gradientTransform="translate(10.8715 11.6018) rotate(-50.3009) scale(1.49082 3.19225)">
<stop stop-color="#CD9943" stop-opacity="0.79"/>
<stop offset="0.767589" stop-color="#CD9943" stop-opacity="0.127511"/>
<stop offset="1" stop-color="#CD9943" stop-opacity="0"/>
</radialGradient>
<radialGradient id="paint36_radial_4089_1421" cx="0" cy="0" r="1" gradientUnits="userSpaceOnUse" gradientTransform="translate(11.5319 9.12676) rotate(13.4957) scale(1.17888 2.17559)">
<stop stop-color="#CD9943"/>
<stop offset="0.767589" stop-color="#CD9943" stop-opacity="0.127511"/>
<stop offset="1" stop-color="#CD9943" stop-opacity="0"/>
</radialGradient>
<radialGradient id="paint37_radial_4089_1421" cx="0" cy="0" r="1" gradientUnits="userSpaceOnUse" gradientTransform="translate(12.2962 8.04108) rotate(41.9335) scale(0.64818 2.88837)">
<stop stop-color="#CD9943" stop-opacity="0.85"/>
<stop offset="0.760417" stop-color="#CD9943" stop-opacity="0.127511"/>
<stop offset="1" stop-color="#CD9943" stop-opacity="0"/>
</radialGradient>
<radialGradient id="paint38_radial_4089_1421" cx="0" cy="0" r="1" gradientUnits="userSpaceOnUse" gradientTransform="translate(13.3284 9.73871) rotate(155.008) scale(0.407832 0.850393)">
<stop stop-color="#FFE675"/>
<stop offset="0.65382" stop-color="#FFE675" stop-opacity="0.185004"/>
<stop offset="0.813038" stop-color="#FFE675" stop-opacity="0.107811"/>
<stop offset="1" stop-color="#FFE675" stop-opacity="0"/>
</radialGradient>
<radialGradient id="paint39_radial_4089_1421" cx="0" cy="0" r="1" gradientUnits="userSpaceOnUse" gradientTransform="translate(13.6758 10.0994) rotate(117.168) scale(0.336915 0.730629)">
<stop stop-color="#FFE675"/>
<stop offset="0.6685" stop-color="#FFE675" stop-opacity="0.185004"/>
<stop offset="0.831795" stop-color="#FFE675" stop-opacity="0.0637278"/>
<stop offset="1" stop-color="#FFE675" stop-opacity="0"/>
</radialGradient>
<radialGradient id="paint40_radial_4089_1421" cx="0" cy="0" r="1" gradientUnits="userSpaceOnUse" gradientTransform="translate(14.4477 10.4425) rotate(113.405) scale(0.368341 0.94121)">
<stop stop-color="#FFE675"/>
<stop offset="0.721175" stop-color="#FFE675" stop-opacity="0.185004"/>
<stop offset="1" stop-color="#FFE675" stop-opacity="0"/>
</radialGradient>
<radialGradient id="paint41_radial_4089_1421" cx="0" cy="0" r="1" gradientUnits="userSpaceOnUse" gradientTransform="translate(14.7877 10.657) rotate(154.938) scale(0.347032 0.886761)">
<stop stop-color="#FFE675"/>
<stop offset="0.721175" stop-color="#FFE675" stop-opacity="0.185004"/>
<stop offset="1" stop-color="#FFE675" stop-opacity="0"/>
</radialGradient>
<radialGradient id="paint42_radial_4089_1421" cx="0" cy="0" r="1" gradientUnits="userSpaceOnUse" gradientTransform="translate(13.0577 8.98061) rotate(165.272) scale(0.299109 1.29012)">
<stop offset="0.131615" stop-color="#FFE675"/>
<stop offset="0.665228" stop-color="#FFE675" stop-opacity="0.185004"/>
<stop offset="0.813948" stop-color="#FFE675" stop-opacity="0.0520478"/>
<stop offset="1" stop-color="#FFE675" stop-opacity="0"/>
</radialGradient>
<radialGradient id="paint43_radial_4089_1421" cx="0" cy="0" r="1" gradientUnits="userSpaceOnUse" gradientTransform="translate(12.854 8.41907) rotate(147.095) scale(0.293479 1.26583)">
<stop offset="0.164689" stop-color="#FFE675"/>
<stop offset="0.719375" stop-color="#FFE675" stop-opacity="0.185004"/>
<stop offset="1" stop-color="#FFE675" stop-opacity="0"/>
</radialGradient>
<radialGradient id="paint44_radial_4089_1421" cx="0" cy="0" r="1" gradientUnits="userSpaceOnUse" gradientTransform="translate(13.3114 17.6696) rotate(127.221) scale(4.64361 4.522)">
<stop offset="0.364601" stop-color="#FFBC64"/>
<stop offset="1" stop-color="#FF8F6B"/>
</radialGradient>
<radialGradient id="paint45_radial_4089_1421" cx="0" cy="0" r="1" gradientUnits="userSpaceOnUse" gradientTransform="translate(13.3294 21.073) rotate(-110.523) scale(0.735472 2.06707)">
<stop stop-color="#FF7576"/>
<stop offset="0.746285" stop-color="#FF7576" stop-opacity="0.131386"/>
<stop offset="1" stop-color="#FF7576" stop-opacity="0"/>
</radialGradient>
<radialGradient id="paint46_radial_4089_1421" cx="0" cy="0" r="1" gradientUnits="userSpaceOnUse" gradientTransform="translate(10.5688 22.9415) rotate(-16.7267) scale(0.571533 2.96086)">
<stop stop-color="#FF7576"/>
<stop offset="0.501931" stop-color="#FF7576" stop-opacity="0.462921"/>
<stop offset="0.802968" stop-color="#FF7576" stop-opacity="0.131386"/>
<stop offset="1" stop-color="#FF7576" stop-opacity="0"/>
</radialGradient>
<radialGradient id="paint47_radial_4089_1421" cx="0" cy="0" r="1" gradientUnits="userSpaceOnUse" gradientTransform="translate(9.99112 21.4101) rotate(-39.7419) scale(0.409753 0.763773)">
<stop stop-color="#FF7576"/>
<stop offset="0.501931" stop-color="#FF7576" stop-opacity="0.462921"/>
<stop offset="0.802968" stop-color="#FF7576" stop-opacity="0.131386"/>
<stop offset="1" stop-color="#FF7576" stop-opacity="0"/>
</radialGradient>
<radialGradient id="paint48_radial_4089_1421" cx="0" cy="0" r="1" gradientUnits="userSpaceOnUse" gradientTransform="translate(9.28262 20.9702) rotate(-64.6261) scale(0.448963 1.50195)">
<stop stop-color="#FF7576"/>
<stop offset="0.501931" stop-color="#FF7576" stop-opacity="0.462921"/>
<stop offset="1" stop-color="#FF7576" stop-opacity="0"/>
</radialGradient>
<radialGradient id="paint49_radial_4089_1421" cx="0" cy="0" r="1" gradientUnits="userSpaceOnUse" gradientTransform="translate(10.5654 22.6588) rotate(-15.0685) scale(0.167107 1.2193)">
<stop stop-color="#FF7576"/>
<stop offset="0.501931" stop-color="#FF7576" stop-opacity="0.462921"/>
<stop offset="1" stop-color="#FF7576" stop-opacity="0"/>
</radialGradient>
<radialGradient id="paint50_radial_4089_1421" cx="0" cy="0" r="1" gradientUnits="userSpaceOnUse" gradientTransform="translate(9.0099 20.9244) rotate(-61.9908) scale(0.521495 1.86229)">
<stop stop-color="#FF7576"/>
<stop offset="0.501931" stop-color="#EF7B54" stop-opacity="0.462921"/>
<stop offset="0.802968" stop-color="#FF7576" stop-opacity="0.131386"/>
<stop offset="1" stop-color="#FF7576" stop-opacity="0"/>
</radialGradient>
<radialGradient id="paint51_radial_4089_1421" cx="0" cy="0" r="1" gradientUnits="userSpaceOnUse" gradientTransform="translate(11.0609 23.7473) rotate(-75.1414) scale(0.420859 2.88485)">
<stop stop-color="#FF7576"/>
<stop offset="0.501931" stop-color="#FF7576" stop-opacity="0.462921"/>
<stop offset="0.802968" stop-color="#FF7576" stop-opacity="0.131386"/>
<stop offset="1" stop-color="#FF7576" stop-opacity="0"/>
</radialGradient>
<radialGradient id="paint52_radial_4089_1421" cx="0" cy="0" r="1" gradientUnits="userSpaceOnUse" gradientTransform="translate(8.97114 19.3368) rotate(68.4265) scale(0.254843 1.20994)">
<stop stop-color="#FF7576"/>
<stop offset="0.501931" stop-color="#FF7576" stop-opacity="0.462921"/>
<stop offset="0.802968" stop-color="#FF7576" stop-opacity="0.131386"/>
<stop offset="1" stop-color="#FF7576" stop-opacity="0"/>
</radialGradient>
<radialGradient id="paint53_radial_4089_1421" cx="0" cy="0" r="1" gradientUnits="userSpaceOnUse" gradientTransform="translate(9.89905 18.8053) rotate(45.4815) scale(0.353053 0.469972)">
<stop stop-color="#FF7576"/>
<stop offset="0.501931" stop-color="#FF7576" stop-opacity="0.462921"/>
<stop offset="0.802968" stop-color="#FF7576" stop-opacity="0.131386"/>
<stop offset="1" stop-color="#FF7576" stop-opacity="0"/>
</radialGradient>
<radialGradient id="paint54_radial_4089_1421" cx="0" cy="0" r="1" gradientUnits="userSpaceOnUse" gradientTransform="translate(10.2624 17.982) rotate(15.5241) scale(0.263678 1.18452)">
<stop stop-color="#FF7576"/>
<stop offset="0.501931" stop-color="#FF7576" stop-opacity="0.462921"/>
<stop offset="0.802968" stop-color="#FF7576" stop-opacity="0.131386"/>
<stop offset="1" stop-color="#FF7576" stop-opacity="0"/>
</radialGradient>
<radialGradient id="paint55_radial_4089_1421" cx="0" cy="0" r="1" gradientUnits="userSpaceOnUse" gradientTransform="translate(10.5687 17.0139) rotate(11.3099) scale(0.256887 1.15402)">
<stop stop-color="#FF7576"/>
<stop offset="0.501931" stop-color="#FF7576" stop-opacity="0.462921"/>
<stop offset="0.802968" stop-color="#FF7576" stop-opacity="0.131386"/>
<stop offset="1" stop-color="#FF7576" stop-opacity="0"/>
</radialGradient>
<radialGradient id="paint56_radial_4089_1421" cx="0" cy="0" r="1" gradientUnits="userSpaceOnUse" gradientTransform="translate(10.833 16.5108) rotate(28.8649) scale(0.23867 1.07218)">
<stop stop-color="#FF7576"/>
<stop offset="0.451537" stop-color="#FF7576" stop-opacity="0.462921"/>
<stop offset="0.716342" stop-color="#FF7576" stop-opacity="0.131386"/>
<stop offset="1" stop-color="#FF7576" stop-opacity="0"/>
</radialGradient>
<radialGradient id="paint57_radial_4089_1421" cx="0" cy="0" r="1" gradientUnits="userSpaceOnUse" gradientTransform="translate(8.20659 19.7482) rotate(36.0736) scale(0.314584 1.41321)">
<stop stop-color="#FF7576"/>
<stop offset="0.451537" stop-color="#FF7576" stop-opacity="0.462921"/>
<stop offset="0.716342" stop-color="#FF7576" stop-opacity="0.131386"/>
<stop offset="1" stop-color="#FF7576" stop-opacity="0"/>
</radialGradient>
<radialGradient id="paint58_radial_4089_1421" cx="0" cy="0" r="1" gradientUnits="userSpaceOnUse" gradientTransform="translate(8.0998 19.9553) scale(0.309358 1.38973)">
<stop stop-color="#FF7576"/>
<stop offset="0.451537" stop-color="#FF7576" stop-opacity="0.462921"/>
<stop offset="0.716342" stop-color="#FF7576" stop-opacity="0.131386"/>
<stop offset="1" stop-color="#FF7576" stop-opacity="0"/>
</radialGradient>
<radialGradient id="paint59_radial_4089_1421" cx="0" cy="0" r="1" gradientUnits="userSpaceOnUse" gradientTransform="translate(8.92155 19.2388) rotate(68.9625) scale(0.626429 1.79173)">
<stop stop-color="#CD9943"/>
<stop offset="0.767589" stop-color="#CD9943" stop-opacity="0.127511"/>
<stop offset="1" stop-color="#CD9943" stop-opacity="0"/>
</radialGradient>
<radialGradient id="paint60_radial_4089_1421" cx="0" cy="0" r="1" gradientUnits="userSpaceOnUse" gradientTransform="translate(10.3399 17.7326) rotate(20.4687) scale(0.53194 1.55018)">
<stop stop-color="#CD9943"/>
<stop offset="0.767589" stop-color="#CD9943" stop-opacity="0.127511"/>
<stop offset="1" stop-color="#CD9943" stop-opacity="0"/>
</radialGradient>
<radialGradient id="paint61_radial_4089_1421" cx="0" cy="0" r="1" gradientUnits="userSpaceOnUse" gradientTransform="translate(9.94943 18.4185) rotate(17.1619) scale(0.750993 1.16687)">
<stop stop-color="#CD9943"/>
<stop offset="0.767589" stop-color="#CD9943" stop-opacity="0.127511"/>
<stop offset="1" stop-color="#CD9943" stop-opacity="0"/>
</radialGradient>
<radialGradient id="paint62_radial_4089_1421" cx="0" cy="0" r="1" gradientUnits="userSpaceOnUse" gradientTransform="translate(10.8692 16.4069) rotate(28.7896) scale(0.412079 1.83628)">
<stop stop-color="#CD9943" stop-opacity="0.85"/>
<stop offset="0.760417" stop-color="#CD9943" stop-opacity="0.127511"/>
<stop offset="1" stop-color="#CD9943" stop-opacity="0"/>
</radialGradient>
<radialGradient id="paint63_radial_4089_1421" cx="0" cy="0" r="1" gradientUnits="userSpaceOnUse" gradientTransform="translate(11.2832 16.2633) rotate(85.1355) scale(0.405243 1.80581)">
<stop stop-color="#CD9943" stop-opacity="0.85"/>
<stop offset="0.810204" stop-color="#CD9943" stop-opacity="0.127511"/>
<stop offset="1" stop-color="#CD9943" stop-opacity="0"/>
</radialGradient>
<radialGradient id="paint64_radial_4089_1421" cx="0" cy="0" r="1" gradientUnits="userSpaceOnUse" gradientTransform="translate(8.1716 19.7372) rotate(36.9715) scale(0.372322 1.06493)">
<stop stop-color="#CD9943"/>
<stop offset="0.188174" stop-color="#CD9943" stop-opacity="0.508864"/>
<stop offset="0.703125" stop-color="#CD9943" stop-opacity="0.127511"/>
<stop offset="1" stop-color="#CD9943" stop-opacity="0"/>
</radialGradient>
<radialGradient id="paint65_radial_4089_1421" cx="0" cy="0" r="1" gradientUnits="userSpaceOnUse" gradientTransform="translate(7.98846 20.0811) rotate(-1.75033) scale(0.387233 1.10758)">
<stop stop-color="#CD9943"/>
<stop offset="0.244792" stop-color="#CD9943" stop-opacity="0.508864"/>
<stop offset="0.727949" stop-color="#CD9943" stop-opacity="0.127511"/>
<stop offset="1" stop-color="#CD9943" stop-opacity="0"/>
</radialGradient>
<radialGradient id="paint66_radial_4089_1421" cx="0" cy="0" r="1" gradientUnits="userSpaceOnUse" gradientTransform="translate(8.16016 20.5105) rotate(-45.971) scale(0.332536 2.2311)">
<stop stop-color="#CD9943"/>
<stop offset="0.244792" stop-color="#CD9943" stop-opacity="0.508864"/>
<stop offset="0.727949" stop-color="#CD9943" stop-opacity="0.127511"/>
<stop offset="1" stop-color="#CD9943" stop-opacity="0"/>
</radialGradient>
<radialGradient id="paint67_radial_4089_1421" cx="0" cy="0" r="1" gradientUnits="userSpaceOnUse" gradientTransform="translate(12.2482 18.5435) rotate(155.008) scale(0.568702 1.18583)">
<stop stop-color="#FFE675"/>
<stop offset="0.65382" stop-color="#FFE675" stop-opacity="0.185004"/>
<stop offset="0.813038" stop-color="#FFE675" stop-opacity="0.107811"/>
<stop offset="1" stop-color="#FFE675" stop-opacity="0"/>
</radialGradient>
<radialGradient id="paint68_radial_4089_1421" cx="0" cy="0" r="1" gradientUnits="userSpaceOnUse" gradientTransform="translate(12.7326 19.0465) rotate(117.168) scale(0.469813 1.01883)">
<stop stop-color="#FFE675"/>
<stop offset="0.6685" stop-color="#FFE675" stop-opacity="0.185004"/>
<stop offset="0.831795" stop-color="#FFE675" stop-opacity="0.0637278"/>
<stop offset="1" stop-color="#FFE675" stop-opacity="0"/>
</radialGradient>
<radialGradient id="paint69_radial_4089_1421" cx="0" cy="0" r="1" gradientUnits="userSpaceOnUse" gradientTransform="translate(13.809 19.5249) rotate(113.405) scale(0.513634 1.31247)">
<stop stop-color="#FFE675"/>
<stop offset="0.721175" stop-color="#FFE675" stop-opacity="0.185004"/>
<stop offset="1" stop-color="#FFE675" stop-opacity="0"/>
</radialGradient>
<radialGradient id="paint70_radial_4089_1421" cx="0" cy="0" r="1" gradientUnits="userSpaceOnUse" gradientTransform="translate(14.2831 19.8241) rotate(154.938) scale(0.48392 1.23655)">
<stop stop-color="#FFE675"/>
<stop offset="0.721175" stop-color="#FFE675" stop-opacity="0.185004"/>
<stop offset="1" stop-color="#FFE675" stop-opacity="0"/>
</radialGradient>
<radialGradient id="paint71_radial_4089_1421" cx="0" cy="0" r="1" gradientUnits="userSpaceOnUse" gradientTransform="translate(11.8706 17.4863) rotate(165.272) scale(0.417094 1.79901)">
<stop offset="0.131615" stop-color="#FFE675"/>
<stop offset="0.665228" stop-color="#FFE675" stop-opacity="0.185004"/>
<stop offset="0.813948" stop-color="#FFE675" stop-opacity="0.0520478"/>
<stop offset="1" stop-color="#FFE675" stop-opacity="0"/>
</radialGradient>
<radialGradient id="paint72_radial_4089_1421" cx="0" cy="0" r="1" gradientUnits="userSpaceOnUse" gradientTransform="translate(11.5867 16.7033) rotate(147.095) scale(0.409243 1.76515)">
<stop offset="0.164689" stop-color="#FFE675"/>
<stop offset="0.719375" stop-color="#FFE675" stop-opacity="0.185004"/>
<stop offset="1" stop-color="#FFE675" stop-opacity="0"/>
</radialGradient>
</defs>
</svg>
