<svg width="35" height="32" viewBox="0 0 35 32" fill="none" xmlns="http://www.w3.org/2000/svg">
<rect width="35" height="32" rx="6" fill="white"/>
<path d="M15.8926 7.54352C16.8974 6.41239 18.2637 6.59242 19.1379 7.54352L19.6711 8.1608C19.8557 8.36164 20.1228 8.46579 20.3947 8.4429L21.3425 8.1608C22.6345 7.88383 23.8086 8.8477 23.8086 10.3448V10.9087C23.836 11.2166 24.1049 11.4253 24.3826 11.5609L25.239 11.9187C26.4778 12.5237 26.7873 13.9593 25.885 15.1641L25.6286 15.5025C25.3987 15.8133 25.4459 16.2213 25.6748 16.533L25.9311 16.8919C26.8642 18.0403 26.3381 19.6159 25.0201 20.1664L24.2828 20.4743C24.0052 20.5903 23.8964 20.7893 23.8445 21.0857L23.7932 22.0496C23.6138 23.3724 22.4389 23.9698 21.4963 23.8364L20.3735 23.5364C20.1039 23.4982 19.7685 23.5877 19.5891 23.8697L19.1841 24.4234C18.1792 25.5564 16.8229 25.368 16.1387 24.7054L15.3915 23.8005C15.1958 23.611 14.9492 23.4493 14.654 23.5607L13.5239 23.8697C12.5909 24.0018 11.4923 23.2845 11.3165 22.3588L11.186 21.0191C11.1331 20.7402 10.9492 20.5039 10.6919 20.384L9.89916 20.1116C8.70707 19.5561 8.30779 18.2112 8.99226 17.0882L9.43907 16.4703C9.61854 16.1758 9.61001 15.8038 9.41723 15.5179L9.08398 15.0462C8.14063 13.7029 8.79285 12.2015 10.1907 11.7514L10.499 11.6521C10.8393 11.5426 11.168 11.26 11.1963 10.9036L11.265 10.0385C11.3764 8.6343 12.6577 7.82855 14.0055 8.23826L14.4416 8.37086C14.862 8.53492 15.1914 8.3952 15.4209 8.14527L15.8926 7.54352Z" fill="url(#paint0_linear_784_4030)"/>
<path d="M15.8926 7.54352C16.8974 6.41239 18.2637 6.59242 19.1379 7.54352L19.6711 8.1608C19.8557 8.36164 20.1228 8.46579 20.3947 8.4429L21.3425 8.1608C22.6345 7.88383 23.8086 8.8477 23.8086 10.3448V10.9087C23.836 11.2166 24.1049 11.4253 24.3826 11.5609L25.239 11.9187C26.4778 12.5237 26.7873 13.9593 25.885 15.1641L25.6286 15.5025C25.3987 15.8133 25.4459 16.2213 25.6748 16.533L25.9311 16.8919C26.8642 18.0403 26.3381 19.6159 25.0201 20.1664L24.2828 20.4743C24.0052 20.5903 23.8964 20.7893 23.8445 21.0857L23.7932 22.0496C23.6138 23.3724 22.4389 23.9698 21.4963 23.8364L20.3735 23.5364C20.1039 23.4982 19.7685 23.5877 19.5891 23.8697L19.1841 24.4234C18.1792 25.5564 16.8229 25.368 16.1387 24.7054L15.3915 23.8005C15.1958 23.611 14.9492 23.4493 14.654 23.5607L13.5239 23.8697C12.5909 24.0018 11.4923 23.2845 11.3165 22.3588L11.186 21.0191C11.1331 20.7402 10.9492 20.5039 10.6919 20.384L9.89916 20.1116C8.70707 19.5561 8.30779 18.2112 8.99226 17.0882L9.43907 16.4703C9.61854 16.1758 9.61001 15.8038 9.41723 15.5179L9.08398 15.0462C8.14063 13.7029 8.79285 12.2015 10.1907 11.7514L10.499 11.6521C10.8393 11.5426 11.168 11.26 11.1963 10.9036L11.265 10.0385C11.3764 8.6343 12.6577 7.82855 14.0055 8.23826L14.4416 8.37086C14.862 8.53492 15.1914 8.3952 15.4209 8.14527L15.8926 7.54352Z" fill="url(#paint1_radial_784_4030)"/>
<path d="M15.8926 7.54352C16.8974 6.41239 18.2637 6.59242 19.1379 7.54352L19.6711 8.1608C19.8557 8.36164 20.1228 8.46579 20.3947 8.4429L21.3425 8.1608C22.6345 7.88383 23.8086 8.8477 23.8086 10.3448V10.9087C23.836 11.2166 24.1049 11.4253 24.3826 11.5609L25.239 11.9187C26.4778 12.5237 26.7873 13.9593 25.885 15.1641L25.6286 15.5025C25.3987 15.8133 25.4459 16.2213 25.6748 16.533L25.9311 16.8919C26.8642 18.0403 26.3381 19.6159 25.0201 20.1664L24.2828 20.4743C24.0052 20.5903 23.8964 20.7893 23.8445 21.0857L23.7932 22.0496C23.6138 23.3724 22.4389 23.9698 21.4963 23.8364L20.3735 23.5364C20.1039 23.4982 19.7685 23.5877 19.5891 23.8697L19.1841 24.4234C18.1792 25.5564 16.8229 25.368 16.1387 24.7054L15.3915 23.8005C15.1958 23.611 14.9492 23.4493 14.654 23.5607L13.5239 23.8697C12.5909 24.0018 11.4923 23.2845 11.3165 22.3588L11.186 21.0191C11.1331 20.7402 10.9492 20.5039 10.6919 20.384L9.89916 20.1116C8.70707 19.5561 8.30779 18.2112 8.99226 17.0882L9.43907 16.4703C9.61854 16.1758 9.61001 15.8038 9.41723 15.5179L9.08398 15.0462C8.14063 13.7029 8.79285 12.2015 10.1907 11.7514L10.499 11.6521C10.8393 11.5426 11.168 11.26 11.1963 10.9036L11.265 10.0385C11.3764 8.6343 12.6577 7.82855 14.0055 8.23826L14.4416 8.37086C14.862 8.53492 15.1914 8.3952 15.4209 8.14527L15.8926 7.54352Z" fill="url(#paint2_radial_784_4030)"/>
<path d="M15.8926 7.54352C16.8974 6.41239 18.2637 6.59242 19.1379 7.54352L19.6711 8.1608C19.8557 8.36164 20.1228 8.46579 20.3947 8.4429L21.3425 8.1608C22.6345 7.88383 23.8086 8.8477 23.8086 10.3448V10.9087C23.836 11.2166 24.1049 11.4253 24.3826 11.5609L25.239 11.9187C26.4778 12.5237 26.7873 13.9593 25.885 15.1641L25.6286 15.5025C25.3987 15.8133 25.4459 16.2213 25.6748 16.533L25.9311 16.8919C26.8642 18.0403 26.3381 19.6159 25.0201 20.1664L24.2828 20.4743C24.0052 20.5903 23.8964 20.7893 23.8445 21.0857L23.7932 22.0496C23.6138 23.3724 22.4389 23.9698 21.4963 23.8364L20.3735 23.5364C20.1039 23.4982 19.7685 23.5877 19.5891 23.8697L19.1841 24.4234C18.1792 25.5564 16.8229 25.368 16.1387 24.7054L15.3915 23.8005C15.1958 23.611 14.9492 23.4493 14.654 23.5607L13.5239 23.8697C12.5909 24.0018 11.4923 23.2845 11.3165 22.3588L11.186 21.0191C11.1331 20.7402 10.9492 20.5039 10.6919 20.384L9.89916 20.1116C8.70707 19.5561 8.30779 18.2112 8.99226 17.0882L9.43907 16.4703C9.61854 16.1758 9.61001 15.8038 9.41723 15.5179L9.08398 15.0462C8.14063 13.7029 8.79285 12.2015 10.1907 11.7514L10.499 11.6521C10.8393 11.5426 11.168 11.26 11.1963 10.9036L11.265 10.0385C11.3764 8.6343 12.6577 7.82855 14.0055 8.23826L14.4416 8.37086C14.862 8.53492 15.1914 8.3952 15.4209 8.14527L15.8926 7.54352Z" fill="url(#paint3_radial_784_4030)"/>
<path d="M15.8926 7.54352C16.8974 6.41239 18.2637 6.59242 19.1379 7.54352L19.6711 8.1608C19.8557 8.36164 20.1228 8.46579 20.3947 8.4429L21.3425 8.1608C22.6345 7.88383 23.8086 8.8477 23.8086 10.3448V10.9087C23.836 11.2166 24.1049 11.4253 24.3826 11.5609L25.239 11.9187C26.4778 12.5237 26.7873 13.9593 25.885 15.1641L25.6286 15.5025C25.3987 15.8133 25.4459 16.2213 25.6748 16.533L25.9311 16.8919C26.8642 18.0403 26.3381 19.6159 25.0201 20.1664L24.2828 20.4743C24.0052 20.5903 23.8964 20.7893 23.8445 21.0857L23.7932 22.0496C23.6138 23.3724 22.4389 23.9698 21.4963 23.8364L20.3735 23.5364C20.1039 23.4982 19.7685 23.5877 19.5891 23.8697L19.1841 24.4234C18.1792 25.5564 16.8229 25.368 16.1387 24.7054L15.3915 23.8005C15.1958 23.611 14.9492 23.4493 14.654 23.5607L13.5239 23.8697C12.5909 24.0018 11.4923 23.2845 11.3165 22.3588L11.186 21.0191C11.1331 20.7402 10.9492 20.5039 10.6919 20.384L9.89916 20.1116C8.70707 19.5561 8.30779 18.2112 8.99226 17.0882L9.43907 16.4703C9.61854 16.1758 9.61001 15.8038 9.41723 15.5179L9.08398 15.0462C8.14063 13.7029 8.79285 12.2015 10.1907 11.7514L10.499 11.6521C10.8393 11.5426 11.168 11.26 11.1963 10.9036L11.265 10.0385C11.3764 8.6343 12.6577 7.82855 14.0055 8.23826L14.4416 8.37086C14.862 8.53492 15.1914 8.3952 15.4209 8.14527L15.8926 7.54352Z" fill="url(#paint4_radial_784_4030)"/>
<path d="M15.8926 7.54352C16.8974 6.41239 18.2637 6.59242 19.1379 7.54352L19.6711 8.1608C19.8557 8.36164 20.1228 8.46579 20.3947 8.4429L21.3425 8.1608C22.6345 7.88383 23.8086 8.8477 23.8086 10.3448V10.9087C23.836 11.2166 24.1049 11.4253 24.3826 11.5609L25.239 11.9187C26.4778 12.5237 26.7873 13.9593 25.885 15.1641L25.6286 15.5025C25.3987 15.8133 25.4459 16.2213 25.6748 16.533L25.9311 16.8919C26.8642 18.0403 26.3381 19.6159 25.0201 20.1664L24.2828 20.4743C24.0052 20.5903 23.8964 20.7893 23.8445 21.0857L23.7932 22.0496C23.6138 23.3724 22.4389 23.9698 21.4963 23.8364L20.3735 23.5364C20.1039 23.4982 19.7685 23.5877 19.5891 23.8697L19.1841 24.4234C18.1792 25.5564 16.8229 25.368 16.1387 24.7054L15.3915 23.8005C15.1958 23.611 14.9492 23.4493 14.654 23.5607L13.5239 23.8697C12.5909 24.0018 11.4923 23.2845 11.3165 22.3588L11.186 21.0191C11.1331 20.7402 10.9492 20.5039 10.6919 20.384L9.89916 20.1116C8.70707 19.5561 8.30779 18.2112 8.99226 17.0882L9.43907 16.4703C9.61854 16.1758 9.61001 15.8038 9.41723 15.5179L9.08398 15.0462C8.14063 13.7029 8.79285 12.2015 10.1907 11.7514L10.499 11.6521C10.8393 11.5426 11.168 11.26 11.1963 10.9036L11.265 10.0385C11.3764 8.6343 12.6577 7.82855 14.0055 8.23826L14.4416 8.37086C14.862 8.53492 15.1914 8.3952 15.4209 8.14527L15.8926 7.54352Z" fill="url(#paint5_radial_784_4030)"/>
<path d="M15.8926 7.54352C16.8974 6.41239 18.2637 6.59242 19.1379 7.54352L19.6711 8.1608C19.8557 8.36164 20.1228 8.46579 20.3947 8.4429L21.3425 8.1608C22.6345 7.88383 23.8086 8.8477 23.8086 10.3448V10.9087C23.836 11.2166 24.1049 11.4253 24.3826 11.5609L25.239 11.9187C26.4778 12.5237 26.7873 13.9593 25.885 15.1641L25.6286 15.5025C25.3987 15.8133 25.4459 16.2213 25.6748 16.533L25.9311 16.8919C26.8642 18.0403 26.3381 19.6159 25.0201 20.1664L24.2828 20.4743C24.0052 20.5903 23.8964 20.7893 23.8445 21.0857L23.7932 22.0496C23.6138 23.3724 22.4389 23.9698 21.4963 23.8364L20.3735 23.5364C20.1039 23.4982 19.7685 23.5877 19.5891 23.8697L19.1841 24.4234C18.1792 25.5564 16.8229 25.368 16.1387 24.7054L15.3915 23.8005C15.1958 23.611 14.9492 23.4493 14.654 23.5607L13.5239 23.8697C12.5909 24.0018 11.4923 23.2845 11.3165 22.3588L11.186 21.0191C11.1331 20.7402 10.9492 20.5039 10.6919 20.384L9.89916 20.1116C8.70707 19.5561 8.30779 18.2112 8.99226 17.0882L9.43907 16.4703C9.61854 16.1758 9.61001 15.8038 9.41723 15.5179L9.08398 15.0462C8.14063 13.7029 8.79285 12.2015 10.1907 11.7514L10.499 11.6521C10.8393 11.5426 11.168 11.26 11.1963 10.9036L11.265 10.0385C11.3764 8.6343 12.6577 7.82855 14.0055 8.23826L14.4416 8.37086C14.862 8.53492 15.1914 8.3952 15.4209 8.14527L15.8926 7.54352Z" fill="url(#paint6_radial_784_4030)" fill-opacity="0.6"/>
<path d="M15.8926 7.54352C16.8974 6.41239 18.2637 6.59242 19.1379 7.54352L19.6711 8.1608C19.8557 8.36164 20.1228 8.46579 20.3947 8.4429L21.3425 8.1608C22.6345 7.88383 23.8086 8.8477 23.8086 10.3448V10.9087C23.836 11.2166 24.1049 11.4253 24.3826 11.5609L25.239 11.9187C26.4778 12.5237 26.7873 13.9593 25.885 15.1641L25.6286 15.5025C25.3987 15.8133 25.4459 16.2213 25.6748 16.533L25.9311 16.8919C26.8642 18.0403 26.3381 19.6159 25.0201 20.1664L24.2828 20.4743C24.0052 20.5903 23.8964 20.7893 23.8445 21.0857L23.7932 22.0496C23.6138 23.3724 22.4389 23.9698 21.4963 23.8364L20.3735 23.5364C20.1039 23.4982 19.7685 23.5877 19.5891 23.8697L19.1841 24.4234C18.1792 25.5564 16.8229 25.368 16.1387 24.7054L15.3915 23.8005C15.1958 23.611 14.9492 23.4493 14.654 23.5607L13.5239 23.8697C12.5909 24.0018 11.4923 23.2845 11.3165 22.3588L11.186 21.0191C11.1331 20.7402 10.9492 20.5039 10.6919 20.384L9.89916 20.1116C8.70707 19.5561 8.30779 18.2112 8.99226 17.0882L9.43907 16.4703C9.61854 16.1758 9.61001 15.8038 9.41723 15.5179L9.08398 15.0462C8.14063 13.7029 8.79285 12.2015 10.1907 11.7514L10.499 11.6521C10.8393 11.5426 11.168 11.26 11.1963 10.9036L11.265 10.0385C11.3764 8.6343 12.6577 7.82855 14.0055 8.23826L14.4416 8.37086C14.862 8.53492 15.1914 8.3952 15.4209 8.14527L15.8926 7.54352Z" fill="url(#paint7_radial_784_4030)" fill-opacity="0.7"/>
<path d="M15.8926 7.54352C16.8974 6.41239 18.2637 6.59242 19.1379 7.54352L19.6711 8.1608C19.8557 8.36164 20.1228 8.46579 20.3947 8.4429L21.3425 8.1608C22.6345 7.88383 23.8086 8.8477 23.8086 10.3448V10.9087C23.836 11.2166 24.1049 11.4253 24.3826 11.5609L25.239 11.9187C26.4778 12.5237 26.7873 13.9593 25.885 15.1641L25.6286 15.5025C25.3987 15.8133 25.4459 16.2213 25.6748 16.533L25.9311 16.8919C26.8642 18.0403 26.3381 19.6159 25.0201 20.1664L24.2828 20.4743C24.0052 20.5903 23.8964 20.7893 23.8445 21.0857L23.7932 22.0496C23.6138 23.3724 22.4389 23.9698 21.4963 23.8364L20.3735 23.5364C20.1039 23.4982 19.7685 23.5877 19.5891 23.8697L19.1841 24.4234C18.1792 25.5564 16.8229 25.368 16.1387 24.7054L15.3915 23.8005C15.1958 23.611 14.9492 23.4493 14.654 23.5607L13.5239 23.8697C12.5909 24.0018 11.4923 23.2845 11.3165 22.3588L11.186 21.0191C11.1331 20.7402 10.9492 20.5039 10.6919 20.384L9.89916 20.1116C8.70707 19.5561 8.30779 18.2112 8.99226 17.0882L9.43907 16.4703C9.61854 16.1758 9.61001 15.8038 9.41723 15.5179L9.08398 15.0462C8.14063 13.7029 8.79285 12.2015 10.1907 11.7514L10.499 11.6521C10.8393 11.5426 11.168 11.26 11.1963 10.9036L11.265 10.0385C11.3764 8.6343 12.6577 7.82855 14.0055 8.23826L14.4416 8.37086C14.862 8.53492 15.1914 8.3952 15.4209 8.14527L15.8926 7.54352Z" fill="url(#paint8_radial_784_4030)" fill-opacity="0.7"/>
<path d="M15.8926 7.54352C16.8974 6.41239 18.2637 6.59242 19.1379 7.54352L19.6711 8.1608C19.8557 8.36164 20.1228 8.46579 20.3947 8.4429L21.3425 8.1608C22.6345 7.88383 23.8086 8.8477 23.8086 10.3448V10.9087C23.836 11.2166 24.1049 11.4253 24.3826 11.5609L25.239 11.9187C26.4778 12.5237 26.7873 13.9593 25.885 15.1641L25.6286 15.5025C25.3987 15.8133 25.4459 16.2213 25.6748 16.533L25.9311 16.8919C26.8642 18.0403 26.3381 19.6159 25.0201 20.1664L24.2828 20.4743C24.0052 20.5903 23.8964 20.7893 23.8445 21.0857L23.7932 22.0496C23.6138 23.3724 22.4389 23.9698 21.4963 23.8364L20.3735 23.5364C20.1039 23.4982 19.7685 23.5877 19.5891 23.8697L19.1841 24.4234C18.1792 25.5564 16.8229 25.368 16.1387 24.7054L15.3915 23.8005C15.1958 23.611 14.9492 23.4493 14.654 23.5607L13.5239 23.8697C12.5909 24.0018 11.4923 23.2845 11.3165 22.3588L11.186 21.0191C11.1331 20.7402 10.9492 20.5039 10.6919 20.384L9.89916 20.1116C8.70707 19.5561 8.30779 18.2112 8.99226 17.0882L9.43907 16.4703C9.61854 16.1758 9.61001 15.8038 9.41723 15.5179L9.08398 15.0462C8.14063 13.7029 8.79285 12.2015 10.1907 11.7514L10.499 11.6521C10.8393 11.5426 11.168 11.26 11.1963 10.9036L11.265 10.0385C11.3764 8.6343 12.6577 7.82855 14.0055 8.23826L14.4416 8.37086C14.862 8.53492 15.1914 8.3952 15.4209 8.14527L15.8926 7.54352Z" fill="url(#paint9_radial_784_4030)"/>
<path d="M15.8926 7.54352C16.8974 6.41239 18.2637 6.59242 19.1379 7.54352L19.6711 8.1608C19.8557 8.36164 20.1228 8.46579 20.3947 8.4429L21.3425 8.1608C22.6345 7.88383 23.8086 8.8477 23.8086 10.3448V10.9087C23.836 11.2166 24.1049 11.4253 24.3826 11.5609L25.239 11.9187C26.4778 12.5237 26.7873 13.9593 25.885 15.1641L25.6286 15.5025C25.3987 15.8133 25.4459 16.2213 25.6748 16.533L25.9311 16.8919C26.8642 18.0403 26.3381 19.6159 25.0201 20.1664L24.2828 20.4743C24.0052 20.5903 23.8964 20.7893 23.8445 21.0857L23.7932 22.0496C23.6138 23.3724 22.4389 23.9698 21.4963 23.8364L20.3735 23.5364C20.1039 23.4982 19.7685 23.5877 19.5891 23.8697L19.1841 24.4234C18.1792 25.5564 16.8229 25.368 16.1387 24.7054L15.3915 23.8005C15.1958 23.611 14.9492 23.4493 14.654 23.5607L13.5239 23.8697C12.5909 24.0018 11.4923 23.2845 11.3165 22.3588L11.186 21.0191C11.1331 20.7402 10.9492 20.5039 10.6919 20.384L9.89916 20.1116C8.70707 19.5561 8.30779 18.2112 8.99226 17.0882L9.43907 16.4703C9.61854 16.1758 9.61001 15.8038 9.41723 15.5179L9.08398 15.0462C8.14063 13.7029 8.79285 12.2015 10.1907 11.7514L10.499 11.6521C10.8393 11.5426 11.168 11.26 11.1963 10.9036L11.265 10.0385C11.3764 8.6343 12.6577 7.82855 14.0055 8.23826L14.4416 8.37086C14.862 8.53492 15.1914 8.3952 15.4209 8.14527L15.8926 7.54352Z" fill="url(#paint10_radial_784_4030)" fill-opacity="0.7"/>
<path d="M15.8926 7.54352C16.8974 6.41239 18.2637 6.59242 19.1379 7.54352L19.6711 8.1608C19.8557 8.36164 20.1228 8.46579 20.3947 8.4429L21.3425 8.1608C22.6345 7.88383 23.8086 8.8477 23.8086 10.3448V10.9087C23.836 11.2166 24.1049 11.4253 24.3826 11.5609L25.239 11.9187C26.4778 12.5237 26.7873 13.9593 25.885 15.1641L25.6286 15.5025C25.3987 15.8133 25.4459 16.2213 25.6748 16.533L25.9311 16.8919C26.8642 18.0403 26.3381 19.6159 25.0201 20.1664L24.2828 20.4743C24.0052 20.5903 23.8964 20.7893 23.8445 21.0857L23.7932 22.0496C23.6138 23.3724 22.4389 23.9698 21.4963 23.8364L20.3735 23.5364C20.1039 23.4982 19.7685 23.5877 19.5891 23.8697L19.1841 24.4234C18.1792 25.5564 16.8229 25.368 16.1387 24.7054L15.3915 23.8005C15.1958 23.611 14.9492 23.4493 14.654 23.5607L13.5239 23.8697C12.5909 24.0018 11.4923 23.2845 11.3165 22.3588L11.186 21.0191C11.1331 20.7402 10.9492 20.5039 10.6919 20.384L9.89916 20.1116C8.70707 19.5561 8.30779 18.2112 8.99226 17.0882L9.43907 16.4703C9.61854 16.1758 9.61001 15.8038 9.41723 15.5179L9.08398 15.0462C8.14063 13.7029 8.79285 12.2015 10.1907 11.7514L10.499 11.6521C10.8393 11.5426 11.168 11.26 11.1963 10.9036L11.265 10.0385C11.3764 8.6343 12.6577 7.82855 14.0055 8.23826L14.4416 8.37086C14.862 8.53492 15.1914 8.3952 15.4209 8.14527L15.8926 7.54352Z" fill="url(#paint11_radial_784_4030)" fill-opacity="0.7"/>
<path d="M15.8926 7.54352C16.8974 6.41239 18.2637 6.59242 19.1379 7.54352L19.6711 8.1608C19.8557 8.36164 20.1228 8.46579 20.3947 8.4429L21.3425 8.1608C22.6345 7.88383 23.8086 8.8477 23.8086 10.3448V10.9087C23.836 11.2166 24.1049 11.4253 24.3826 11.5609L25.239 11.9187C26.4778 12.5237 26.7873 13.9593 25.885 15.1641L25.6286 15.5025C25.3987 15.8133 25.4459 16.2213 25.6748 16.533L25.9311 16.8919C26.8642 18.0403 26.3381 19.6159 25.0201 20.1664L24.2828 20.4743C24.0052 20.5903 23.8964 20.7893 23.8445 21.0857L23.7932 22.0496C23.6138 23.3724 22.4389 23.9698 21.4963 23.8364L20.3735 23.5364C20.1039 23.4982 19.7685 23.5877 19.5891 23.8697L19.1841 24.4234C18.1792 25.5564 16.8229 25.368 16.1387 24.7054L15.3915 23.8005C15.1958 23.611 14.9492 23.4493 14.654 23.5607L13.5239 23.8697C12.5909 24.0018 11.4923 23.2845 11.3165 22.3588L11.186 21.0191C11.1331 20.7402 10.9492 20.5039 10.6919 20.384L9.89916 20.1116C8.70707 19.5561 8.30779 18.2112 8.99226 17.0882L9.43907 16.4703C9.61854 16.1758 9.61001 15.8038 9.41723 15.5179L9.08398 15.0462C8.14063 13.7029 8.79285 12.2015 10.1907 11.7514L10.499 11.6521C10.8393 11.5426 11.168 11.26 11.1963 10.9036L11.265 10.0385C11.3764 8.6343 12.6577 7.82855 14.0055 8.23826L14.4416 8.37086C14.862 8.53492 15.1914 8.3952 15.4209 8.14527L15.8926 7.54352Z" fill="url(#paint12_radial_784_4030)"/>
<path d="M15.8926 7.54352C16.8974 6.41239 18.2637 6.59242 19.1379 7.54352L19.6711 8.1608C19.8557 8.36164 20.1228 8.46579 20.3947 8.4429L21.3425 8.1608C22.6345 7.88383 23.8086 8.8477 23.8086 10.3448V10.9087C23.836 11.2166 24.1049 11.4253 24.3826 11.5609L25.239 11.9187C26.4778 12.5237 26.7873 13.9593 25.885 15.1641L25.6286 15.5025C25.3987 15.8133 25.4459 16.2213 25.6748 16.533L25.9311 16.8919C26.8642 18.0403 26.3381 19.6159 25.0201 20.1664L24.2828 20.4743C24.0052 20.5903 23.8964 20.7893 23.8445 21.0857L23.7932 22.0496C23.6138 23.3724 22.4389 23.9698 21.4963 23.8364L20.3735 23.5364C20.1039 23.4982 19.7685 23.5877 19.5891 23.8697L19.1841 24.4234C18.1792 25.5564 16.8229 25.368 16.1387 24.7054L15.3915 23.8005C15.1958 23.611 14.9492 23.4493 14.654 23.5607L13.5239 23.8697C12.5909 24.0018 11.4923 23.2845 11.3165 22.3588L11.186 21.0191C11.1331 20.7402 10.9492 20.5039 10.6919 20.384L9.89916 20.1116C8.70707 19.5561 8.30779 18.2112 8.99226 17.0882L9.43907 16.4703C9.61854 16.1758 9.61001 15.8038 9.41723 15.5179L9.08398 15.0462C8.14063 13.7029 8.79285 12.2015 10.1907 11.7514L10.499 11.6521C10.8393 11.5426 11.168 11.26 11.1963 10.9036L11.265 10.0385C11.3764 8.6343 12.6577 7.82855 14.0055 8.23826L14.4416 8.37086C14.862 8.53492 15.1914 8.3952 15.4209 8.14527L15.8926 7.54352Z" fill="url(#paint13_radial_784_4030)"/>
<path d="M15.8926 7.54352C16.8974 6.41239 18.2637 6.59242 19.1379 7.54352L19.6711 8.1608C19.8557 8.36164 20.1228 8.46579 20.3947 8.4429L21.3425 8.1608C22.6345 7.88383 23.8086 8.8477 23.8086 10.3448V10.9087C23.836 11.2166 24.1049 11.4253 24.3826 11.5609L25.239 11.9187C26.4778 12.5237 26.7873 13.9593 25.885 15.1641L25.6286 15.5025C25.3987 15.8133 25.4459 16.2213 25.6748 16.533L25.9311 16.8919C26.8642 18.0403 26.3381 19.6159 25.0201 20.1664L24.2828 20.4743C24.0052 20.5903 23.8964 20.7893 23.8445 21.0857L23.7932 22.0496C23.6138 23.3724 22.4389 23.9698 21.4963 23.8364L20.3735 23.5364C20.1039 23.4982 19.7685 23.5877 19.5891 23.8697L19.1841 24.4234C18.1792 25.5564 16.8229 25.368 16.1387 24.7054L15.3915 23.8005C15.1958 23.611 14.9492 23.4493 14.654 23.5607L13.5239 23.8697C12.5909 24.0018 11.4923 23.2845 11.3165 22.3588L11.186 21.0191C11.1331 20.7402 10.9492 20.5039 10.6919 20.384L9.89916 20.1116C8.70707 19.5561 8.30779 18.2112 8.99226 17.0882L9.43907 16.4703C9.61854 16.1758 9.61001 15.8038 9.41723 15.5179L9.08398 15.0462C8.14063 13.7029 8.79285 12.2015 10.1907 11.7514L10.499 11.6521C10.8393 11.5426 11.168 11.26 11.1963 10.9036L11.265 10.0385C11.3764 8.6343 12.6577 7.82855 14.0055 8.23826L14.4416 8.37086C14.862 8.53492 15.1914 8.3952 15.4209 8.14527L15.8926 7.54352Z" fill="url(#paint14_radial_784_4030)"/>
<path d="M15.8926 7.54352C16.8974 6.41239 18.2637 6.59242 19.1379 7.54352L19.6711 8.1608C19.8557 8.36164 20.1228 8.46579 20.3947 8.4429L21.3425 8.1608C22.6345 7.88383 23.8086 8.8477 23.8086 10.3448V10.9087C23.836 11.2166 24.1049 11.4253 24.3826 11.5609L25.239 11.9187C26.4778 12.5237 26.7873 13.9593 25.885 15.1641L25.6286 15.5025C25.3987 15.8133 25.4459 16.2213 25.6748 16.533L25.9311 16.8919C26.8642 18.0403 26.3381 19.6159 25.0201 20.1664L24.2828 20.4743C24.0052 20.5903 23.8964 20.7893 23.8445 21.0857L23.7932 22.0496C23.6138 23.3724 22.4389 23.9698 21.4963 23.8364L20.3735 23.5364C20.1039 23.4982 19.7685 23.5877 19.5891 23.8697L19.1841 24.4234C18.1792 25.5564 16.8229 25.368 16.1387 24.7054L15.3915 23.8005C15.1958 23.611 14.9492 23.4493 14.654 23.5607L13.5239 23.8697C12.5909 24.0018 11.4923 23.2845 11.3165 22.3588L11.186 21.0191C11.1331 20.7402 10.9492 20.5039 10.6919 20.384L9.89916 20.1116C8.70707 19.5561 8.30779 18.2112 8.99226 17.0882L9.43907 16.4703C9.61854 16.1758 9.61001 15.8038 9.41723 15.5179L9.08398 15.0462C8.14063 13.7029 8.79285 12.2015 10.1907 11.7514L10.499 11.6521C10.8393 11.5426 11.168 11.26 11.1963 10.9036L11.265 10.0385C11.3764 8.6343 12.6577 7.82855 14.0055 8.23826L14.4416 8.37086C14.862 8.53492 15.1914 8.3952 15.4209 8.14527L15.8926 7.54352Z" fill="url(#paint15_radial_784_4030)"/>
<path d="M15.8926 7.54352C16.8974 6.41239 18.2637 6.59242 19.1379 7.54352L19.6711 8.1608C19.8557 8.36164 20.1228 8.46579 20.3947 8.4429L21.3425 8.1608C22.6345 7.88383 23.8086 8.8477 23.8086 10.3448V10.9087C23.836 11.2166 24.1049 11.4253 24.3826 11.5609L25.239 11.9187C26.4778 12.5237 26.7873 13.9593 25.885 15.1641L25.6286 15.5025C25.3987 15.8133 25.4459 16.2213 25.6748 16.533L25.9311 16.8919C26.8642 18.0403 26.3381 19.6159 25.0201 20.1664L24.2828 20.4743C24.0052 20.5903 23.8964 20.7893 23.8445 21.0857L23.7932 22.0496C23.6138 23.3724 22.4389 23.9698 21.4963 23.8364L20.3735 23.5364C20.1039 23.4982 19.7685 23.5877 19.5891 23.8697L19.1841 24.4234C18.1792 25.5564 16.8229 25.368 16.1387 24.7054L15.3915 23.8005C15.1958 23.611 14.9492 23.4493 14.654 23.5607L13.5239 23.8697C12.5909 24.0018 11.4923 23.2845 11.3165 22.3588L11.186 21.0191C11.1331 20.7402 10.9492 20.5039 10.6919 20.384L9.89916 20.1116C8.70707 19.5561 8.30779 18.2112 8.99226 17.0882L9.43907 16.4703C9.61854 16.1758 9.61001 15.8038 9.41723 15.5179L9.08398 15.0462C8.14063 13.7029 8.79285 12.2015 10.1907 11.7514L10.499 11.6521C10.8393 11.5426 11.168 11.26 11.1963 10.9036L11.265 10.0385C11.3764 8.6343 12.6577 7.82855 14.0055 8.23826L14.4416 8.37086C14.862 8.53492 15.1914 8.3952 15.4209 8.14527L15.8926 7.54352Z" fill="url(#paint16_radial_784_4030)"/>
<path d="M17.5227 23.0332C21.4164 23.0332 24.5728 19.8768 24.5728 15.9832C24.5728 12.0895 21.4164 8.93311 17.5227 8.93311C13.6291 8.93311 10.4727 12.0895 10.4727 15.9832C10.4727 19.8768 13.6291 23.0332 17.5227 23.0332Z" fill="url(#paint17_radial_784_4030)"/>
<path d="M17.5227 23.0332C21.4164 23.0332 24.5728 19.8768 24.5728 15.9832C24.5728 12.0895 21.4164 8.93311 17.5227 8.93311C13.6291 8.93311 10.4727 12.0895 10.4727 15.9832C10.4727 19.8768 13.6291 23.0332 17.5227 23.0332Z" fill="url(#paint18_radial_784_4030)" fill-opacity="0.5"/>
<path d="M17.5227 23.0332C21.4164 23.0332 24.5728 19.8768 24.5728 15.9832C24.5728 12.0895 21.4164 8.93311 17.5227 8.93311C13.6291 8.93311 10.4727 12.0895 10.4727 15.9832C10.4727 19.8768 13.6291 23.0332 17.5227 23.0332Z" fill="url(#paint19_radial_784_4030)" fill-opacity="0.5"/>
<path d="M17.5227 23.0332C21.4164 23.0332 24.5728 19.8768 24.5728 15.9832C24.5728 12.0895 21.4164 8.93311 17.5227 8.93311C13.6291 8.93311 10.4727 12.0895 10.4727 15.9832C10.4727 19.8768 13.6291 23.0332 17.5227 23.0332Z" fill="url(#paint20_radial_784_4030)" fill-opacity="0.5"/>
<path d="M17.5227 23.0332C21.4164 23.0332 24.5728 19.8768 24.5728 15.9832C24.5728 12.0895 21.4164 8.93311 17.5227 8.93311C13.6291 8.93311 10.4727 12.0895 10.4727 15.9832C10.4727 19.8768 13.6291 23.0332 17.5227 23.0332Z" fill="url(#paint21_radial_784_4030)" fill-opacity="0.5"/>
<path d="M17.5227 23.0332C21.4164 23.0332 24.5728 19.8768 24.5728 15.9832C24.5728 12.0895 21.4164 8.93311 17.5227 8.93311C13.6291 8.93311 10.4727 12.0895 10.4727 15.9832C10.4727 19.8768 13.6291 23.0332 17.5227 23.0332Z" fill="url(#paint22_radial_784_4030)" fill-opacity="0.5"/>
<path d="M17.5227 23.0332C21.4164 23.0332 24.5728 19.8768 24.5728 15.9832C24.5728 12.0895 21.4164 8.93311 17.5227 8.93311C13.6291 8.93311 10.4727 12.0895 10.4727 15.9832C10.4727 19.8768 13.6291 23.0332 17.5227 23.0332Z" fill="url(#paint23_radial_784_4030)" fill-opacity="0.5"/>
<path d="M17.5227 23.0332C21.4164 23.0332 24.5728 19.8768 24.5728 15.9832C24.5728 12.0895 21.4164 8.93311 17.5227 8.93311C13.6291 8.93311 10.4727 12.0895 10.4727 15.9832C10.4727 19.8768 13.6291 23.0332 17.5227 23.0332Z" fill="url(#paint24_radial_784_4030)" fill-opacity="0.5"/>
<path d="M17.5227 23.0332C21.4164 23.0332 24.5728 19.8768 24.5728 15.9832C24.5728 12.0895 21.4164 8.93311 17.5227 8.93311C13.6291 8.93311 10.4727 12.0895 10.4727 15.9832C10.4727 19.8768 13.6291 23.0332 17.5227 23.0332Z" fill="url(#paint25_radial_784_4030)" fill-opacity="0.5"/>
<path d="M17.5227 23.0332C21.4164 23.0332 24.5728 19.8768 24.5728 15.9832C24.5728 12.0895 21.4164 8.93311 17.5227 8.93311C13.6291 8.93311 10.4727 12.0895 10.4727 15.9832C10.4727 19.8768 13.6291 23.0332 17.5227 23.0332Z" fill="url(#paint26_radial_784_4030)" fill-opacity="0.5"/>
<path d="M17.5227 23.0332C21.4164 23.0332 24.5728 19.8768 24.5728 15.9832C24.5728 12.0895 21.4164 8.93311 17.5227 8.93311C13.6291 8.93311 10.4727 12.0895 10.4727 15.9832C10.4727 19.8768 13.6291 23.0332 17.5227 23.0332Z" fill="url(#paint27_radial_784_4030)" fill-opacity="0.5"/>
<path d="M17.5227 23.0332C21.4164 23.0332 24.5728 19.8768 24.5728 15.9832C24.5728 12.0895 21.4164 8.93311 17.5227 8.93311C13.6291 8.93311 10.4727 12.0895 10.4727 15.9832C10.4727 19.8768 13.6291 23.0332 17.5227 23.0332Z" fill="url(#paint28_radial_784_4030)" fill-opacity="0.5"/>
<path d="M17.5227 23.0332C21.4164 23.0332 24.5728 19.8768 24.5728 15.9832C24.5728 12.0895 21.4164 8.93311 17.5227 8.93311C13.6291 8.93311 10.4727 12.0895 10.4727 15.9832C10.4727 19.8768 13.6291 23.0332 17.5227 23.0332Z" fill="url(#paint29_radial_784_4030)" fill-opacity="0.5"/>
<path d="M17.5227 23.0332C21.4164 23.0332 24.5728 19.8768 24.5728 15.9832C24.5728 12.0895 21.4164 8.93311 17.5227 8.93311C13.6291 8.93311 10.4727 12.0895 10.4727 15.9832C10.4727 19.8768 13.6291 23.0332 17.5227 23.0332Z" fill="url(#paint30_radial_784_4030)" fill-opacity="0.5"/>
<path d="M17.5227 23.0332C21.4164 23.0332 24.5728 19.8768 24.5728 15.9832C24.5728 12.0895 21.4164 8.93311 17.5227 8.93311C13.6291 8.93311 10.4727 12.0895 10.4727 15.9832C10.4727 19.8768 13.6291 23.0332 17.5227 23.0332Z" fill="url(#paint31_radial_784_4030)" fill-opacity="0.5"/>
<path fill-rule="evenodd" clip-rule="evenodd" d="M14.4332 17.1285C14.6254 16.9363 14.9371 16.9363 15.1293 17.1285C16.5449 18.5441 18.8386 18.5441 20.2542 17.1285C20.4464 16.9363 20.758 16.9363 20.9502 17.1285C21.1424 17.3207 21.1424 17.6324 20.9502 17.8246C19.1502 19.6246 16.2332 19.6246 14.4332 17.8246C14.241 17.6324 14.241 17.3207 14.4332 17.1285Z" fill="url(#paint32_radial_784_4030)"/>
<path fill-rule="evenodd" clip-rule="evenodd" d="M14.4332 17.1285C14.6254 16.9363 14.9371 16.9363 15.1293 17.1285C16.5449 18.5441 18.8386 18.5441 20.2542 17.1285C20.4464 16.9363 20.758 16.9363 20.9502 17.1285C21.1424 17.3207 21.1424 17.6324 20.9502 17.8246C19.1502 19.6246 16.2332 19.6246 14.4332 17.8246C14.241 17.6324 14.241 17.3207 14.4332 17.1285Z" fill="url(#paint33_radial_784_4030)"/>
<path opacity="0.44" d="M13.1847 18.323C14.2575 18.323 15.1272 17.4533 15.1272 16.3805C15.1272 15.3077 14.2575 14.438 13.1847 14.438C12.1119 14.438 11.2422 15.3077 11.2422 16.3805C11.2422 17.4533 12.1119 18.323 13.1847 18.323Z" fill="url(#paint34_radial_784_4030)"/>
<path opacity="0.44" d="M21.8605 18.323C22.9333 18.323 23.803 17.4533 23.803 16.3805C23.803 15.3077 22.9333 14.438 21.8605 14.438C20.7877 14.438 19.918 15.3077 19.918 16.3805C19.918 17.4533 20.7877 18.323 21.8605 18.323Z" fill="url(#paint35_radial_784_4030)"/>
<path fill-rule="evenodd" clip-rule="evenodd" d="M14.2759 11.5244C13.3802 11.5244 12.6484 12.251 12.6484 13.1519C12.6484 13.3331 12.5015 13.48 12.3203 13.48C12.1391 13.48 11.9922 13.3331 11.9922 13.1519C11.9922 11.8872 13.0192 10.8682 14.2759 10.8682C14.4572 10.8682 14.6041 11.0151 14.6041 11.1963C14.6041 11.3775 14.4572 11.5244 14.2759 11.5244Z" fill="#43304A"/>
<path fill-rule="evenodd" clip-rule="evenodd" d="M14.2759 11.5244C13.3802 11.5244 12.6484 12.251 12.6484 13.1519C12.6484 13.3331 12.5015 13.48 12.3203 13.48C12.1391 13.48 11.9922 13.3331 11.9922 13.1519C11.9922 11.8872 13.0192 10.8682 14.2759 10.8682C14.4572 10.8682 14.6041 11.0151 14.6041 11.1963C14.6041 11.3775 14.4572 11.5244 14.2759 11.5244Z" fill="url(#paint36_radial_784_4030)"/>
<path fill-rule="evenodd" clip-rule="evenodd" d="M14.2759 11.5244C13.3802 11.5244 12.6484 12.251 12.6484 13.1519C12.6484 13.3331 12.5015 13.48 12.3203 13.48C12.1391 13.48 11.9922 13.3331 11.9922 13.1519C11.9922 11.8872 13.0192 10.8682 14.2759 10.8682C14.4572 10.8682 14.6041 11.0151 14.6041 11.1963C14.6041 11.3775 14.4572 11.5244 14.2759 11.5244Z" fill="url(#paint37_radial_784_4030)"/>
<path fill-rule="evenodd" clip-rule="evenodd" d="M14.2759 11.5244C13.3802 11.5244 12.6484 12.251 12.6484 13.1519C12.6484 13.3331 12.5015 13.48 12.3203 13.48C12.1391 13.48 11.9922 13.3331 11.9922 13.1519C11.9922 11.8872 13.0192 10.8682 14.2759 10.8682C14.4572 10.8682 14.6041 11.0151 14.6041 11.1963C14.6041 11.3775 14.4572 11.5244 14.2759 11.5244Z" fill="url(#paint38_radial_784_4030)"/>
<path fill-rule="evenodd" clip-rule="evenodd" d="M20.7578 11.1963C20.7578 11.0151 20.9047 10.8682 21.0859 10.8682C22.3427 10.8682 23.3697 11.8872 23.3697 13.1519C23.3697 13.3331 23.2228 13.48 23.0416 13.48C22.8603 13.48 22.7134 13.3331 22.7134 13.1519C22.7134 12.251 21.9817 11.5244 21.0859 11.5244C20.9047 11.5244 20.7578 11.3775 20.7578 11.1963Z" fill="#43304A"/>
<path fill-rule="evenodd" clip-rule="evenodd" d="M20.7578 11.1963C20.7578 11.0151 20.9047 10.8682 21.0859 10.8682C22.3427 10.8682 23.3697 11.8872 23.3697 13.1519C23.3697 13.3331 23.2228 13.48 23.0416 13.48C22.8603 13.48 22.7134 13.3331 22.7134 13.1519C22.7134 12.251 21.9817 11.5244 21.0859 11.5244C20.9047 11.5244 20.7578 11.3775 20.7578 11.1963Z" fill="url(#paint39_radial_784_4030)"/>
<path fill-rule="evenodd" clip-rule="evenodd" d="M20.7578 11.1963C20.7578 11.0151 20.9047 10.8682 21.0859 10.8682C22.3427 10.8682 23.3697 11.8872 23.3697 13.1519C23.3697 13.3331 23.2228 13.48 23.0416 13.48C22.8603 13.48 22.7134 13.3331 22.7134 13.1519C22.7134 12.251 21.9817 11.5244 21.0859 11.5244C20.9047 11.5244 20.7578 11.3775 20.7578 11.1963Z" fill="url(#paint40_radial_784_4030)"/>
<path fill-rule="evenodd" clip-rule="evenodd" d="M14.8776 13.8081C14.4924 13.8081 14.167 14.0423 14.0364 14.3751C13.9371 14.6281 13.6515 14.7528 13.3985 14.6535C13.1454 14.5542 13.0208 14.2685 13.1201 14.0155C13.3964 13.3114 14.0816 12.8237 14.8776 12.8237C15.7126 12.8237 16.4223 13.3658 16.6707 14.1201C16.7558 14.3782 16.6154 14.6565 16.3572 14.7415C16.0991 14.8266 15.8208 14.6862 15.7358 14.428C15.6168 14.0667 15.2764 13.8081 14.8776 13.8081Z" fill="#5D5561"/>
<path fill-rule="evenodd" clip-rule="evenodd" d="M14.8776 13.8081C14.4924 13.8081 14.167 14.0423 14.0364 14.3751C13.9371 14.6281 13.6515 14.7528 13.3985 14.6535C13.1454 14.5542 13.0208 14.2685 13.1201 14.0155C13.3964 13.3114 14.0816 12.8237 14.8776 12.8237C15.7126 12.8237 16.4223 13.3658 16.6707 14.1201C16.7558 14.3782 16.6154 14.6565 16.3572 14.7415C16.0991 14.8266 15.8208 14.6862 15.7358 14.428C15.6168 14.0667 15.2764 13.8081 14.8776 13.8081Z" fill="url(#paint41_radial_784_4030)"/>
<path fill-rule="evenodd" clip-rule="evenodd" d="M14.8776 13.8081C14.4924 13.8081 14.167 14.0423 14.0364 14.3751C13.9371 14.6281 13.6515 14.7528 13.3985 14.6535C13.1454 14.5542 13.0208 14.2685 13.1201 14.0155C13.3964 13.3114 14.0816 12.8237 14.8776 12.8237C15.7126 12.8237 16.4223 13.3658 16.6707 14.1201C16.7558 14.3782 16.6154 14.6565 16.3572 14.7415C16.0991 14.8266 15.8208 14.6862 15.7358 14.428C15.6168 14.0667 15.2764 13.8081 14.8776 13.8081Z" fill="url(#paint42_radial_784_4030)"/>
<path fill-rule="evenodd" clip-rule="evenodd" d="M14.8776 13.8081C14.4924 13.8081 14.167 14.0423 14.0364 14.3751C13.9371 14.6281 13.6515 14.7528 13.3985 14.6535C13.1454 14.5542 13.0208 14.2685 13.1201 14.0155C13.3964 13.3114 14.0816 12.8237 14.8776 12.8237C15.7126 12.8237 16.4223 13.3658 16.6707 14.1201C16.7558 14.3782 16.6154 14.6565 16.3572 14.7415C16.0991 14.8266 15.8208 14.6862 15.7358 14.428C15.6168 14.0667 15.2764 13.8081 14.8776 13.8081Z" fill="url(#paint43_radial_784_4030)"/>
<path fill-rule="evenodd" clip-rule="evenodd" d="M14.8776 13.8081C14.4924 13.8081 14.167 14.0423 14.0364 14.3751C13.9371 14.6281 13.6515 14.7528 13.3985 14.6535C13.1454 14.5542 13.0208 14.2685 13.1201 14.0155C13.3964 13.3114 14.0816 12.8237 14.8776 12.8237C15.7126 12.8237 16.4223 13.3658 16.6707 14.1201C16.7558 14.3782 16.6154 14.6565 16.3572 14.7415C16.0991 14.8266 15.8208 14.6862 15.7358 14.428C15.6168 14.0667 15.2764 13.8081 14.8776 13.8081Z" fill="url(#paint44_radial_784_4030)"/>
<path fill-rule="evenodd" clip-rule="evenodd" d="M20.5378 13.8081C20.1525 13.8081 19.8272 14.0423 19.6966 14.3751C19.5973 14.6281 19.3117 14.7528 19.0586 14.6535C18.8056 14.5542 18.6809 14.2685 18.7802 14.0155C19.0565 13.3114 19.7418 12.8237 20.5378 12.8237C21.3727 12.8237 22.0824 13.3658 22.3309 14.1201C22.4159 14.3782 22.2756 14.6565 22.0174 14.7415C21.7592 14.8266 21.481 14.6862 21.3959 14.428C21.2769 14.0667 20.9366 13.8081 20.5378 13.8081Z" fill="#5D5561"/>
<path fill-rule="evenodd" clip-rule="evenodd" d="M20.5378 13.8081C20.1525 13.8081 19.8272 14.0423 19.6966 14.3751C19.5973 14.6281 19.3117 14.7528 19.0586 14.6535C18.8056 14.5542 18.6809 14.2685 18.7802 14.0155C19.0565 13.3114 19.7418 12.8237 20.5378 12.8237C21.3727 12.8237 22.0824 13.3658 22.3309 14.1201C22.4159 14.3782 22.2756 14.6565 22.0174 14.7415C21.7592 14.8266 21.481 14.6862 21.3959 14.428C21.2769 14.0667 20.9366 13.8081 20.5378 13.8081Z" fill="url(#paint45_radial_784_4030)"/>
<path fill-rule="evenodd" clip-rule="evenodd" d="M20.5378 13.8081C20.1525 13.8081 19.8272 14.0423 19.6966 14.3751C19.5973 14.6281 19.3117 14.7528 19.0586 14.6535C18.8056 14.5542 18.6809 14.2685 18.7802 14.0155C19.0565 13.3114 19.7418 12.8237 20.5378 12.8237C21.3727 12.8237 22.0824 13.3658 22.3309 14.1201C22.4159 14.3782 22.2756 14.6565 22.0174 14.7415C21.7592 14.8266 21.481 14.6862 21.3959 14.428C21.2769 14.0667 20.9366 13.8081 20.5378 13.8081Z" fill="url(#paint46_radial_784_4030)"/>
<path fill-rule="evenodd" clip-rule="evenodd" d="M20.5378 13.8081C20.1525 13.8081 19.8272 14.0423 19.6966 14.3751C19.5973 14.6281 19.3117 14.7528 19.0586 14.6535C18.8056 14.5542 18.6809 14.2685 18.7802 14.0155C19.0565 13.3114 19.7418 12.8237 20.5378 12.8237C21.3727 12.8237 22.0824 13.3658 22.3309 14.1201C22.4159 14.3782 22.2756 14.6565 22.0174 14.7415C21.7592 14.8266 21.481 14.6862 21.3959 14.428C21.2769 14.0667 20.9366 13.8081 20.5378 13.8081Z" fill="url(#paint47_radial_784_4030)"/>
<defs>
<linearGradient id="paint0_linear_784_4030" x1="22.9981" y1="9.86398" x2="12.9247" y2="22.7163" gradientUnits="userSpaceOnUse">
<stop stop-color="#FC8B23"/>
<stop offset="0.75886" stop-color="#E67639"/>
</linearGradient>
<radialGradient id="paint1_radial_784_4030" cx="0" cy="0" r="1" gradientUnits="userSpaceOnUse" gradientTransform="translate(19.2186 7.61332) rotate(138.155) scale(2.47973 2.18789)">
<stop offset="0.300161" stop-color="#FFA13A"/>
<stop offset="1" stop-color="#FFA13A" stop-opacity="0"/>
</radialGradient>
<radialGradient id="paint2_radial_784_4030" cx="0" cy="0" r="1" gradientUnits="userSpaceOnUse" gradientTransform="translate(12.7669 6.8305) rotate(67.8105) scale(3.9422 3.47824)">
<stop offset="0.300161" stop-color="#FF942A"/>
<stop offset="1" stop-color="#FF942A" stop-opacity="0"/>
</radialGradient>
<radialGradient id="paint3_radial_784_4030" cx="0" cy="0" r="1" gradientUnits="userSpaceOnUse" gradientTransform="translate(23.3543 10.5083) rotate(-164.745) scale(1.57181 2.17637)">
<stop offset="0.300161" stop-color="#FFA13D"/>
<stop offset="1" stop-color="#FFA13D" stop-opacity="0"/>
</radialGradient>
<radialGradient id="paint4_radial_784_4030" cx="0" cy="0" r="1" gradientUnits="userSpaceOnUse" gradientTransform="translate(26.525 12.7967) rotate(154.195) scale(2.78689 2.05832)">
<stop offset="0.300161" stop-color="#FFA13D"/>
<stop offset="1" stop-color="#FFA13D" stop-opacity="0"/>
</radialGradient>
<radialGradient id="paint5_radial_784_4030" cx="0" cy="0" r="1" gradientUnits="userSpaceOnUse" gradientTransform="translate(27.1315 17.5114) rotate(-173.379) scale(3.10872 1.75187)">
<stop offset="0.300161" stop-color="#FFA13D"/>
<stop offset="1" stop-color="#FFA13D" stop-opacity="0"/>
</radialGradient>
<radialGradient id="paint6_radial_784_4030" cx="0" cy="0" r="1" gradientUnits="userSpaceOnUse" gradientTransform="translate(18.74 24.4406) rotate(-105.961) scale(1.89115 2.25402)">
<stop offset="0.300161" stop-color="#FFA13D"/>
<stop offset="0.837828" stop-color="#FFA13D" stop-opacity="0.143262"/>
<stop offset="1" stop-color="#FFA13D" stop-opacity="0"/>
</radialGradient>
<radialGradient id="paint7_radial_784_4030" cx="0" cy="0" r="1" gradientUnits="userSpaceOnUse" gradientTransform="translate(23.3202 22.2466) rotate(135) scale(3.50951 2.50845)">
<stop offset="0.349216" stop-color="#FFA13D"/>
<stop offset="1" stop-color="#FFA13D" stop-opacity="0"/>
</radialGradient>
<radialGradient id="paint8_radial_784_4030" cx="0" cy="0" r="1" gradientUnits="userSpaceOnUse" gradientTransform="translate(13.8135 8.50506) rotate(75.2564) scale(2.23397 2.60436)">
<stop offset="0.349216" stop-color="#FFA13D"/>
<stop offset="1" stop-color="#FFA13D" stop-opacity="0"/>
</radialGradient>
<radialGradient id="paint9_radial_784_4030" cx="0" cy="0" r="1" gradientUnits="userSpaceOnUse" gradientTransform="translate(24.3468 21.1233) rotate(-43.9639) scale(2.81986 2.71661)">
<stop stop-color="#E0762A"/>
<stop offset="0.626569" stop-color="#E0762A" stop-opacity="0.292889"/>
<stop offset="1" stop-color="#E0762A" stop-opacity="0"/>
</radialGradient>
<radialGradient id="paint10_radial_784_4030" cx="0" cy="0" r="1" gradientUnits="userSpaceOnUse" gradientTransform="translate(20.2521 8.90206) rotate(1.69135) scale(1.70247 1.64013)">
<stop stop-color="#E0762A"/>
<stop offset="0.626569" stop-color="#E0762A" stop-opacity="0.292889"/>
<stop offset="1" stop-color="#E0762A" stop-opacity="0"/>
</radialGradient>
<radialGradient id="paint11_radial_784_4030" cx="0" cy="0" r="1" gradientUnits="userSpaceOnUse" gradientTransform="translate(15.3715 8.61506) rotate(-10.1755) scale(1.90907 1.83917)">
<stop stop-color="#E0762A"/>
<stop offset="0.626569" stop-color="#E0762A" stop-opacity="0.292889"/>
<stop offset="1" stop-color="#E0762A" stop-opacity="0"/>
</radialGradient>
<radialGradient id="paint12_radial_784_4030" cx="0" cy="0" r="1" gradientUnits="userSpaceOnUse" gradientTransform="translate(10.987 12.0841) rotate(-39.6442) scale(2.18997 2.10978)">
<stop stop-color="#E0762A"/>
<stop offset="0.626569" stop-color="#E0762A" stop-opacity="0.292889"/>
<stop offset="1" stop-color="#E0762A" stop-opacity="0"/>
</radialGradient>
<radialGradient id="paint13_radial_784_4030" cx="0" cy="0" r="1" gradientUnits="userSpaceOnUse" gradientTransform="translate(11.278 20.4616) rotate(-127.747) scale(2.16184 2.08268)">
<stop stop-color="#E0762A"/>
<stop offset="1" stop-color="#E0762A" stop-opacity="0"/>
</radialGradient>
<radialGradient id="paint14_radial_784_4030" cx="0" cy="0" r="1" gradientUnits="userSpaceOnUse" gradientTransform="translate(8.3279 13.1552) rotate(25.2777) scale(2.19534 2.65338)">
<stop stop-color="#F0851D"/>
<stop offset="1" stop-color="#F0851D" stop-opacity="0"/>
</radialGradient>
<radialGradient id="paint15_radial_784_4030" cx="0" cy="0" r="1" gradientUnits="userSpaceOnUse" gradientTransform="translate(21.4323 24.2542) rotate(-142.487) scale(2.55954 2.4147)">
<stop offset="0.336586" stop-color="#E3745B"/>
<stop offset="0.689689" stop-color="#E3745B" stop-opacity="0.317051"/>
<stop offset="1" stop-color="#E3745B" stop-opacity="0"/>
</radialGradient>
<radialGradient id="paint16_radial_784_4030" cx="0" cy="0" r="1" gradientUnits="userSpaceOnUse" gradientTransform="translate(17.5226 16.0778) rotate(90) scale(7.55377 7.26224)">
<stop offset="0.918092" stop-color="#EB7922"/>
<stop offset="1" stop-color="#EB7922" stop-opacity="0"/>
</radialGradient>
<radialGradient id="paint17_radial_784_4030" cx="0" cy="0" r="1" gradientUnits="userSpaceOnUse" gradientTransform="translate(21.5235 11.8988) rotate(130.262) scale(11.4793 11.6976)">
<stop offset="0.17178" stop-color="#FFCE38"/>
<stop offset="1" stop-color="#DCA21C"/>
</radialGradient>
<radialGradient id="paint18_radial_784_4030" cx="0" cy="0" r="1" gradientUnits="userSpaceOnUse" gradientTransform="translate(19.1395 14.0312) rotate(41.9292) scale(0.962012 1.62339)">
<stop offset="0.1575" stop-color="#C06E3F"/>
<stop offset="0.582129" stop-color="#C06E3F" stop-opacity="0"/>
</radialGradient>
<radialGradient id="paint19_radial_784_4030" cx="0" cy="0" r="1" gradientUnits="userSpaceOnUse" gradientTransform="translate(19.7957 13.7031) rotate(50.1944) scale(2.56274 2.87252)">
<stop offset="0.104167" stop-color="#C06E3F"/>
<stop offset="0.375" stop-color="#C06E3F" stop-opacity="0"/>
</radialGradient>
<radialGradient id="paint20_radial_784_4030" cx="0" cy="0" r="1" gradientUnits="userSpaceOnUse" gradientTransform="translate(16.0782 13.9186) rotate(135) scale(1.42438 2.00827)">
<stop offset="0.132812" stop-color="#C06E3F"/>
<stop offset="0.569585" stop-color="#C06E3F" stop-opacity="0"/>
</radialGradient>
<radialGradient id="paint21_radial_784_4030" cx="0" cy="0" r="1" gradientUnits="userSpaceOnUse" gradientTransform="translate(13.8895 14.0312) rotate(24.155) scale(1.57091 2.65092)">
<stop offset="0.145" stop-color="#C06E3F"/>
<stop offset="0.331781" stop-color="#C06E3F" stop-opacity="0"/>
</radialGradient>
<radialGradient id="paint22_radial_784_4030" cx="0" cy="0" r="1" gradientUnits="userSpaceOnUse" gradientTransform="translate(15.3228 13.6668) rotate(90) scale(1.00719 2.9796)">
<stop stop-color="#C06E3F"/>
<stop offset="0.359375" stop-color="#C06E3F" stop-opacity="0"/>
</radialGradient>
<radialGradient id="paint23_radial_784_4030" cx="0" cy="0" r="1" gradientUnits="userSpaceOnUse" gradientTransform="translate(12.5769 12.7187) rotate(15.9454) scale(2.38879 4.15549)">
<stop stop-color="#C06E3F"/>
<stop offset="0.21816" stop-color="#C06E3F" stop-opacity="0"/>
</radialGradient>
<radialGradient id="paint24_radial_784_4030" cx="0" cy="0" r="1" gradientUnits="userSpaceOnUse" gradientTransform="translate(13.2332 11.7343) rotate(50.1944) scale(2.56274 4.00499)">
<stop stop-color="#C06E3F"/>
<stop offset="0.213184" stop-color="#C06E3F" stop-opacity="0"/>
</radialGradient>
<radialGradient id="paint25_radial_784_4030" cx="0" cy="0" r="1" gradientUnits="userSpaceOnUse" gradientTransform="translate(14.2176 11.4062) rotate(69.3173) scale(2.41637 4.20349)">
<stop stop-color="#C06E3F"/>
<stop offset="0.218269" stop-color="#C06E3F" stop-opacity="0"/>
</radialGradient>
<radialGradient id="paint26_radial_784_4030" cx="0" cy="0" r="1" gradientUnits="userSpaceOnUse" gradientTransform="translate(22.7488 12.7187) rotate(168.69) scale(1.67312 3.17832)">
<stop stop-color="#C06E3F"/>
<stop offset="0.353125" stop-color="#C06E3F" stop-opacity="0"/>
</radialGradient>
<radialGradient id="paint27_radial_784_4030" cx="0" cy="0" r="1" gradientUnits="userSpaceOnUse" gradientTransform="translate(21.4363 11.4062) rotate(-75.9638) scale(1.35289 2.96368)">
<stop stop-color="#C06E3F"/>
<stop offset="0.35478" stop-color="#C06E3F" stop-opacity="0"/>
</radialGradient>
<radialGradient id="paint28_radial_784_4030" cx="0" cy="0" r="1" gradientUnits="userSpaceOnUse" gradientTransform="translate(22.4207 12.0624) rotate(140.194) scale(2.56274 6.34099)">
<stop stop-color="#C06E3F"/>
<stop offset="0.226147" stop-color="#C06E3F" stop-opacity="0"/>
</radialGradient>
<radialGradient id="paint29_radial_784_4030" cx="0" cy="0" r="1" gradientUnits="userSpaceOnUse" gradientTransform="translate(20.1238 18.2968) rotate(156.801) scale(2.49893 0.833217)">
<stop offset="0.157328" stop-color="#C06E3F"/>
<stop offset="0.560577" stop-color="#C06E3F" stop-opacity="0"/>
</radialGradient>
<radialGradient id="paint30_radial_784_4030" cx="0" cy="0" r="1" gradientUnits="userSpaceOnUse" gradientTransform="translate(17.8269 18.6249) rotate(90) scale(0.984375 3.87598)">
<stop offset="0.0416665" stop-color="#C06E3F"/>
<stop offset="0.791667" stop-color="#C06E3F" stop-opacity="0"/>
</radialGradient>
<radialGradient id="paint31_radial_784_4030" cx="0" cy="0" r="1" gradientUnits="userSpaceOnUse" gradientTransform="translate(14.8738 17.9687) rotate(35.5377) scale(2.82264 1.26121)">
<stop offset="0.176966" stop-color="#C06E3F"/>
<stop offset="0.452247" stop-color="#C06E3F" stop-opacity="0"/>
</radialGradient>
<radialGradient id="paint32_radial_784_4030" cx="0" cy="0" r="1" gradientUnits="userSpaceOnUse" gradientTransform="translate(17.6917 16.9844) rotate(90) scale(2.19023 3.80047)">
<stop offset="0.58111" stop-color="#503C3E"/>
<stop offset="0.646787" stop-color="#52475C"/>
<stop offset="0.708696" stop-color="#52475C"/>
<stop offset="0.885105" stop-color="#31243B"/>
</radialGradient>
<radialGradient id="paint33_radial_784_4030" cx="0" cy="0" r="1" gradientUnits="userSpaceOnUse" gradientTransform="translate(14.3991 17.2707) rotate(49.0535) scale(0.849538 0.855421)">
<stop stop-color="#2F2A35"/>
<stop offset="1" stop-color="#2F2A35" stop-opacity="0"/>
</radialGradient>
<radialGradient id="paint34_radial_784_4030" cx="0" cy="0" r="1" gradientUnits="userSpaceOnUse" gradientTransform="translate(13.1815 16.3776) scale(2.10711)">
<stop offset="0.25" stop-color="#ED501F"/>
<stop offset="0.89541" stop-color="#F18A42" stop-opacity="0"/>
</radialGradient>
<radialGradient id="paint35_radial_784_4030" cx="0" cy="0" r="1" gradientUnits="userSpaceOnUse" gradientTransform="translate(21.8573 16.3776) scale(2.10711)">
<stop offset="0.130208" stop-color="#FB6738"/>
<stop offset="0.89541" stop-color="#F18A42" stop-opacity="0"/>
</radialGradient>
<radialGradient id="paint36_radial_784_4030" cx="0" cy="0" r="1" gradientUnits="userSpaceOnUse" gradientTransform="translate(14.6041 11.1128) rotate(127.543) scale(0.737138)">
<stop stop-color="#59525C"/>
<stop offset="1" stop-color="#59525C" stop-opacity="0"/>
</radialGradient>
<radialGradient id="paint37_radial_784_4030" cx="0" cy="0" r="1" gradientUnits="userSpaceOnUse" gradientTransform="translate(14.2505 13.0508) rotate(51.3402) scale(2.10102 2.26893)">
<stop offset="0.742378" stop-color="#52445E" stop-opacity="0"/>
<stop offset="0.875" stop-color="#52445E"/>
<stop offset="1" stop-color="#52445E" stop-opacity="0"/>
</radialGradient>
<radialGradient id="paint38_radial_784_4030" cx="0" cy="0" r="1" gradientUnits="userSpaceOnUse" gradientTransform="translate(14.5266 11.0929) rotate(158.703) scale(0.55216 0.438423)">
<stop offset="0.108978" stop-color="#48424F"/>
<stop offset="1" stop-color="#48424F" stop-opacity="0"/>
</radialGradient>
<radialGradient id="paint39_radial_784_4030" cx="0" cy="0" r="1" gradientUnits="userSpaceOnUse" gradientTransform="translate(21.1391 13.0508) rotate(128.66) scale(2.10102 2.26893)">
<stop offset="0.742378" stop-color="#52445E" stop-opacity="0"/>
<stop offset="0.875" stop-color="#52445E"/>
<stop offset="1" stop-color="#52445E" stop-opacity="0"/>
</radialGradient>
<radialGradient id="paint40_radial_784_4030" cx="0" cy="0" r="1" gradientUnits="userSpaceOnUse" gradientTransform="translate(23.3697 13.48) rotate(-122.305) scale(1.03462 0.821503)">
<stop offset="0.108978" stop-color="#453434"/>
<stop offset="1" stop-color="#453434" stop-opacity="0"/>
</radialGradient>
<radialGradient id="paint41_radial_784_4030" cx="0" cy="0" r="1" gradientUnits="userSpaceOnUse" gradientTransform="translate(14.8908 14.3914) rotate(90) scale(1.35404 1.43769)">
<stop offset="0.188596" stop-color="#382435"/>
<stop offset="1" stop-color="#382435" stop-opacity="0"/>
</radialGradient>
<radialGradient id="paint42_radial_784_4030" cx="0" cy="0" r="1" gradientUnits="userSpaceOnUse" gradientTransform="translate(14.8908 14.3914) rotate(90) scale(1.75193 2.11122)">
<stop offset="0.718644" stop-color="#382435" stop-opacity="0"/>
<stop offset="1" stop-color="#382435"/>
</radialGradient>
<radialGradient id="paint43_radial_784_4030" cx="0" cy="0" r="1" gradientUnits="userSpaceOnUse" gradientTransform="translate(14.8908 13.4915) rotate(90) scale(1.60867 3.58798)">
<stop offset="0.429103" stop-color="#382435" stop-opacity="0"/>
<stop offset="1" stop-color="#382435"/>
</radialGradient>
<radialGradient id="paint44_radial_784_4030" cx="0" cy="0" r="1" gradientUnits="userSpaceOnUse" gradientTransform="translate(14.0412 13.7058) rotate(59.4524) scale(0.933236 1.73406)">
<stop stop-color="#362841"/>
<stop offset="1" stop-color="#362841" stop-opacity="0"/>
</radialGradient>
<radialGradient id="paint45_radial_784_4030" cx="0" cy="0" r="1" gradientUnits="userSpaceOnUse" gradientTransform="translate(20.5509 14.3914) rotate(90) scale(1.35404 1.43769)">
<stop offset="0.188596" stop-color="#382435"/>
<stop offset="1" stop-color="#382435" stop-opacity="0"/>
</radialGradient>
<radialGradient id="paint46_radial_784_4030" cx="0" cy="0" r="1" gradientUnits="userSpaceOnUse" gradientTransform="translate(20.5509 14.3914) rotate(90) scale(1.75193 2.11122)">
<stop offset="0.718644" stop-color="#382435" stop-opacity="0"/>
<stop offset="1" stop-color="#382435"/>
</radialGradient>
<radialGradient id="paint47_radial_784_4030" cx="0" cy="0" r="1" gradientUnits="userSpaceOnUse" gradientTransform="translate(20.5509 13.4915) rotate(90) scale(1.60867 3.58798)">
<stop offset="0.429103" stop-color="#382435" stop-opacity="0"/>
<stop offset="1" stop-color="#382435"/>
</radialGradient>
</defs>
</svg>
